<svg width="64" height="64" viewBox="0 0 64 64" fill="none" xmlns="http://www.w3.org/2000/svg">
<path d="M9.06176 23.1052C9.06176 22.6275 9.44888 22.2404 9.92663 22.2404H35.8345C36.312 22.2404 36.6994 22.6275 36.6994 23.1052C36.6994 23.583 36.312 23.9701 35.8345 23.9701H9.92663C9.44888 23.97 9.06176 23.583 9.06176 23.1052ZM23.2091 29.5339H9.92663C9.44888 29.5339 9.06176 29.921 9.06176 30.3988C9.06176 30.8765 9.44888 31.2636 9.92663 31.2636H23.2093C23.687 31.2636 24.0741 30.8765 24.0741 30.3988C24.0741 29.921 23.6869 29.5339 23.2091 29.5339ZM23.2091 36.8273H9.92663C9.44888 36.8273 9.06176 37.2146 9.06176 37.6921C9.06176 38.1696 9.44888 38.557 9.92663 38.557H23.2093C23.687 38.557 24.0741 38.1696 24.0741 37.6921C24.0741 37.2146 23.6869 36.8273 23.2091 36.8273ZM23.2091 44.1206H9.92663C9.44888 44.1206 9.06176 44.508 9.06176 44.9855C9.06176 45.463 9.44888 45.8504 9.92663 45.8504H23.2093C23.687 45.8504 24.0741 45.463 24.0741 44.9855C24.074 44.508 23.6869 44.1206 23.2091 44.1206ZM63.6101 43.508C63.3776 44.0154 62.9626 44.401 62.4418 44.5947L59.7459 45.5964C59.5105 45.6836 59.2656 45.727 59.0213 45.727C58.7251 45.727 58.4295 45.6634 58.1514 45.5355C57.9551 45.4455 57.784 45.3211 57.6283 45.1811C57.5619 45.7915 57.3318 46.3764 56.9301 46.8165C56.3789 47.4206 55.6356 47.6566 54.8423 47.5023C54.8225 47.9009 54.7173 48.3018 54.5163 48.6768C53.925 49.7815 52.6936 50.3271 51.5214 50.099C51.4994 50.4949 51.3908 50.8839 51.1988 51.2431C51.0878 51.4508 50.9454 51.633 50.79 51.8024V54.2713C50.79 57.3153 48.3638 59.7973 45.3441 59.8995C44.6728 62.2625 42.5004 64 39.925 64H5.83563C2.72726 64 0.198257 61.4712 0.198257 58.3626V9.728C0.198257 6.68362 2.62576 4.2015 5.64588 4.10025C6.32663 1.71887 8.53351 0 11.0629 0H45.1525C48.2611 0 50.7899 2.529 50.7899 5.63737V32.5516C50.9054 32.5991 51.0184 32.6465 51.1289 32.6927C51.988 33.052 52.5304 33.2485 52.9596 33.2309C52.8655 32.794 52.9066 32.3407 53.0968 31.9261C53.3293 31.4191 53.7443 31.0331 54.2651 30.8398L56.9616 29.8384C57.483 29.6455 58.0495 29.6664 58.5563 29.8991C59.063 30.1316 59.4488 30.5466 59.6424 31.0675L63.6711 41.9135C63.8641 42.4348 63.8428 43.0013 63.6101 43.508ZM50.461 34.2884C48.8323 33.607 47.1484 32.902 44.8059 34.5187C44.3093 34.8621 43.7989 35.2959 43.2881 35.8115C42.9808 36.1217 42.6654 36.432 42.3574 36.7344C41.7308 37.3498 40.9886 38.079 40.5888 38.5761C41.7706 39.8081 43.0026 39.4331 44.9435 38.7028C46.5246 38.1076 48.3129 37.433 49.8973 38.6398C50.3325 38.888 50.9739 39.2045 51.6518 39.5395C53.5815 40.4925 55.2064 41.3329 56.2531 42.183L53.5444 34.8903C53.3389 34.9361 53.1334 34.9646 52.9288 34.9646C52.0765 34.9646 51.2369 34.6133 50.461 34.2884ZM7.47776 4.09062H39.925C43.0336 4.09062 45.5624 6.61962 45.5624 9.728V32.1751C46.8735 31.6906 48.037 31.7344 49.0601 31.9727V5.63737C49.0601 3.48287 47.3074 1.72975 45.1525 1.72975H11.0629C9.48488 1.72975 8.08601 2.69425 7.47776 4.09062ZM27.5538 14.0396L32.2188 10.8946C32.5113 10.6975 32.893 10.6975 33.1858 10.8946L37.3569 13.7063V5.82037H27.5538V14.0396ZM43.8326 58.3626V56.2469C43.6515 56.2913 43.4688 56.3164 43.287 56.3164C42.8641 56.3164 42.448 56.2026 42.0781 56.0045C41.4711 55.6801 40.965 55.1165 40.6941 54.4595C40.6766 54.4651 40.6593 54.4708 40.6413 54.4759C39.9486 54.6854 39.2173 54.6144 38.5816 54.2743C38.1093 54.0384 37.7213 53.6499 37.4696 53.1616C37.3486 53.2185 37.223 53.2669 37.0929 53.3064C36.4004 53.5159 35.6684 53.4449 35.0333 53.1048C34.4274 52.8024 33.9611 52.2489 33.741 51.5569C33.6234 51.1864 33.5856 50.7979 33.6256 50.4206C33.2315 50.4042 32.8351 50.3013 32.4646 50.103C31.8594 49.8013 31.3931 49.2478 31.173 48.5558C30.948 47.8491 31.0145 47.0789 31.3551 46.442L31.6661 45.8606C31.4864 45.9103 31.3035 45.942 31.1184 45.942C30.9036 45.942 30.6876 45.9083 30.4776 45.8401L27.7409 44.9577C26.6469 44.6047 26.0438 43.4268 26.3966 42.3327L29.9493 31.3213C30.1199 30.7923 30.4875 30.361 30.9841 30.1065C31.4808 29.8525 32.0458 29.8066 32.5745 29.9767L35.3121 30.8599C36.0143 31.0866 36.5099 31.6541 36.6845 32.32C37.3194 32.3423 37.9529 32.217 38.6579 32.0769C40.1345 31.7835 41.7828 31.4584 43.833 32.4709V9.728C43.833 7.5735 42.0803 5.82037 39.9254 5.82037H39.087V15.3325C39.087 15.6524 38.9108 15.946 38.6281 16.096C38.3455 16.2464 38.0043 16.228 37.7385 16.0495L32.7025 12.6547L27.5488 16.1291C27.406 16.2254 27.2376 16.2769 27.0654 16.2769H26.6893C26.2115 16.2769 25.8244 15.8897 25.8244 15.412V5.82037H5.83563C3.68113 5.82037 1.92801 7.5735 1.92801 9.728V58.3626C1.92801 60.5175 3.68113 62.2702 5.83563 62.2702H39.925C42.0799 62.2702 43.8326 60.5175 43.8326 58.3626ZM46.3916 51.8278C46.5235 52.3774 46.4138 52.9235 46.2481 53.3763L46.336 53.4219C46.8738 53.6989 47.1496 53.2811 47.22 53.1465C47.299 52.9958 47.4811 52.5026 46.889 52.0949L46.3916 51.8278ZM45.5358 54.9555L45.4685 54.9204C45.4615 54.9324 45.4541 54.9436 45.4471 54.9555H45.5358ZM42.7471 52.2225L42.746 52.2243L42.3 53.0581C42.0156 53.5902 42.4543 54.2445 42.894 54.4793C43.0584 54.5683 43.5618 54.8362 44.0206 53.9787L44.3449 53.3724C44.3451 53.3719 44.3453 53.3713 44.3455 53.3706C44.9586 52.2231 44.7813 52.0581 44.1281 51.7085C43.8478 51.5581 43.547 51.6285 43.3934 51.6826C43.1136 51.7816 42.8783 51.9786 42.7471 52.2225ZM41.3231 49.1476C40.8508 48.8954 40.2573 49.0739 40.0033 49.5485C40.0029 49.5493 40.0023 49.5499 40.0018 49.5508L38.997 51.4291V51.4297C38.8754 51.6572 38.854 51.9394 38.9379 52.2029C38.9829 52.3436 39.0989 52.5999 39.3759 52.7384C39.6248 52.8713 39.8889 52.8966 40.1394 52.8206C40.3899 52.7446 40.5955 52.5774 40.7176 52.3494L40.7761 52.2401C40.7766 52.2391 40.7774 52.2384 40.7779 52.2375L41.2185 51.4136C41.2193 51.4121 41.2196 51.4105 41.2204 51.4091H41.221L41.7238 50.4689C41.9774 49.9939 41.7978 49.4015 41.3231 49.1476ZM38.7978 47.5254C38.7218 47.2743 38.5545 47.0692 38.3265 46.9471C37.853 46.6931 37.2601 46.8734 37.0061 47.3475C37.0058 47.3483 37.0051 47.3489 37.0046 47.3496L36.1244 48.9955L35.4488 50.259C35.3271 50.487 35.3058 50.7686 35.3896 51.0326C35.4341 51.1734 35.5506 51.4301 35.8276 51.5686C36.3243 51.8339 36.9155 51.6525 37.1694 51.1795L37.4723 50.6131C37.4726 50.6124 37.4733 50.6118 37.4738 50.611L38.477 48.7352C38.4774 48.7346 38.4775 48.7337 38.4779 48.7331L38.7261 48.268C38.8485 48.0395 38.8738 47.776 38.7978 47.5254ZM35.3023 44.6971C35.0849 44.5946 34.8378 44.5761 34.6024 44.6476C34.3513 44.7236 34.1463 44.8909 34.0241 45.1189L33.6543 45.8104C33.6541 45.8105 33.654 45.8107 33.6539 45.8109L32.88 47.258C32.7584 47.4855 32.737 47.7676 32.8209 48.0316C32.8659 48.1719 32.9819 48.4286 33.2595 48.5671C33.7533 48.8324 34.3456 48.6528 34.5996 48.1791C34.6005 48.1776 34.6018 48.1764 34.6025 48.1748L35.4814 46.5316V46.531C35.4814 46.531 35.4814 46.531 35.4814 46.5305L35.7449 46.039C35.8434 45.8543 36.1419 45.2962 35.3023 44.6971ZM35.0095 32.9534C35.0686 32.7704 34.9639 32.5654 34.7804 32.5062L32.043 31.6231C32.0053 31.6108 31.9695 31.606 31.9366 31.606C31.8645 31.606 31.8063 31.6287 31.7723 31.6462C31.723 31.6716 31.634 31.7321 31.5955 31.8524L28.0426 42.8639C27.9835 43.0474 28.0885 43.2524 28.2718 43.3115L31.0091 44.1944C31.1299 44.2337 31.2308 44.1966 31.28 44.1719C31.3293 44.1465 31.4183 44.0858 31.4568 43.9658L32.0745 42.0509C32.0965 41.9739 32.1155 41.8964 32.1403 41.8199C32.1489 41.7934 32.1623 41.7703 32.1731 41.7453L35.0095 32.9534ZM49.0601 54.2715V52.686C49.0538 52.6868 49.0474 52.6893 49.041 52.6899C49.0563 53.1314 48.9526 53.5683 48.7516 53.9506C48.3175 54.7784 47.5219 55.2406 46.6739 55.2406C46.3049 55.2406 45.9259 55.1517 45.5624 54.9683V58.158C47.5253 57.9521 49.0601 56.2878 49.0601 54.2715ZM55.7218 44.0868C55.1294 43.1864 52.5759 41.9246 50.8856 41.0901C50.1238 40.714 49.4661 40.3891 48.9814 40.1081C48.9454 40.0872 48.911 40.0636 48.8784 40.0382C48.0879 39.4132 47.0996 39.7381 45.5535 40.3215C43.62 41.0495 40.9713 42.0445 38.8289 39.1644C38.6481 38.9206 38.6081 38.6003 38.723 38.3198C39.0108 37.6181 39.8311 36.791 41.1459 35.5C41.4476 35.2033 41.7574 34.8993 42.0586 34.5951C42.3046 34.3462 42.5524 34.1131 42.7996 33.8957C41.3999 33.2955 40.2681 33.5207 38.995 33.7736C38.1939 33.9328 37.3718 34.093 36.4773 34.0389L33.7318 42.548C33.6709 42.7651 33.6205 42.9841 33.5901 43.2044C33.7506 43.1176 33.9218 43.0461 34.1009 42.9921C34.794 42.7804 35.5254 42.8536 36.1611 43.1937C36.2005 43.2146 36.2378 43.2388 36.2731 43.2653C36.9871 43.7664 37.4251 44.4206 37.5586 45.1205C38.0868 45.0597 38.6386 45.1526 39.1431 45.4222C39.7783 45.7617 40.2439 46.331 40.4534 47.0236C40.4838 47.1232 40.508 47.2241 40.5266 47.3254C41.0633 47.2561 41.6263 47.3485 42.1393 47.6221C42.7683 47.9589 43.2064 48.5111 43.4196 49.1384C43.6671 48.7825 44.1441 48.6593 44.5356 48.8676L47.4046 50.4081C47.4539 50.424 47.5026 50.443 47.5496 50.4684C47.5508 50.4684 47.5513 50.4689 47.5525 50.4695L48.2688 50.853C48.512 50.9825 48.7919 51.009 49.0593 50.929C49.3256 50.8479 49.544 50.67 49.6735 50.4274C49.8036 50.1841 49.8306 49.9038 49.7501 49.6369C49.669 49.3711 49.4916 49.1532 49.2508 49.0231L49.2485 49.022C49.219 49.0062 49.1939 48.9859 49.167 48.9673L45.8533 47.1954C45.4321 46.9707 45.2733 46.4465 45.4985 46.0254C45.7231 45.6036 46.2496 45.4442 46.6685 45.6706L50.0689 47.4888C50.098 47.5044 50.1228 47.5245 50.1494 47.5429L51.5576 48.2962C52.0734 48.5705 52.7164 48.3763 52.9918 47.861C53.2575 47.3639 53.0816 46.7492 52.6045 46.4596L47.9349 43.9253C47.5154 43.6973 47.3594 43.1725 47.5875 42.7524C47.8155 42.3329 48.3403 42.1786 48.7604 42.405L53.3299 44.8851C53.3439 44.8918 53.3585 44.8954 53.3724 44.9027L54.7924 45.6624C55.3623 45.9659 55.5734 45.7379 55.6528 45.6505C55.9536 45.3205 56.0478 44.5811 55.7218 44.0868ZM62.0494 42.5159L58.0206 31.6696C57.9768 31.5509 57.8855 31.4942 57.8349 31.4711C57.8028 31.4565 57.7493 31.4379 57.6845 31.4379C57.6474 31.4379 57.6068 31.4437 57.564 31.4595L54.8675 32.4611C54.7488 32.505 54.6919 32.5962 54.6688 32.6469C54.6456 32.6975 54.6136 32.8 54.6575 32.9183L58.6863 43.7645C58.7301 43.8833 58.8214 43.9401 58.872 43.9632C58.9221 43.9857 59.0251 44.0179 59.1434 43.9745L61.8393 42.9729C61.958 42.929 62.0149 42.8377 62.038 42.7871C62.0613 42.7366 62.0933 42.6341 62.0494 42.5159Z" fill="#5DAE38"/>
</svg>
