<svg width="57" height="69" viewBox="0 0 57 69" fill="none" xmlns="http://www.w3.org/2000/svg">
<path d="M35.8446 60.6446C35.2864 60.6446 34.8338 61.0971 34.8338 61.6553C34.8338 62.2135 35.2864 62.6661 35.8446 62.6661C36.4027 62.6661 36.8553 62.2135 36.8553 61.6553C36.8553 61.0971 36.4027 60.6446 35.8446 60.6446ZM53.1703 39.4703C51.0191 37.3178 48.0816 36.2282 45.1201 36.4355C45.1088 36.1671 44.6053 30.5196 44.576 30.229C45.5779 28.4971 45.1381 26.2285 43.5968 24.9585C42.6031 24.1397 41.3342 23.8449 40.1427 24.0426C40.1342 22.8085 39.5799 21.6481 38.6177 20.8557C37.6237 20.037 36.3548 19.7423 35.1632 19.9402C35.1547 18.7069 34.5999 17.5467 33.6373 16.7538C32.6438 15.9346 31.3751 15.6394 30.1837 15.837C30.1749 14.6031 29.6202 13.4429 28.6573 12.6498C26.8638 11.173 24.1741 11.399 22.6618 13.1544L21.6659 14.3103L19.6438 12.2881C20.0628 10.0595 19.7203 7.71681 18.6774 5.68443C18.4224 5.18769 17.8137 4.99175 17.3166 5.24672C16.82 5.50156 16.624 6.11083 16.8788 6.60743C17.7249 8.256 17.9983 10.157 17.6483 11.9605C17.5275 12.5853 17.7239 13.227 18.1738 13.6771L20.3427 15.8459C20.3427 15.8459 19.0848 17.3784 18.9285 17.6966C17.6388 17.3337 16.2868 17.497 15.1525 18.1091L14.4473 17.4038C13.9979 16.9543 13.3553 16.7585 12.7293 16.8795C10.0258 17.4024 7.23353 16.5362 5.25911 14.5616C3.64356 12.9459 2.77339 10.8219 2.7905 8.60706L7.72245 13.539C8.73925 14.5535 10.3817 14.5635 11.3843 13.5611L14.3305 10.6146C15.3335 9.62223 15.3008 7.93472 14.3071 6.95135L9.37708 2.02128C9.39272 2.02128 9.40862 2.02115 9.42439 2.02115C11.0862 2.02115 12.7187 2.52328 14.1159 3.47875C14.5767 3.7937 15.2058 3.67591 15.5207 3.21489C15.8359 2.75413 15.7177 2.12519 15.257 1.81011C13.1253 0.352639 10.5514 -0.255145 8.00721 0.0980706C7.43972 0.177042 6.97425 0.563814 6.79245 1.10759C6.60836 1.65823 6.75054 2.25591 7.16211 2.66559L12.8774 8.38092C13.09 8.6018 13.1565 8.92227 12.9017 9.18465L9.95455 12.1319C9.73946 12.347 9.3787 12.3362 9.15095 12.109L3.43562 6.3937C3.02297 5.98118 2.42502 5.84009 1.87573 6.02431C1.33303 6.20637 0.9468 6.67171 0.867963 7.23866C0.425399 10.4221 1.53248 13.6938 3.82953 15.991C6.26647 18.4278 9.71345 19.5034 13.059 18.8744L13.6006 19.4159C13.3889 19.6797 9.08478 26.092 8.88102 26.3941C7.29876 28.7414 7.37773 31.8419 9.07737 34.1093L12.6018 38.8122C12.9389 39.2618 13.5738 39.3469 14.0169 39.0148C14.4635 38.68 14.5542 38.0465 14.2196 37.5997L10.6949 32.8967C9.5109 31.3173 9.45565 29.1581 10.5573 27.5236L15.0545 20.8485C15.8623 19.6491 17.4814 19.1987 18.8181 19.7999L27.893 23.9236C28.9748 24.4154 29.4679 25.6606 29.0155 26.7581C28.5572 27.8703 27.2437 28.4144 26.1347 27.9462C26.0689 27.9184 22.9138 26.5887 22.8523 26.5678C21.2979 26.04 19.5722 26.5395 18.5584 27.8105L17.425 29.2296C17.0767 29.6658 17.1478 30.3017 17.5841 30.6501C18.02 30.9985 18.6561 30.927 19.0046 30.4911L20.1384 29.0716C20.8817 28.1369 22.0414 28.2897 23.0066 28.8231L37.3562 43.1729C36.8835 45.6856 37.3728 48.2552 38.6786 50.4121V55.5737C38.4044 55.5275 38.1231 55.5022 37.836 55.5022H22.3101C22.0732 55.5022 21.8404 55.5198 21.612 55.5515V49.699C21.612 48.237 21.1456 46.842 20.2633 45.6644L17.0203 41.3371C16.6856 40.8905 16.0519 40.7996 15.6053 41.1346C15.1587 41.4693 15.068 42.1029 15.4026 42.5495L18.6456 46.8767C19.2638 47.7018 19.5906 48.6776 19.5906 49.699V56.2996C18.1883 57.1987 17.2565 58.7699 17.2565 60.5558V67.9892C17.2565 68.5474 17.7089 69 18.2672 69C18.8255 69 19.2779 68.5474 19.2779 67.9892V60.5558C19.2779 58.8838 20.6382 57.5236 22.3101 57.5236H37.836C39.5078 57.5236 40.8681 58.8838 40.8681 60.5558V67.9892C40.8681 68.5474 41.3205 69 41.8789 69C42.4372 69 42.8896 68.5474 42.8896 67.9892V60.5558C42.8896 58.8319 42.0215 57.3077 40.7001 56.3952V52.8323C42.6115 54.523 45.0857 55.4586 47.6039 55.4586C48.0672 55.4586 48.5327 55.427 48.9956 55.3625C49.5619 55.282 50.0263 54.8948 50.2074 54.3522C50.3907 53.8029 50.2491 53.2059 49.8375 52.7941L44.1213 47.0779C43.9138 46.8627 43.8455 46.5393 44.098 46.2762L47.0441 43.3285C47.2595 43.1139 47.6206 43.1242 47.8486 43.352L53.5642 49.0675C53.9766 49.4797 54.5742 49.6211 55.1241 49.4367C55.6667 49.2546 56.0529 48.7893 56.1318 48.2224C56.5746 45.0378 55.4674 41.7658 53.1703 39.4703ZM39.1321 26.7817C39.938 25.8462 41.366 25.7397 42.3116 26.5186C43.2289 27.2743 43.3652 28.6639 42.5806 29.5647L39.4337 33.2167C38.633 34.1463 37.2066 34.2641 36.2542 33.4797C35.3326 32.7206 35.2016 31.3347 35.9853 30.4337L39.1321 26.7817ZM43.0314 35.6772L41.3935 34.0393L42.7461 32.4695L43.0314 35.6772ZM34.1521 22.6798C34.9534 21.7499 36.38 21.6316 37.3326 22.416C38.251 23.1725 38.3832 24.5628 37.6003 25.4624L34.4535 29.1145C33.6525 30.0441 32.2267 30.1618 31.2753 29.3775C30.8959 29.0643 30.6433 28.6493 30.54 28.1876C30.9346 27.5686 31.1705 26.8159 31.2018 26.1024L34.1521 22.6798ZM20.7982 18.4796C20.8684 18.3549 24.1931 14.474 24.1931 14.474C24.9939 13.5445 26.4201 13.4261 27.3722 14.2103C28.2904 14.9666 28.425 16.3561 27.6412 17.2566L24.9586 20.37L20.7982 18.4796ZM28.7293 22.0834L26.8762 21.2413L29.1725 18.5761C29.9736 17.6466 31.3995 17.5287 32.3516 18.3137C33.2708 19.0717 33.4043 20.4599 32.6209 21.3599L30.5865 23.7201C30.161 23.0261 29.5295 22.4472 28.7293 22.0834ZM49.2775 41.9219C48.2616 40.9082 46.6193 40.897 45.6156 41.8987L42.6695 44.8464C41.6642 45.8376 41.6889 47.5162 42.6929 48.5082L47.6224 53.4377H47.5995C45.4079 53.4377 43.2523 52.5553 41.6684 50.9723C39.6934 48.9962 38.8273 46.2032 39.3517 43.5006C39.4729 42.8734 39.2758 42.2309 38.8262 41.784L27.1759 30.1337C27.8058 30.1054 28.406 29.9392 28.943 29.6578C29.1983 30.1406 29.5503 30.5745 29.9891 30.9367C30.9805 31.7553 32.2315 32.0547 33.4443 31.8534C33.4529 33.0885 34.0054 34.2456 34.9693 35.0398C36.3813 36.2032 38.3679 36.3257 39.9117 35.4162L42.555 38.0593C43.0012 38.5036 43.651 38.6997 44.2665 38.5818C46.9719 38.0637 49.7628 38.9226 51.7412 40.8994C53.3299 42.4871 54.2127 44.651 54.2067 46.8507L49.2775 41.9219Z" fill="#5DAE38"/>
</svg>
