<svg width="50" height="53" viewBox="0 0 50 53" fill="none" xmlns="http://www.w3.org/2000/svg">
<path d="M49.1958 9.15519C48.9622 7.68789 47.6774 6.59289 46.1955 6.59289C46.1882 6.59289 46.1736 6.59289 46.1663 6.59289C36.9537 6.68779 28.0696 9.97279 21.0105 15.8566C20.7915 13.2724 20.0542 10.7539 18.8351 8.44709C17.1707 5.30079 14.6668 2.67279 11.6081 0.847788C10.3744 0.110488 8.83411 0.314887 7.87051 1.34419C3.28611 6.22789 0.818707 12.6081 0.928207 19.3095C1.03041 25.7627 3.51241 31.8363 7.93621 36.501C7.52011 38.0924 7.20621 39.713 6.99451 41.3628C6.90691 42.0417 7.38141 42.6622 8.06761 42.7571C8.11871 42.7644 8.17711 42.7644 8.22821 42.7644C8.84141 42.7644 9.37431 42.3118 9.45461 41.684C9.68091 39.9685 10.0167 38.2895 10.4693 36.6616C10.5204 36.5521 10.5496 36.4426 10.5642 36.3258C15.0391 20.6381 29.5077 9.25009 46.2101 9.07489C46.2101 9.07489 46.2101 9.07489 46.2174 9.07489C46.4802 9.07489 46.7284 9.28659 46.7722 9.54209C47.692 15.3456 47.7212 21.2294 46.8598 27.0402C46.8452 27.084 46.8306 27.1278 46.8233 27.1716C45.1078 34.5373 40.319 40.8299 33.6687 44.4288C27.8068 47.6116 20.9813 48.4438 14.5792 46.8305C16.74 45.407 18.8132 43.8448 20.7915 42.1439C26.011 37.6544 30.3983 32.3473 33.8293 26.3832C34.1724 25.7919 33.968 25.0327 33.3694 24.6896C32.7781 24.3465 32.0189 24.5509 31.6758 25.1495C26.668 33.8 19.5067 41.027 10.9949 46.1224C10.9584 46.137 10.9292 46.1589 10.8927 46.1808C8.16251 47.8087 5.30091 49.2103 2.32251 50.3783C1.68741 50.6265 1.36621 51.3492 1.62171 51.9843C1.81151 52.4734 2.27871 52.7727 2.77511 52.7727C2.92841 52.7727 3.08171 52.7435 3.22771 52.6851C6.17691 51.5317 9.00931 50.1593 11.7249 48.5752C14.7471 49.5972 17.8861 50.1082 21.0178 50.1082C25.792 50.1082 30.5443 48.9329 34.8221 46.6042C42.0199 42.706 47.2321 35.917 49.152 27.9673C49.1958 27.8651 49.2323 27.7556 49.2469 27.6388C50.1886 21.5068 50.1667 15.2872 49.1958 9.15519ZM13.3893 24.31C13.3747 22.9814 13.3163 21.7477 13.2141 20.5651C12.9878 18.0393 12.5571 15.3821 11.9001 12.4256C11.7541 11.754 11.0898 11.3379 10.4182 11.4839C9.74661 11.6299 9.33051 12.2942 9.47651 12.9658C10.1116 15.8128 10.5277 18.3678 10.7394 20.7841C10.9438 23.0982 10.9657 25.6459 10.7978 28.7776C10.0094 30.369 9.32321 32.0115 8.75381 33.7051C1.27861 24.7845 1.53411 11.6956 9.66631 3.03779C9.82691 2.86259 10.1043 2.84069 10.3306 2.97209C15.6523 6.14029 18.784 11.8781 18.5869 18.0393C16.6305 19.9592 14.8931 22.0616 13.3893 24.31Z" fill="#5DAE38"/>
</svg>
