<svg width="59" height="58" viewBox="0 0 59 58" fill="none" xmlns="http://www.w3.org/2000/svg">
<path d="M54.0833 0H12.7833C10.0691 0.00336101 7.87003 2.20242 7.86667 4.91667V43.2667H0.983333C0.440291 43.2667 0 43.707 0 44.25V46.2167C0.00336101 48.9309 2.20242 51.13 4.91667 51.1333H35.4235V56.05C35.4235 56.4226 35.6338 56.763 35.967 56.9296C36.3003 57.0962 36.6988 57.0602 36.997 56.8365L40.3402 54.3292L43.6834 56.8365C43.8534 56.9647 44.0608 57.0338 44.2735 57.0333C44.4262 57.0348 44.577 57.0012 44.7143 56.9349C45.049 56.7673 45.2593 56.424 45.2569 56.05V51.1333H46.2167C48.9309 51.13 51.13 48.9309 51.1333 46.2167V7.86667H58.0167C58.5597 7.86667 59 7.42638 59 6.88333V4.91667C58.9966 2.20242 56.7976 0.00336101 54.0833 0ZM35.4235 49.1667H4.91667C3.28754 49.1667 1.96667 47.8458 1.96667 46.2167V45.2333H35.4235V49.1667ZM43.2902 54.0833L40.9303 52.3135C40.5807 52.0509 40.1001 52.0509 39.7501 52.3135L37.3902 54.0833V43.1005C37.5803 43.1154 37.7714 43.1121 37.9606 43.0895C38.5281 43.8217 39.4025 44.25 40.3287 44.25C41.2549 44.25 42.1287 43.8217 42.6963 43.0895C42.8922 43.113 43.09 43.1169 43.2864 43.1005L43.2902 54.0833ZM44.5549 38.3303C44.2927 38.4235 44.082 38.6237 43.9758 38.8806C43.8692 39.1379 43.8764 39.4279 43.9965 39.6795C44.1823 40.0694 44.1036 40.5342 43.7991 40.8405C43.4943 41.1468 43.03 41.2285 42.6391 41.0446C42.388 40.9245 42.0975 40.9168 41.8402 41.023C41.5823 41.1296 41.3826 41.3403 41.289 41.603C41.1454 42.0101 40.7603 42.2829 40.3287 42.2829C39.8965 42.2829 39.5115 42.0101 39.3679 41.603C39.2748 41.3403 39.0745 41.1296 38.8172 41.023C38.5593 40.9168 38.2689 40.9245 38.0177 41.0446C37.6269 41.2285 37.1626 41.1468 36.8582 40.8405C36.5533 40.5342 36.4746 40.0694 36.6609 39.6795C36.7804 39.4284 36.7881 39.1379 36.6815 38.881C36.5754 38.6237 36.3651 38.4239 36.1029 38.3303C35.6953 38.1853 35.4226 37.7993 35.4226 37.3667C35.4226 36.9341 35.6953 36.548 36.1029 36.403C36.3651 36.3094 36.5749 36.1097 36.681 35.8528C36.7876 35.5959 36.7799 35.3059 36.6609 35.0548C36.4736 34.6649 36.5523 34.1996 36.8572 33.8928C37.1616 33.5865 37.6264 33.5044 38.0177 33.6888C38.2689 33.8088 38.5593 33.8165 38.8172 33.7104C39.0745 33.6038 39.2748 33.393 39.3679 33.1304C39.5115 32.7232 39.8965 32.4505 40.3287 32.4505C40.7603 32.4505 41.1454 32.7232 41.289 33.1304C41.3826 33.393 41.5823 33.6038 41.8402 33.7104C42.0975 33.8165 42.388 33.8088 42.6391 33.6888C43.03 33.5049 43.4943 33.5865 43.7991 33.8928C44.1036 34.1992 44.1823 34.6639 43.9965 35.0538C43.8764 35.3054 43.8692 35.5954 43.9758 35.8528C44.082 36.1097 44.2927 36.3099 44.5549 36.403C44.9616 36.549 45.2333 36.9345 45.2333 37.3667C45.2333 37.7988 44.9616 38.1844 44.5549 38.3303ZM50.0741 2.08958C50.0184 2.16833 49.969 2.25187 49.9181 2.33446C49.8129 2.50251 49.7188 2.67632 49.6348 2.85541C49.5906 2.95384 49.5493 3.04459 49.5109 3.14062C49.438 3.33363 49.3765 3.53049 49.328 3.73071C49.3054 3.82242 49.2766 3.91077 49.2593 4.00391C49.1998 4.30496 49.1691 4.61034 49.1667 4.91667V46.2167C49.1667 47.8458 47.8458 49.1667 46.2167 49.1667C45.8887 49.1604 45.5646 49.0994 45.2569 48.9857V42.1455C45.8686 41.5021 46.1571 40.6172 46.0438 39.7367C46.7746 39.1677 47.2019 38.2929 47.2019 37.3667C47.2019 36.4405 46.7746 35.5657 46.0438 34.9967C46.16 34.0786 45.8455 33.1582 45.192 32.5023C44.5386 31.8469 43.6191 31.53 42.7001 31.6438C42.1326 30.9116 41.2587 30.4833 40.3325 30.4833C39.4063 30.4833 38.532 30.9116 37.9644 31.6438C37.0459 31.5305 36.1265 31.8474 35.473 32.5028C34.82 33.1582 34.5055 34.0786 34.6212 34.9967C33.8904 35.5657 33.4626 36.4405 33.4626 37.3667C33.4626 38.2929 33.8904 39.1677 34.6212 39.7367C34.505 40.6297 34.8027 41.5271 35.4293 42.1743V43.2667H9.83333V4.91667C9.83333 3.28754 11.1542 1.96667 12.7833 1.96667H50.15C50.1226 2.00508 50.102 2.04925 50.0741 2.08958ZM57.0333 5.9H51.1333V4.91667C51.1333 3.28754 52.4542 1.96667 54.0833 1.96667C55.7125 1.96667 57.0333 3.28754 57.0333 4.91667V5.9Z" fill="#5DAE38"/>
<path d="M32.45 7.86667H36.3833V9.83334H32.45V7.86667Z" fill="#5DAE38"/>
<path d="M22.6167 7.86667H30.4833V9.83334H22.6167V7.86667Z" fill="#5DAE38"/>
<path d="M19.6667 12.7833H39.3333V14.75H19.6667V12.7833Z" fill="#5DAE38"/>
<path d="M14.75 18.6833H19.6667V20.65H14.75V18.6833Z" fill="#5DAE38"/>
<path d="M14.75 23.6H25.5667V25.5666H14.75V23.6Z" fill="#5DAE38"/>
<path d="M21.6333 18.6833H44.25V20.65H21.6333V18.6833Z" fill="#5DAE38"/>
<path d="M27.5333 23.6H44.25V25.5666H27.5333V23.6Z" fill="#5DAE38"/>
<path d="M14.75 28.5167H34.4167V30.4833H14.75V28.5167Z" fill="#5DAE38"/>
<path d="M14.75 33.4333H31.4667V35.4H14.75V33.4333Z" fill="#5DAE38"/>
</svg>
