<svg width="28" height="28" viewBox="0 0 28 28" fill="none" xmlns="http://www.w3.org/2000/svg">
<path fill-rule="evenodd" clip-rule="evenodd" d="M14 0C6.26801 0 0 6.26801 0 14C0 21.732 6.26801 28 14 28C21.732 28 28 21.732 28 14C28 6.26801 21.732 0 14 0ZM10.9219 6.57844C11.7184 6.5422 11.9729 6.53333 14.0007 6.53333H13.9984C16.0268 6.53333 16.2804 6.5422 17.0768 6.57844C17.8717 6.61485 18.4146 6.74069 18.8906 6.92534C19.3822 7.11589 19.7975 7.37101 20.2129 7.78635C20.6282 8.20137 20.8833 8.61796 21.0747 9.10905C21.2582 9.58381 21.3842 10.1264 21.4216 10.9213C21.4573 11.7177 21.4667 11.9722 21.4667 14.0001C21.4667 16.0279 21.4573 16.2818 21.4216 17.0782C21.3842 17.8728 21.2582 18.4156 21.0747 18.8905C20.8833 19.3814 20.6282 19.798 20.2129 20.213C19.798 20.6284 19.382 20.8841 18.8911 21.0748C18.416 21.2595 17.8728 21.3853 17.0779 21.4217C16.2815 21.458 16.0278 21.4668 13.9998 21.4668C11.9721 21.4668 11.7177 21.458 10.9213 21.4217C10.1265 21.3853 9.58381 21.2595 9.10874 21.0748C8.61796 20.8841 8.20137 20.6284 7.7865 20.213C7.37132 19.798 7.11621 19.3814 6.92534 18.8903C6.74085 18.4156 6.615 17.873 6.57844 17.0781C6.54236 16.2816 6.53333 16.0279 6.53333 14.0001C6.53333 11.9722 6.54267 11.7176 6.57829 10.9211C6.61407 10.1265 6.74007 9.58381 6.92518 9.10889C7.11652 8.61796 7.37163 8.20137 7.78697 7.78635C8.20199 7.37116 8.61858 7.11605 9.10967 6.92534C9.58443 6.74069 10.127 6.61485 10.9219 6.57844Z" fill="white"/>
<path fill-rule="evenodd" clip-rule="evenodd" d="M13.3309 7.87894C13.4609 7.87874 13.6008 7.8788 13.7518 7.87887L14.0007 7.87894C15.9943 7.87894 16.2306 7.8861 17.0179 7.92188C17.7459 7.95516 18.141 8.07681 18.4042 8.17901C18.7527 8.31435 19.0011 8.47613 19.2623 8.73746C19.5236 8.9988 19.6854 9.24769 19.821 9.59614C19.9232 9.85903 20.045 10.2541 20.0782 10.9822C20.1139 11.7693 20.1217 12.0057 20.1217 13.9984C20.1217 15.9911 20.1139 16.2275 20.0782 17.0147C20.0449 17.7427 19.9232 18.1378 19.821 18.4007C19.6857 18.7491 19.5236 18.9972 19.2623 19.2584C19.0009 19.5198 18.7528 19.6815 18.4042 19.8169C18.1413 19.9195 17.7459 20.0409 17.0179 20.0742C16.2308 20.1099 15.9943 20.1177 14.0007 20.1177C12.0069 20.1177 11.7706 20.1099 10.9835 20.0742C10.2555 20.0406 9.86038 19.9189 9.59702 19.8167C9.24858 19.6814 8.99968 19.5196 8.73835 19.2583C8.47701 18.9969 8.31523 18.7487 8.17959 18.4001C8.07739 18.1372 7.95558 17.742 7.92245 17.014C7.88667 16.2269 7.87952 15.9905 7.87952 13.9965C7.87952 12.0026 7.88667 11.7674 7.92245 10.9803C7.95574 10.2523 8.07739 9.85716 8.17959 9.59396C8.31492 9.24551 8.47701 8.99662 8.73835 8.73528C8.99968 8.47395 9.24858 8.31217 9.59702 8.17652C9.86023 8.07386 10.2555 7.95252 10.9835 7.91908C11.6723 7.88796 11.9392 7.87863 13.3309 7.87708V7.87894ZM17.9864 9.11873C17.4917 9.11873 17.0904 9.5196 17.0904 10.0144C17.0904 10.5091 17.4917 10.9104 17.9864 10.9104C18.4811 10.9104 18.8824 10.5091 18.8824 10.0144C18.8824 9.51976 18.4811 9.11842 17.9864 9.11842V9.11873ZM10.1662 14.0001C10.1662 11.8826 11.883 10.1657 14.0005 10.1656C16.1181 10.1656 17.8346 11.8825 17.8346 14.0001C17.8346 16.1177 16.1183 17.8338 14.0007 17.8338C11.8831 17.8338 10.1662 16.1177 10.1662 14.0001Z" fill="white"/>
<path d="M14.0007 11.5111C15.3752 11.5111 16.4896 12.6254 16.4896 14C16.4896 15.3745 15.3752 16.4889 14.0007 16.4889C12.626 16.4889 11.5118 15.3745 11.5118 14C11.5118 12.6254 12.626 11.5111 14.0007 11.5111Z" fill="white"/>
</svg>
