<svg width="33" height="33" viewBox="0 0 33 33" fill="none" xmlns="http://www.w3.org/2000/svg">
<path fill-rule="evenodd" clip-rule="evenodd" d="M16.5 0C7.3873 0 0 7.3873 0 16.5C0 25.6127 7.3873 33 16.5 33C25.6127 33 33 25.6127 33 16.5C33 7.3873 25.6127 0 16.5 0ZM12.8723 7.75317C13.8109 7.71045 14.1109 7.7 16.5008 7.7H16.4981C18.8888 7.7 19.1876 7.71045 20.1263 7.75317C21.0631 7.79607 21.703 7.94439 22.264 8.162C22.8433 8.38659 23.3328 8.68726 23.8223 9.17677C24.3118 9.6659 24.6125 10.1569 24.838 10.7357C25.0543 11.2952 25.2028 11.9347 25.2468 12.8715C25.289 13.8102 25.3 14.1101 25.3 16.5001C25.3 18.8901 25.289 19.1893 25.2468 20.1279C25.2028 21.0644 25.0543 21.7041 24.838 22.2638C24.6125 22.8424 24.3118 23.3334 23.8223 23.8225C23.3334 24.312 22.8431 24.6134 22.2645 24.8382C21.7046 25.0558 21.0644 25.2041 20.1276 25.247C19.1889 25.2897 18.8899 25.3002 16.4997 25.3002C14.11 25.3002 13.8102 25.2897 12.8715 25.247C11.9349 25.2041 11.2952 25.0558 10.7353 24.8382C10.1569 24.6134 9.6659 24.312 9.17695 23.8225C8.68763 23.3334 8.38696 22.8424 8.162 22.2636C7.94457 21.7041 7.79625 21.0646 7.75317 20.1277C7.71063 19.1891 7.7 18.8901 7.7 16.5001C7.7 14.1101 7.711 13.81 7.75298 12.8713C7.79515 11.9349 7.94365 11.2952 8.16182 10.7355C8.38732 10.1569 8.68799 9.6659 9.1775 9.17677C9.66664 8.68744 10.1576 8.38677 10.7364 8.162C11.2959 7.94439 11.9354 7.79607 12.8723 7.75317Z" fill="#5DAE38"/>
<path fill-rule="evenodd" clip-rule="evenodd" d="M15.7114 9.28589C15.8647 9.28565 16.0296 9.28573 16.2075 9.28581L16.5008 9.28589C18.8505 9.28589 19.1289 9.29432 20.0568 9.33649C20.9148 9.37573 21.3805 9.51909 21.6907 9.63955C22.1014 9.79905 22.3941 9.98972 22.702 10.2977C23.01 10.6057 23.2006 10.8991 23.3605 11.3097C23.481 11.6196 23.6245 12.0852 23.6636 12.9432C23.7057 13.8709 23.7149 14.1496 23.7149 16.4981C23.7149 18.8466 23.7057 19.1253 23.6636 20.053C23.6243 20.911 23.481 21.3767 23.3605 21.6865C23.201 22.0972 23.01 22.3896 22.702 22.6974C22.394 23.0054 22.1015 23.1961 21.6907 23.3556C21.3809 23.4766 20.9148 23.6196 20.0568 23.6588C19.1291 23.701 18.8505 23.7102 16.5008 23.7102C14.151 23.7102 13.8725 23.701 12.9449 23.6588C12.0869 23.6192 11.6212 23.4759 11.3108 23.3554C10.9001 23.1959 10.6068 23.0052 10.2988 22.6972C9.99078 22.3892 9.80011 22.0966 9.64024 21.6858C9.51979 21.3759 9.37624 20.9103 9.33719 20.0523C9.29502 19.1246 9.28659 18.8459 9.28659 16.4959C9.28659 14.1459 9.29502 13.8687 9.33719 12.941C9.37642 12.083 9.51979 11.6174 9.64024 11.3072C9.79975 10.8965 9.99078 10.6032 10.2988 10.2952C10.6068 9.98715 10.9001 9.79648 11.3108 9.63661C11.621 9.51561 12.0869 9.37261 12.9449 9.33319C13.7567 9.29652 14.0713 9.28552 15.7114 9.28369V9.28589ZM21.1982 10.7471C20.6152 10.7471 20.1422 11.2195 20.1422 11.8027C20.1422 12.3857 20.6152 12.8587 21.1982 12.8587C21.7813 12.8587 22.2543 12.3857 22.2543 11.8027C22.2543 11.2197 21.7813 10.7467 21.1982 10.7467V10.7471ZM11.9816 16.5001C11.9816 14.0045 14.005 11.981 16.5006 11.9809C18.9964 11.9809 21.0193 14.0044 21.0193 16.5001C21.0193 18.9959 18.9966 21.0184 16.5008 21.0184C14.0051 21.0184 11.9816 18.9959 11.9816 16.5001Z" fill="#5DAE38"/>
<path d="M16.5008 13.5667C18.1208 13.5667 19.4342 14.8799 19.4342 16.5C19.4342 18.12 18.1208 19.4334 16.5008 19.4334C14.8807 19.4334 13.5675 18.12 13.5675 16.5C13.5675 14.8799 14.8807 13.5667 16.5008 13.5667Z" fill="#5DAE38"/>
</svg>
