<svg width="33" height="33" viewBox="0 0 33 33" fill="none" xmlns="http://www.w3.org/2000/svg">
<path fill-rule="evenodd" clip-rule="evenodd" d="M0 16.5C0 7.3873 7.3873 0 16.5 0C25.6127 0 33 7.3873 33 16.5C33 25.6127 25.6127 33 16.5 33C7.3873 33 0 25.6127 0 16.5ZM16.4888 16.7649C18.9219 16.7649 20.8997 14.8555 20.8997 12.5081C20.8997 10.1599 18.9219 8.25 16.4888 8.25C14.0562 8.25 12.0778 10.1599 12.0778 12.5081C12.0778 14.8555 14.0562 16.7649 16.4888 16.7649ZM20.8461 19.2163C20.0485 19.6999 19.1826 20.0428 18.2847 20.2402L20.7506 22.6207C21.2557 23.1073 21.2557 23.8976 20.7506 24.3847C20.2459 24.8718 19.428 24.8718 18.9239 24.3847L16.4995 22.0455L14.0773 24.3847C13.8247 24.628 13.4937 24.7497 13.1628 24.7497C12.8323 24.7497 12.5019 24.628 12.2493 24.3847C11.7447 23.8976 11.7447 23.1078 12.2488 22.6207L14.7149 20.2402C13.817 20.0428 12.9511 19.6994 12.1535 19.2163C11.5499 18.849 11.3686 18.0793 11.7489 17.4962C12.1282 16.9123 12.9258 16.7365 13.5304 17.1038C15.3362 18.2003 17.6624 18.2006 19.4692 17.1038C20.0739 16.7365 20.8712 16.9123 21.2512 17.4962C21.6315 18.0788 21.4497 18.849 20.8461 19.2163Z" fill="#5DAE38"/>
<path d="M16.4888 10.7454C17.4959 10.7454 18.3151 11.5359 18.3151 12.5081C18.3151 13.4795 17.4959 14.2705 16.4888 14.2705C15.4825 14.2705 14.6624 13.4795 14.6624 12.5081C14.6624 11.5359 15.4825 10.7454 16.4888 10.7454Z" fill="#5DAE38"/>
</svg>
