<?xml version="1.0" encoding="UTF-8"?><!DOCTYPE svg PUBLIC "-//W3C//DTD SVG 1.1//EN" "http://www.w3.org/Graphics/SVG/1.1/DTD/svg11.dtd"><svg xmlns="http://www.w3.org/2000/svg" xmlns:xlink="http://www.w3.org/1999/xlink"><symbol id="alert-circle" viewBox="0 0 24 24">
<path d="M12 2C6.47715 2 2 6.47715 2 12C2 17.5228 6.47715 22 12 22C17.5228 22 22 17.5228 22 12C22 6.47715 17.5228 2 12 2Z" stroke="#818995" stroke-width="2" stroke-linecap="round" stroke-linejoin="round"/>
<path d="M12 16L12 12" stroke="#818995" stroke-width="2" stroke-linecap="round" stroke-linejoin="round"/>
<path d="M12 8L11.99 8" stroke="#818995" stroke-width="2" stroke-linecap="round" stroke-linejoin="round"/>
</symbol><symbol id="arrow" viewBox="0 0 8 14">
<path d="M1 0.999999L7 7L1 13" stroke-width="2" stroke-linecap="round" stroke-linejoin="round"/>
</symbol><symbol id="catalog" viewBox="0 0 24 24">
<path d="M3 12H21" stroke="white" stroke-width="2" stroke-linecap="round" stroke-linejoin="round"/>
<path d="M3 6H21" stroke="white" stroke-width="2" stroke-linecap="round" stroke-linejoin="round"/>
<path d="M3 18H21" stroke="white" stroke-width="2" stroke-linecap="round" stroke-linejoin="round"/>
</symbol><symbol id="check-circle-green" viewBox="0 0 24 24">
<path d="M22 11.08V12C21.9988 14.1564 21.3005 16.2547 20.0093 17.9818C18.7182 19.709 16.9033 20.9725 14.8354 21.5839C12.7674 22.1953 10.5573 22.1219 8.53447 21.3746C6.51168 20.6273 4.78465 19.2461 3.61096 17.4371C2.43727 15.628 1.87979 13.4881 2.02168 11.3363C2.16356 9.18455 2.99721 7.13631 4.39828 5.49706C5.79935 3.85781 7.69279 2.71537 9.79619 2.24013C11.8996 1.7649 14.1003 1.98232 16.07 2.85999" stroke="#5DAE38" stroke-width="2" stroke-linecap="round" stroke-linejoin="round"/>
<path d="M22 4L12 14.01L9 11.01" stroke="#5DAE38" stroke-width="2" stroke-linecap="round" stroke-linejoin="round"/>
</symbol><symbol id="check-circle-white" viewBox="0 0 24 24">
<path d="M22 11.08V12C21.9988 14.1564 21.3005 16.2547 20.0093 17.9818C18.7182 19.709 16.9033 20.9725 14.8354 21.5839C12.7674 22.1953 10.5573 22.1219 8.53447 21.3746C6.51168 20.6273 4.78465 19.2461 3.61096 17.4371C2.43727 15.628 1.87979 13.4881 2.02168 11.3363C2.16356 9.18457 2.99721 7.13633 4.39828 5.49707C5.79935 3.85782 7.69279 2.71538 9.79619 2.24015C11.8996 1.76491 14.1003 1.98234 16.07 2.86" stroke="white" stroke-width="2" stroke-linecap="round" stroke-linejoin="round"/>
<path d="M22 4L12 14.01L9 11.01" stroke="white" stroke-width="2" stroke-linecap="round" stroke-linejoin="round"/>
</symbol><symbol id="close-grey" viewBox="0 0 24 24">
<path d="M18 6L6 18" stroke="#818995" stroke-width="2" stroke-linecap="round" stroke-linejoin="round"/>
<path d="M6 6L18 18" stroke="#818995" stroke-width="2" stroke-linecap="round" stroke-linejoin="round"/>
</symbol><symbol id="close-white" viewBox="0 0 24 24">
<path d="M18 6L6 18" stroke="#F3F3F3" stroke-width="2" stroke-linecap="round" stroke-linejoin="round"/>
<path d="M6 6L18 18" stroke="#F3F3F3" stroke-width="2" stroke-linecap="round" stroke-linejoin="round"/>
</symbol><symbol id="contract" viewBox="0 0 64 64">
<path d="M9.06176 23.1052C9.06176 22.6275 9.44888 22.2404 9.92663 22.2404H35.8345C36.312 22.2404 36.6994 22.6275 36.6994 23.1052C36.6994 23.583 36.312 23.9701 35.8345 23.9701H9.92663C9.44888 23.97 9.06176 23.583 9.06176 23.1052ZM23.2091 29.5339H9.92663C9.44888 29.5339 9.06176 29.921 9.06176 30.3988C9.06176 30.8765 9.44888 31.2636 9.92663 31.2636H23.2093C23.687 31.2636 24.0741 30.8765 24.0741 30.3988C24.0741 29.921 23.6869 29.5339 23.2091 29.5339ZM23.2091 36.8273H9.92663C9.44888 36.8273 9.06176 37.2146 9.06176 37.6921C9.06176 38.1696 9.44888 38.557 9.92663 38.557H23.2093C23.687 38.557 24.0741 38.1696 24.0741 37.6921C24.0741 37.2146 23.6869 36.8273 23.2091 36.8273ZM23.2091 44.1206H9.92663C9.44888 44.1206 9.06176 44.508 9.06176 44.9855C9.06176 45.463 9.44888 45.8504 9.92663 45.8504H23.2093C23.687 45.8504 24.0741 45.463 24.0741 44.9855C24.074 44.508 23.6869 44.1206 23.2091 44.1206ZM63.6101 43.508C63.3776 44.0154 62.9626 44.401 62.4418 44.5947L59.7459 45.5964C59.5105 45.6836 59.2656 45.727 59.0213 45.727C58.7251 45.727 58.4295 45.6634 58.1514 45.5355C57.9551 45.4455 57.784 45.3211 57.6283 45.1811C57.5619 45.7915 57.3318 46.3764 56.9301 46.8165C56.3789 47.4206 55.6356 47.6566 54.8423 47.5023C54.8225 47.9009 54.7173 48.3018 54.5163 48.6768C53.925 49.7815 52.6936 50.3271 51.5214 50.099C51.4994 50.4949 51.3908 50.8839 51.1988 51.2431C51.0878 51.4508 50.9454 51.633 50.79 51.8024V54.2713C50.79 57.3153 48.3638 59.7973 45.3441 59.8995C44.6728 62.2625 42.5004 64 39.925 64H5.83563C2.72726 64 0.198257 61.4712 0.198257 58.3626V9.728C0.198257 6.68362 2.62576 4.2015 5.64588 4.10025C6.32663 1.71887 8.53351 0 11.0629 0H45.1525C48.2611 0 50.7899 2.529 50.7899 5.63737V32.5516C50.9054 32.5991 51.0184 32.6465 51.1289 32.6927C51.988 33.052 52.5304 33.2485 52.9596 33.2309C52.8655 32.794 52.9066 32.3407 53.0968 31.9261C53.3293 31.4191 53.7443 31.0331 54.2651 30.8398L56.9616 29.8384C57.483 29.6455 58.0495 29.6664 58.5563 29.8991C59.063 30.1316 59.4488 30.5466 59.6424 31.0675L63.6711 41.9135C63.8641 42.4348 63.8428 43.0013 63.6101 43.508ZM50.461 34.2884C48.8323 33.607 47.1484 32.902 44.8059 34.5187C44.3093 34.8621 43.7989 35.2959 43.2881 35.8115C42.9808 36.1217 42.6654 36.432 42.3574 36.7344C41.7308 37.3498 40.9886 38.079 40.5888 38.5761C41.7706 39.8081 43.0026 39.4331 44.9435 38.7028C46.5246 38.1076 48.3129 37.433 49.8973 38.6398C50.3325 38.888 50.9739 39.2045 51.6518 39.5395C53.5815 40.4925 55.2064 41.3329 56.2531 42.183L53.5444 34.8903C53.3389 34.9361 53.1334 34.9646 52.9288 34.9646C52.0765 34.9646 51.2369 34.6133 50.461 34.2884ZM7.47776 4.09062H39.925C43.0336 4.09062 45.5624 6.61962 45.5624 9.728V32.1751C46.8735 31.6906 48.037 31.7344 49.0601 31.9727V5.63737C49.0601 3.48287 47.3074 1.72975 45.1525 1.72975H11.0629C9.48488 1.72975 8.08601 2.69425 7.47776 4.09062ZM27.5538 14.0396L32.2188 10.8946C32.5113 10.6975 32.893 10.6975 33.1858 10.8946L37.3569 13.7063V5.82037H27.5538V14.0396ZM43.8326 58.3626V56.2469C43.6515 56.2913 43.4688 56.3164 43.287 56.3164C42.8641 56.3164 42.448 56.2026 42.0781 56.0045C41.4711 55.6801 40.965 55.1165 40.6941 54.4595C40.6766 54.4651 40.6593 54.4708 40.6413 54.4759C39.9486 54.6854 39.2173 54.6144 38.5816 54.2743C38.1093 54.0384 37.7213 53.6499 37.4696 53.1616C37.3486 53.2185 37.223 53.2669 37.0929 53.3064C36.4004 53.5159 35.6684 53.4449 35.0333 53.1048C34.4274 52.8024 33.9611 52.2489 33.741 51.5569C33.6234 51.1864 33.5856 50.7979 33.6256 50.4206C33.2315 50.4042 32.8351 50.3013 32.4646 50.103C31.8594 49.8013 31.3931 49.2478 31.173 48.5558C30.948 47.8491 31.0145 47.0789 31.3551 46.442L31.6661 45.8606C31.4864 45.9103 31.3035 45.942 31.1184 45.942C30.9036 45.942 30.6876 45.9083 30.4776 45.8401L27.7409 44.9577C26.6469 44.6047 26.0438 43.4268 26.3966 42.3327L29.9493 31.3213C30.1199 30.7923 30.4875 30.361 30.9841 30.1065C31.4808 29.8525 32.0458 29.8066 32.5745 29.9767L35.3121 30.8599C36.0143 31.0866 36.5099 31.6541 36.6845 32.32C37.3194 32.3423 37.9529 32.217 38.6579 32.0769C40.1345 31.7835 41.7828 31.4584 43.833 32.4709V9.728C43.833 7.5735 42.0803 5.82037 39.9254 5.82037H39.087V15.3325C39.087 15.6524 38.9108 15.946 38.6281 16.096C38.3455 16.2464 38.0043 16.228 37.7385 16.0495L32.7025 12.6547L27.5488 16.1291C27.406 16.2254 27.2376 16.2769 27.0654 16.2769H26.6893C26.2115 16.2769 25.8244 15.8897 25.8244 15.412V5.82037H5.83563C3.68113 5.82037 1.92801 7.5735 1.92801 9.728V58.3626C1.92801 60.5175 3.68113 62.2702 5.83563 62.2702H39.925C42.0799 62.2702 43.8326 60.5175 43.8326 58.3626ZM46.3916 51.8278C46.5235 52.3774 46.4138 52.9235 46.2481 53.3763L46.336 53.4219C46.8738 53.6989 47.1496 53.2811 47.22 53.1465C47.299 52.9958 47.4811 52.5026 46.889 52.0949L46.3916 51.8278ZM45.5358 54.9555L45.4685 54.9204C45.4615 54.9324 45.4541 54.9436 45.4471 54.9555H45.5358ZM42.7471 52.2225L42.746 52.2243L42.3 53.0581C42.0156 53.5902 42.4543 54.2445 42.894 54.4793C43.0584 54.5683 43.5618 54.8362 44.0206 53.9787L44.3449 53.3724C44.3451 53.3719 44.3453 53.3713 44.3455 53.3706C44.9586 52.2231 44.7813 52.0581 44.1281 51.7085C43.8478 51.5581 43.547 51.6285 43.3934 51.6826C43.1136 51.7816 42.8783 51.9786 42.7471 52.2225ZM41.3231 49.1476C40.8508 48.8954 40.2573 49.0739 40.0033 49.5485C40.0029 49.5493 40.0023 49.5499 40.0018 49.5508L38.997 51.4291V51.4297C38.8754 51.6572 38.854 51.9394 38.9379 52.2029C38.9829 52.3436 39.0989 52.5999 39.3759 52.7384C39.6248 52.8713 39.8889 52.8966 40.1394 52.8206C40.3899 52.7446 40.5955 52.5774 40.7176 52.3494L40.7761 52.2401C40.7766 52.2391 40.7774 52.2384 40.7779 52.2375L41.2185 51.4136C41.2193 51.4121 41.2196 51.4105 41.2204 51.4091H41.221L41.7238 50.4689C41.9774 49.9939 41.7978 49.4015 41.3231 49.1476ZM38.7978 47.5254C38.7218 47.2743 38.5545 47.0692 38.3265 46.9471C37.853 46.6931 37.2601 46.8734 37.0061 47.3475C37.0058 47.3483 37.0051 47.3489 37.0046 47.3496L36.1244 48.9955L35.4488 50.259C35.3271 50.487 35.3058 50.7686 35.3896 51.0326C35.4341 51.1734 35.5506 51.4301 35.8276 51.5686C36.3243 51.8339 36.9155 51.6525 37.1694 51.1795L37.4723 50.6131C37.4726 50.6124 37.4733 50.6118 37.4738 50.611L38.477 48.7352C38.4774 48.7346 38.4775 48.7337 38.4779 48.7331L38.7261 48.268C38.8485 48.0395 38.8738 47.776 38.7978 47.5254ZM35.3023 44.6971C35.0849 44.5946 34.8378 44.5761 34.6024 44.6476C34.3513 44.7236 34.1463 44.8909 34.0241 45.1189L33.6543 45.8104C33.6541 45.8105 33.654 45.8107 33.6539 45.8109L32.88 47.258C32.7584 47.4855 32.737 47.7676 32.8209 48.0316C32.8659 48.1719 32.9819 48.4286 33.2595 48.5671C33.7533 48.8324 34.3456 48.6528 34.5996 48.1791C34.6005 48.1776 34.6018 48.1764 34.6025 48.1748L35.4814 46.5316V46.531C35.4814 46.531 35.4814 46.531 35.4814 46.5305L35.7449 46.039C35.8434 45.8543 36.1419 45.2962 35.3023 44.6971ZM35.0095 32.9534C35.0686 32.7704 34.9639 32.5654 34.7804 32.5062L32.043 31.6231C32.0053 31.6108 31.9695 31.606 31.9366 31.606C31.8645 31.606 31.8063 31.6287 31.7723 31.6462C31.723 31.6716 31.634 31.7321 31.5955 31.8524L28.0426 42.8639C27.9835 43.0474 28.0885 43.2524 28.2718 43.3115L31.0091 44.1944C31.1299 44.2337 31.2308 44.1966 31.28 44.1719C31.3293 44.1465 31.4183 44.0858 31.4568 43.9658L32.0745 42.0509C32.0965 41.9739 32.1155 41.8964 32.1403 41.8199C32.1489 41.7934 32.1623 41.7703 32.1731 41.7453L35.0095 32.9534ZM49.0601 54.2715V52.686C49.0538 52.6868 49.0474 52.6893 49.041 52.6899C49.0563 53.1314 48.9526 53.5683 48.7516 53.9506C48.3175 54.7784 47.5219 55.2406 46.6739 55.2406C46.3049 55.2406 45.9259 55.1517 45.5624 54.9683V58.158C47.5253 57.9521 49.0601 56.2878 49.0601 54.2715ZM55.7218 44.0868C55.1294 43.1864 52.5759 41.9246 50.8856 41.0901C50.1238 40.714 49.4661 40.3891 48.9814 40.1081C48.9454 40.0872 48.911 40.0636 48.8784 40.0382C48.0879 39.4132 47.0996 39.7381 45.5535 40.3215C43.62 41.0495 40.9713 42.0445 38.8289 39.1644C38.6481 38.9206 38.6081 38.6003 38.723 38.3198C39.0108 37.6181 39.8311 36.791 41.1459 35.5C41.4476 35.2033 41.7574 34.8993 42.0586 34.5951C42.3046 34.3462 42.5524 34.1131 42.7996 33.8957C41.3999 33.2955 40.2681 33.5207 38.995 33.7736C38.1939 33.9328 37.3718 34.093 36.4773 34.0389L33.7318 42.548C33.6709 42.7651 33.6205 42.9841 33.5901 43.2044C33.7506 43.1176 33.9218 43.0461 34.1009 42.9921C34.794 42.7804 35.5254 42.8536 36.1611 43.1937C36.2005 43.2146 36.2378 43.2388 36.2731 43.2653C36.9871 43.7664 37.4251 44.4206 37.5586 45.1205C38.0868 45.0597 38.6386 45.1526 39.1431 45.4222C39.7783 45.7617 40.2439 46.331 40.4534 47.0236C40.4838 47.1232 40.508 47.2241 40.5266 47.3254C41.0633 47.2561 41.6263 47.3485 42.1393 47.6221C42.7683 47.9589 43.2064 48.5111 43.4196 49.1384C43.6671 48.7825 44.1441 48.6593 44.5356 48.8676L47.4046 50.4081C47.4539 50.424 47.5026 50.443 47.5496 50.4684C47.5508 50.4684 47.5513 50.4689 47.5525 50.4695L48.2688 50.853C48.512 50.9825 48.7919 51.009 49.0593 50.929C49.3256 50.8479 49.544 50.67 49.6735 50.4274C49.8036 50.1841 49.8306 49.9038 49.7501 49.6369C49.669 49.3711 49.4916 49.1532 49.2508 49.0231L49.2485 49.022C49.219 49.0062 49.1939 48.9859 49.167 48.9673L45.8533 47.1954C45.4321 46.9707 45.2733 46.4465 45.4985 46.0254C45.7231 45.6036 46.2496 45.4442 46.6685 45.6706L50.0689 47.4888C50.098 47.5044 50.1228 47.5245 50.1494 47.5429L51.5576 48.2962C52.0734 48.5705 52.7164 48.3763 52.9918 47.861C53.2575 47.3639 53.0816 46.7492 52.6045 46.4596L47.9349 43.9253C47.5154 43.6973 47.3594 43.1725 47.5875 42.7524C47.8155 42.3329 48.3403 42.1786 48.7604 42.405L53.3299 44.8851C53.3439 44.8918 53.3585 44.8954 53.3724 44.9027L54.7924 45.6624C55.3623 45.9659 55.5734 45.7379 55.6528 45.6505C55.9536 45.3205 56.0478 44.5811 55.7218 44.0868ZM62.0494 42.5159L58.0206 31.6696C57.9768 31.5509 57.8855 31.4942 57.8349 31.4711C57.8028 31.4565 57.7493 31.4379 57.6845 31.4379C57.6474 31.4379 57.6068 31.4437 57.564 31.4595L54.8675 32.4611C54.7488 32.505 54.6919 32.5962 54.6688 32.6469C54.6456 32.6975 54.6136 32.8 54.6575 32.9183L58.6863 43.7645C58.7301 43.8833 58.8214 43.9401 58.872 43.9632C58.9221 43.9857 59.0251 44.0179 59.1434 43.9745L61.8393 42.9729C61.958 42.929 62.0149 42.8377 62.038 42.7871C62.0613 42.7366 62.0933 42.6341 62.0494 42.5159Z" fill="#5DAE38"/>
</symbol><symbol id="delivery" viewBox="0 0 57 69">
<path d="M35.8446 60.6446C35.2864 60.6446 34.8338 61.0971 34.8338 61.6553C34.8338 62.2135 35.2864 62.6661 35.8446 62.6661C36.4027 62.6661 36.8553 62.2135 36.8553 61.6553C36.8553 61.0971 36.4027 60.6446 35.8446 60.6446ZM53.1703 39.4703C51.0191 37.3178 48.0816 36.2282 45.1201 36.4355C45.1088 36.1671 44.6053 30.5196 44.576 30.229C45.5779 28.4971 45.1381 26.2285 43.5968 24.9585C42.6031 24.1397 41.3342 23.8449 40.1427 24.0426C40.1342 22.8085 39.5799 21.6481 38.6177 20.8557C37.6237 20.037 36.3548 19.7423 35.1632 19.9402C35.1547 18.7069 34.5999 17.5467 33.6373 16.7538C32.6438 15.9346 31.3751 15.6394 30.1837 15.837C30.1749 14.6031 29.6202 13.4429 28.6573 12.6498C26.8638 11.173 24.1741 11.399 22.6618 13.1544L21.6659 14.3103L19.6438 12.2881C20.0628 10.0595 19.7203 7.71681 18.6774 5.68443C18.4224 5.18769 17.8137 4.99175 17.3166 5.24672C16.82 5.50156 16.624 6.11083 16.8788 6.60743C17.7249 8.256 17.9983 10.157 17.6483 11.9605C17.5275 12.5853 17.7239 13.227 18.1738 13.6771L20.3427 15.8459C20.3427 15.8459 19.0848 17.3784 18.9285 17.6966C17.6388 17.3337 16.2868 17.497 15.1525 18.1091L14.4473 17.4038C13.9979 16.9543 13.3553 16.7585 12.7293 16.8795C10.0258 17.4024 7.23353 16.5362 5.25911 14.5616C3.64356 12.9459 2.77339 10.8219 2.7905 8.60706L7.72245 13.539C8.73925 14.5535 10.3817 14.5635 11.3843 13.5611L14.3305 10.6146C15.3335 9.62223 15.3008 7.93472 14.3071 6.95135L9.37708 2.02128C9.39272 2.02128 9.40862 2.02115 9.42439 2.02115C11.0862 2.02115 12.7187 2.52328 14.1159 3.47875C14.5767 3.7937 15.2058 3.67591 15.5207 3.21489C15.8359 2.75413 15.7177 2.12519 15.257 1.81011C13.1253 0.352639 10.5514 -0.255145 8.00721 0.0980706C7.43972 0.177042 6.97425 0.563814 6.79245 1.10759C6.60836 1.65823 6.75054 2.25591 7.16211 2.66559L12.8774 8.38092C13.09 8.6018 13.1565 8.92227 12.9017 9.18465L9.95455 12.1319C9.73946 12.347 9.3787 12.3362 9.15095 12.109L3.43562 6.3937C3.02297 5.98118 2.42502 5.84009 1.87573 6.02431C1.33303 6.20637 0.9468 6.67171 0.867963 7.23866C0.425399 10.4221 1.53248 13.6938 3.82953 15.991C6.26647 18.4278 9.71345 19.5034 13.059 18.8744L13.6006 19.4159C13.3889 19.6797 9.08478 26.092 8.88102 26.3941C7.29876 28.7414 7.37773 31.8419 9.07737 34.1093L12.6018 38.8122C12.9389 39.2618 13.5738 39.3469 14.0169 39.0148C14.4635 38.68 14.5542 38.0465 14.2196 37.5997L10.6949 32.8967C9.5109 31.3173 9.45565 29.1581 10.5573 27.5236L15.0545 20.8485C15.8623 19.6491 17.4814 19.1987 18.8181 19.7999L27.893 23.9236C28.9748 24.4154 29.4679 25.6606 29.0155 26.7581C28.5572 27.8703 27.2437 28.4144 26.1347 27.9462C26.0689 27.9184 22.9138 26.5887 22.8523 26.5678C21.2979 26.04 19.5722 26.5395 18.5584 27.8105L17.425 29.2296C17.0767 29.6658 17.1478 30.3017 17.5841 30.6501C18.02 30.9985 18.6561 30.927 19.0046 30.4911L20.1384 29.0716C20.8817 28.1369 22.0414 28.2897 23.0066 28.8231L37.3562 43.1729C36.8835 45.6856 37.3728 48.2552 38.6786 50.4121V55.5737C38.4044 55.5275 38.1231 55.5022 37.836 55.5022H22.3101C22.0732 55.5022 21.8404 55.5198 21.612 55.5515V49.699C21.612 48.237 21.1456 46.842 20.2633 45.6644L17.0203 41.3371C16.6856 40.8905 16.0519 40.7996 15.6053 41.1346C15.1587 41.4693 15.068 42.1029 15.4026 42.5495L18.6456 46.8767C19.2638 47.7018 19.5906 48.6776 19.5906 49.699V56.2996C18.1883 57.1987 17.2565 58.7699 17.2565 60.5558V67.9892C17.2565 68.5474 17.7089 69 18.2672 69C18.8255 69 19.2779 68.5474 19.2779 67.9892V60.5558C19.2779 58.8838 20.6382 57.5236 22.3101 57.5236H37.836C39.5078 57.5236 40.8681 58.8838 40.8681 60.5558V67.9892C40.8681 68.5474 41.3205 69 41.8789 69C42.4372 69 42.8896 68.5474 42.8896 67.9892V60.5558C42.8896 58.8319 42.0215 57.3077 40.7001 56.3952V52.8323C42.6115 54.523 45.0857 55.4586 47.6039 55.4586C48.0672 55.4586 48.5327 55.427 48.9956 55.3625C49.5619 55.282 50.0263 54.8948 50.2074 54.3522C50.3907 53.8029 50.2491 53.2059 49.8375 52.7941L44.1213 47.0779C43.9138 46.8627 43.8455 46.5393 44.098 46.2762L47.0441 43.3285C47.2595 43.1139 47.6206 43.1242 47.8486 43.352L53.5642 49.0675C53.9766 49.4797 54.5742 49.6211 55.1241 49.4367C55.6667 49.2546 56.0529 48.7893 56.1318 48.2224C56.5746 45.0378 55.4674 41.7658 53.1703 39.4703ZM39.1321 26.7817C39.938 25.8462 41.366 25.7397 42.3116 26.5186C43.2289 27.2743 43.3652 28.6639 42.5806 29.5647L39.4337 33.2167C38.633 34.1463 37.2066 34.2641 36.2542 33.4797C35.3326 32.7206 35.2016 31.3347 35.9853 30.4337L39.1321 26.7817ZM43.0314 35.6772L41.3935 34.0393L42.7461 32.4695L43.0314 35.6772ZM34.1521 22.6798C34.9534 21.7499 36.38 21.6316 37.3326 22.416C38.251 23.1725 38.3832 24.5628 37.6003 25.4624L34.4535 29.1145C33.6525 30.0441 32.2267 30.1618 31.2753 29.3775C30.8959 29.0643 30.6433 28.6493 30.54 28.1876C30.9346 27.5686 31.1705 26.8159 31.2018 26.1024L34.1521 22.6798ZM20.7982 18.4796C20.8684 18.3549 24.1931 14.474 24.1931 14.474C24.9939 13.5445 26.4201 13.4261 27.3722 14.2103C28.2904 14.9666 28.425 16.3561 27.6412 17.2566L24.9586 20.37L20.7982 18.4796ZM28.7293 22.0834L26.8762 21.2413L29.1725 18.5761C29.9736 17.6466 31.3995 17.5287 32.3516 18.3137C33.2708 19.0717 33.4043 20.4599 32.6209 21.3599L30.5865 23.7201C30.161 23.0261 29.5295 22.4472 28.7293 22.0834ZM49.2775 41.9219C48.2616 40.9082 46.6193 40.897 45.6156 41.8987L42.6695 44.8464C41.6642 45.8376 41.6889 47.5162 42.6929 48.5082L47.6224 53.4377H47.5995C45.4079 53.4377 43.2523 52.5553 41.6684 50.9723C39.6934 48.9962 38.8273 46.2032 39.3517 43.5006C39.4729 42.8734 39.2758 42.2309 38.8262 41.784L27.1759 30.1337C27.8058 30.1054 28.406 29.9392 28.943 29.6578C29.1983 30.1406 29.5503 30.5745 29.9891 30.9367C30.9805 31.7553 32.2315 32.0547 33.4443 31.8534C33.4529 33.0885 34.0054 34.2456 34.9693 35.0398C36.3813 36.2032 38.3679 36.3257 39.9117 35.4162L42.555 38.0593C43.0012 38.5036 43.651 38.6997 44.2665 38.5818C46.9719 38.0637 49.7628 38.9226 51.7412 40.8994C53.3299 42.4871 54.2127 44.651 54.2067 46.8507L49.2775 41.9219Z" fill="#5DAE38"/>
</symbol><symbol id="ecology" viewBox="0 0 50 53">
<path d="M49.1958 9.15519C48.9622 7.68789 47.6774 6.59289 46.1955 6.59289C46.1882 6.59289 46.1736 6.59289 46.1663 6.59289C36.9537 6.68779 28.0696 9.97279 21.0105 15.8566C20.7915 13.2724 20.0542 10.7539 18.8351 8.44709C17.1707 5.30079 14.6668 2.67279 11.6081 0.847788C10.3744 0.110488 8.83411 0.314887 7.87051 1.34419C3.28611 6.22789 0.818707 12.6081 0.928207 19.3095C1.03041 25.7627 3.51241 31.8363 7.93621 36.501C7.52011 38.0924 7.20621 39.713 6.99451 41.3628C6.90691 42.0417 7.38141 42.6622 8.06761 42.7571C8.11871 42.7644 8.17711 42.7644 8.22821 42.7644C8.84141 42.7644 9.37431 42.3118 9.45461 41.684C9.68091 39.9685 10.0167 38.2895 10.4693 36.6616C10.5204 36.5521 10.5496 36.4426 10.5642 36.3258C15.0391 20.6381 29.5077 9.25009 46.2101 9.07489C46.2101 9.07489 46.2101 9.07489 46.2174 9.07489C46.4802 9.07489 46.7284 9.28659 46.7722 9.54209C47.692 15.3456 47.7212 21.2294 46.8598 27.0402C46.8452 27.084 46.8306 27.1278 46.8233 27.1716C45.1078 34.5373 40.319 40.8299 33.6687 44.4288C27.8068 47.6116 20.9813 48.4438 14.5792 46.8305C16.74 45.407 18.8132 43.8448 20.7915 42.1439C26.011 37.6544 30.3983 32.3473 33.8293 26.3832C34.1724 25.7919 33.968 25.0327 33.3694 24.6896C32.7781 24.3465 32.0189 24.5509 31.6758 25.1495C26.668 33.8 19.5067 41.027 10.9949 46.1224C10.9584 46.137 10.9292 46.1589 10.8927 46.1808C8.16251 47.8087 5.30091 49.2103 2.32251 50.3783C1.68741 50.6265 1.36621 51.3492 1.62171 51.9843C1.81151 52.4734 2.27871 52.7727 2.77511 52.7727C2.92841 52.7727 3.08171 52.7435 3.22771 52.6851C6.17691 51.5317 9.00931 50.1593 11.7249 48.5752C14.7471 49.5972 17.8861 50.1082 21.0178 50.1082C25.792 50.1082 30.5443 48.9329 34.8221 46.6042C42.0199 42.706 47.2321 35.917 49.152 27.9673C49.1958 27.8651 49.2323 27.7556 49.2469 27.6388C50.1886 21.5068 50.1667 15.2872 49.1958 9.15519ZM13.3893 24.31C13.3747 22.9814 13.3163 21.7477 13.2141 20.5651C12.9878 18.0393 12.5571 15.3821 11.9001 12.4256C11.7541 11.754 11.0898 11.3379 10.4182 11.4839C9.74661 11.6299 9.33051 12.2942 9.47651 12.9658C10.1116 15.8128 10.5277 18.3678 10.7394 20.7841C10.9438 23.0982 10.9657 25.6459 10.7978 28.7776C10.0094 30.369 9.32321 32.0115 8.75381 33.7051C1.27861 24.7845 1.53411 11.6956 9.66631 3.03779C9.82691 2.86259 10.1043 2.84069 10.3306 2.97209C15.6523 6.14029 18.784 11.8781 18.5869 18.0393C16.6305 19.9592 14.8931 22.0616 13.3893 24.31Z" fill="#5DAE38"/>
</symbol><symbol id="garantey" viewBox="0 0 59 58">
<path d="M54.0833 0H12.7833C10.0691 0.00336101 7.87003 2.20242 7.86667 4.91667V43.2667H0.983333C0.440291 43.2667 0 43.707 0 44.25V46.2167C0.00336101 48.9309 2.20242 51.13 4.91667 51.1333H35.4235V56.05C35.4235 56.4226 35.6338 56.763 35.967 56.9296C36.3003 57.0962 36.6988 57.0602 36.997 56.8365L40.3402 54.3292L43.6834 56.8365C43.8534 56.9647 44.0608 57.0338 44.2735 57.0333C44.4262 57.0348 44.577 57.0012 44.7143 56.9349C45.049 56.7673 45.2593 56.424 45.2569 56.05V51.1333H46.2167C48.9309 51.13 51.13 48.9309 51.1333 46.2167V7.86667H58.0167C58.5597 7.86667 59 7.42638 59 6.88333V4.91667C58.9966 2.20242 56.7976 0.00336101 54.0833 0ZM35.4235 49.1667H4.91667C3.28754 49.1667 1.96667 47.8458 1.96667 46.2167V45.2333H35.4235V49.1667ZM43.2902 54.0833L40.9303 52.3135C40.5807 52.0509 40.1001 52.0509 39.7501 52.3135L37.3902 54.0833V43.1005C37.5803 43.1154 37.7714 43.1121 37.9606 43.0895C38.5281 43.8217 39.4025 44.25 40.3287 44.25C41.2549 44.25 42.1287 43.8217 42.6963 43.0895C42.8922 43.113 43.09 43.1169 43.2864 43.1005L43.2902 54.0833ZM44.5549 38.3303C44.2927 38.4235 44.082 38.6237 43.9758 38.8806C43.8692 39.1379 43.8764 39.4279 43.9965 39.6795C44.1823 40.0694 44.1036 40.5342 43.7991 40.8405C43.4943 41.1468 43.03 41.2285 42.6391 41.0446C42.388 40.9245 42.0975 40.9168 41.8402 41.023C41.5823 41.1296 41.3826 41.3403 41.289 41.603C41.1454 42.0101 40.7603 42.2829 40.3287 42.2829C39.8965 42.2829 39.5115 42.0101 39.3679 41.603C39.2748 41.3403 39.0745 41.1296 38.8172 41.023C38.5593 40.9168 38.2689 40.9245 38.0177 41.0446C37.6269 41.2285 37.1626 41.1468 36.8582 40.8405C36.5533 40.5342 36.4746 40.0694 36.6609 39.6795C36.7804 39.4284 36.7881 39.1379 36.6815 38.881C36.5754 38.6237 36.3651 38.4239 36.1029 38.3303C35.6953 38.1853 35.4226 37.7993 35.4226 37.3667C35.4226 36.9341 35.6953 36.548 36.1029 36.403C36.3651 36.3094 36.5749 36.1097 36.681 35.8528C36.7876 35.5959 36.7799 35.3059 36.6609 35.0548C36.4736 34.6649 36.5523 34.1996 36.8572 33.8928C37.1616 33.5865 37.6264 33.5044 38.0177 33.6888C38.2689 33.8088 38.5593 33.8165 38.8172 33.7104C39.0745 33.6038 39.2748 33.393 39.3679 33.1304C39.5115 32.7232 39.8965 32.4505 40.3287 32.4505C40.7603 32.4505 41.1454 32.7232 41.289 33.1304C41.3826 33.393 41.5823 33.6038 41.8402 33.7104C42.0975 33.8165 42.388 33.8088 42.6391 33.6888C43.03 33.5049 43.4943 33.5865 43.7991 33.8928C44.1036 34.1992 44.1823 34.6639 43.9965 35.0538C43.8764 35.3054 43.8692 35.5954 43.9758 35.8528C44.082 36.1097 44.2927 36.3099 44.5549 36.403C44.9616 36.549 45.2333 36.9345 45.2333 37.3667C45.2333 37.7988 44.9616 38.1844 44.5549 38.3303ZM50.0741 2.08958C50.0184 2.16833 49.969 2.25187 49.9181 2.33446C49.8129 2.50251 49.7188 2.67632 49.6348 2.85541C49.5906 2.95384 49.5493 3.04459 49.5109 3.14062C49.438 3.33363 49.3765 3.53049 49.328 3.73071C49.3054 3.82242 49.2766 3.91077 49.2593 4.00391C49.1998 4.30496 49.1691 4.61034 49.1667 4.91667V46.2167C49.1667 47.8458 47.8458 49.1667 46.2167 49.1667C45.8887 49.1604 45.5646 49.0994 45.2569 48.9857V42.1455C45.8686 41.5021 46.1571 40.6172 46.0438 39.7367C46.7746 39.1677 47.2019 38.2929 47.2019 37.3667C47.2019 36.4405 46.7746 35.5657 46.0438 34.9967C46.16 34.0786 45.8455 33.1582 45.192 32.5023C44.5386 31.8469 43.6191 31.53 42.7001 31.6438C42.1326 30.9116 41.2587 30.4833 40.3325 30.4833C39.4063 30.4833 38.532 30.9116 37.9644 31.6438C37.0459 31.5305 36.1265 31.8474 35.473 32.5028C34.82 33.1582 34.5055 34.0786 34.6212 34.9967C33.8904 35.5657 33.4626 36.4405 33.4626 37.3667C33.4626 38.2929 33.8904 39.1677 34.6212 39.7367C34.505 40.6297 34.8027 41.5271 35.4293 42.1743V43.2667H9.83333V4.91667C9.83333 3.28754 11.1542 1.96667 12.7833 1.96667H50.15C50.1226 2.00508 50.102 2.04925 50.0741 2.08958ZM57.0333 5.9H51.1333V4.91667C51.1333 3.28754 52.4542 1.96667 54.0833 1.96667C55.7125 1.96667 57.0333 3.28754 57.0333 4.91667V5.9Z" fill="#5DAE38"/>
<path d="M32.45 7.86667H36.3833V9.83334H32.45V7.86667Z" fill="#5DAE38"/>
<path d="M22.6167 7.86667H30.4833V9.83334H22.6167V7.86667Z" fill="#5DAE38"/>
<path d="M19.6667 12.7833H39.3333V14.75H19.6667V12.7833Z" fill="#5DAE38"/>
<path d="M14.75 18.6833H19.6667V20.65H14.75V18.6833Z" fill="#5DAE38"/>
<path d="M14.75 23.6H25.5667V25.5666H14.75V23.6Z" fill="#5DAE38"/>
<path d="M21.6333 18.6833H44.25V20.65H21.6333V18.6833Z" fill="#5DAE38"/>
<path d="M27.5333 23.6H44.25V25.5666H27.5333V23.6Z" fill="#5DAE38"/>
<path d="M14.75 28.5167H34.4167V30.4833H14.75V28.5167Z" fill="#5DAE38"/>
<path d="M14.75 33.4333H31.4667V35.4H14.75V33.4333Z" fill="#5DAE38"/>
</symbol><symbol id="history" viewBox="0 0 54 60">
<path d="M53.9969 8.41687C53.9969 5.99051 52.0229 4.01648 49.5964 4.01648H45.8387V2.6727C45.8387 1.19895 44.6396 0 43.166 0H42.7625C41.2889 0 40.0898 1.19895 40.0898 2.6727V4.01648H13.9102V2.6727C13.9102 1.19895 12.7111 0 11.2375 0H10.834C9.36035 0 8.16129 1.19895 8.16129 2.6727V4.01648H4.40355C1.97707 4.01648 0.00304413 5.99051 0.00304413 8.41687V46.43C0.00304413 46.9154 0.396443 47.3089 0.88195 47.3089C1.36746 47.3089 1.76086 46.9154 1.76086 46.43V18.3343H44.0809C44.5664 18.3343 44.9598 17.9408 44.9598 17.4554C44.9598 16.97 44.5664 16.5765 44.0809 16.5765H1.76086V8.41687C1.76086 6.95977 2.94633 5.7743 4.40355 5.7743H8.16129V8.35852C8.16129 9.83227 9.36023 11.0312 10.834 11.0312C11.3195 11.0312 11.7129 10.6377 11.7129 10.1523C11.7129 9.66691 11.3195 9.2734 10.834 9.2734C10.3295 9.2734 9.9191 8.86301 9.9191 8.35852V5.7743H40.0898V8.35852C40.0898 9.83227 41.2888 11.0312 42.7625 11.0312C43.248 11.0312 43.6414 10.6377 43.6414 10.1523C43.6414 9.66691 43.248 9.2734 42.7625 9.2734C42.258 9.2734 41.8477 8.86301 41.8477 8.35852V5.7743H49.5964C51.0537 5.7743 52.2391 6.95977 52.2391 8.41687V16.5765H47.5965C47.111 16.5765 46.7176 16.97 46.7176 17.4554C46.7176 17.9408 47.111 18.3343 47.5965 18.3343H52.2391V41.0825C52.2391 42.1889 51.339 43.089 50.2328 43.089H44.3659C42.2903 43.089 40.6017 44.7777 40.6017 46.8533V52.7201C40.6017 53.8264 39.7016 54.7266 38.5953 54.7266H4.40355C2.94633 54.7266 1.76086 53.5411 1.76086 52.084V49.9457C1.76086 49.4603 1.36746 49.0668 0.88195 49.0668C0.396443 49.0668 0.00304413 49.4603 0.00304413 49.9457V55.6055C0.00304413 58.0287 1.97437 60 4.39758 60H49.6024C52.0256 60 53.9969 58.0287 53.9969 55.6055V8.41687ZM12.1523 4.01648H9.9191V2.6727C9.9191 2.1682 10.3295 1.75781 10.834 1.75781H11.2375C11.742 1.75781 12.1523 2.1682 12.1523 2.6727V4.01648ZM44.0809 4.01648H41.8477V2.6727C41.8477 2.1682 42.258 1.75781 42.7625 1.75781H43.166C43.6705 1.75781 44.0809 2.1682 44.0809 2.6727V4.01648ZM42.3594 52.7201V46.8533C42.3594 45.747 43.2595 44.8468 44.3658 44.8468H50.2327C50.5379 44.8468 50.8344 44.8095 51.1188 44.7405L42.253 53.6064C42.322 53.322 42.3594 53.0254 42.3594 52.7201ZM52.2391 55.6055C52.2391 57.0594 51.0562 58.2422 49.6024 58.2422H4.39758C2.94375 58.2422 1.76086 57.0594 1.76086 55.6055V55.6001C2.49726 56.1548 3.4125 56.4844 4.40355 56.4844H40.0384C41.2138 56.4844 42.3189 56.0266 43.15 55.1954L52.2393 46.1063L52.2391 55.6055Z" fill="#5DAE38"/>
<path d="M26.7343 33.4925C26.0895 33.4925 25.5307 33.2561 25.0364 32.7618C24.542 32.2674 24.3056 31.6871 24.3056 31.0209C24.3056 29.5594 25.4447 28.5492 26.9707 28.5492C28.4967 28.5492 29.7002 29.4949 29.7002 31.0209C29.7002 31.6871 29.4638 32.2674 28.9695 32.7618C28.4967 33.2561 27.9379 33.4925 27.2931 33.4925H26.7343ZM27.2716 35.2119C28.905 35.2119 30.1516 36.2436 30.1731 37.877C30.1731 39.5104 28.905 40.5851 26.9922 40.5851C25.1653 40.5851 23.8328 39.446 23.8328 37.877C23.8328 37.1033 24.1122 36.4585 24.6925 35.9642C25.2728 35.4698 25.982 35.2119 26.7988 35.2119H27.2716ZM22.0059 38.1994C22.0059 39.446 22.4788 40.4346 23.4459 41.1869C24.4131 41.9391 25.6167 42.3045 27.0137 42.3045C28.4107 42.3045 29.5928 41.9176 30.56 41.1654C31.5271 40.4131 32 39.3815 32 38.0704C32 36.1146 30.7534 34.6531 29.0555 34.3737V34.3092C30.5814 33.7074 31.5271 32.246 31.5271 30.763C31.5271 29.6024 31.0973 28.6567 30.2161 27.926C29.3349 27.1952 28.2602 26.8298 26.9922 26.8298C25.7241 26.8298 24.6495 27.1952 23.7683 27.926C22.9086 28.6567 22.4788 29.6024 22.4788 30.763C22.4788 32.3964 23.4889 33.8794 24.8429 34.3307V34.3952C23.145 34.8895 22.0059 36.3725 22.0059 38.1994Z" fill="#5DAE38"/>
</symbol><symbol id="Instagram-green" viewBox="0 0 33 33">
<path fill-rule="evenodd" clip-rule="evenodd" d="M16.5 0C7.3873 0 0 7.3873 0 16.5C0 25.6127 7.3873 33 16.5 33C25.6127 33 33 25.6127 33 16.5C33 7.3873 25.6127 0 16.5 0ZM12.8723 7.75317C13.8109 7.71045 14.1109 7.7 16.5008 7.7H16.4981C18.8888 7.7 19.1876 7.71045 20.1263 7.75317C21.0631 7.79607 21.703 7.94439 22.264 8.162C22.8433 8.38659 23.3328 8.68726 23.8223 9.17677C24.3118 9.6659 24.6125 10.1569 24.838 10.7357C25.0543 11.2952 25.2028 11.9347 25.2468 12.8715C25.289 13.8102 25.3 14.1101 25.3 16.5001C25.3 18.8901 25.289 19.1893 25.2468 20.1279C25.2028 21.0644 25.0543 21.7041 24.838 22.2638C24.6125 22.8424 24.3118 23.3334 23.8223 23.8225C23.3334 24.312 22.8431 24.6134 22.2645 24.8382C21.7046 25.0558 21.0644 25.2041 20.1276 25.247C19.1889 25.2897 18.8899 25.3002 16.4997 25.3002C14.11 25.3002 13.8102 25.2897 12.8715 25.247C11.9349 25.2041 11.2952 25.0558 10.7353 24.8382C10.1569 24.6134 9.6659 24.312 9.17695 23.8225C8.68763 23.3334 8.38696 22.8424 8.162 22.2636C7.94457 21.7041 7.79625 21.0646 7.75317 20.1277C7.71063 19.1891 7.7 18.8901 7.7 16.5001C7.7 14.1101 7.711 13.81 7.75298 12.8713C7.79515 11.9349 7.94365 11.2952 8.16182 10.7355C8.38732 10.1569 8.68799 9.6659 9.1775 9.17677C9.66664 8.68744 10.1576 8.38677 10.7364 8.162C11.2959 7.94439 11.9354 7.79607 12.8723 7.75317Z" fill="#5DAE38"/>
<path fill-rule="evenodd" clip-rule="evenodd" d="M15.7114 9.28589C15.8647 9.28565 16.0296 9.28573 16.2075 9.28581L16.5008 9.28589C18.8505 9.28589 19.1289 9.29432 20.0568 9.33649C20.9148 9.37573 21.3805 9.51909 21.6907 9.63955C22.1014 9.79905 22.3941 9.98972 22.702 10.2977C23.01 10.6057 23.2006 10.8991 23.3605 11.3097C23.481 11.6196 23.6245 12.0852 23.6636 12.9432C23.7057 13.8709 23.7149 14.1496 23.7149 16.4981C23.7149 18.8466 23.7057 19.1253 23.6636 20.053C23.6243 20.911 23.481 21.3767 23.3605 21.6865C23.201 22.0972 23.01 22.3896 22.702 22.6974C22.394 23.0054 22.1015 23.1961 21.6907 23.3556C21.3809 23.4766 20.9148 23.6196 20.0568 23.6588C19.1291 23.701 18.8505 23.7102 16.5008 23.7102C14.151 23.7102 13.8725 23.701 12.9449 23.6588C12.0869 23.6192 11.6212 23.4759 11.3108 23.3554C10.9001 23.1959 10.6068 23.0052 10.2988 22.6972C9.99078 22.3892 9.80011 22.0966 9.64024 21.6858C9.51979 21.3759 9.37624 20.9103 9.33719 20.0523C9.29502 19.1246 9.28659 18.8459 9.28659 16.4959C9.28659 14.1459 9.29502 13.8687 9.33719 12.941C9.37642 12.083 9.51979 11.6174 9.64024 11.3072C9.79975 10.8965 9.99078 10.6032 10.2988 10.2952C10.6068 9.98715 10.9001 9.79648 11.3108 9.63661C11.621 9.51561 12.0869 9.37261 12.9449 9.33319C13.7567 9.29652 14.0713 9.28552 15.7114 9.28369V9.28589ZM21.1982 10.7471C20.6152 10.7471 20.1422 11.2195 20.1422 11.8027C20.1422 12.3857 20.6152 12.8587 21.1982 12.8587C21.7813 12.8587 22.2543 12.3857 22.2543 11.8027C22.2543 11.2197 21.7813 10.7467 21.1982 10.7467V10.7471ZM11.9816 16.5001C11.9816 14.0045 14.005 11.981 16.5006 11.9809C18.9964 11.9809 21.0193 14.0044 21.0193 16.5001C21.0193 18.9959 18.9966 21.0184 16.5008 21.0184C14.0051 21.0184 11.9816 18.9959 11.9816 16.5001Z" fill="#5DAE38"/>
<path d="M16.5008 13.5667C18.1208 13.5667 19.4342 14.8799 19.4342 16.5C19.4342 18.12 18.1208 19.4334 16.5008 19.4334C14.8807 19.4334 13.5675 18.12 13.5675 16.5C13.5675 14.8799 14.8807 13.5667 16.5008 13.5667Z" fill="#5DAE38"/>
</symbol><symbol id="Instagram-white" viewBox="0 0 28 28">
<path fill-rule="evenodd" clip-rule="evenodd" d="M14 0C6.26801 0 0 6.26801 0 14C0 21.732 6.26801 28 14 28C21.732 28 28 21.732 28 14C28 6.26801 21.732 0 14 0ZM10.9219 6.57844C11.7184 6.5422 11.9729 6.53333 14.0007 6.53333H13.9984C16.0268 6.53333 16.2804 6.5422 17.0768 6.57844C17.8717 6.61485 18.4146 6.74069 18.8906 6.92534C19.3822 7.11589 19.7975 7.37101 20.2129 7.78635C20.6282 8.20137 20.8833 8.61796 21.0747 9.10905C21.2582 9.58381 21.3842 10.1264 21.4216 10.9213C21.4573 11.7177 21.4667 11.9722 21.4667 14.0001C21.4667 16.0279 21.4573 16.2818 21.4216 17.0782C21.3842 17.8728 21.2582 18.4156 21.0747 18.8905C20.8833 19.3814 20.6282 19.798 20.2129 20.213C19.798 20.6284 19.382 20.8841 18.8911 21.0748C18.416 21.2595 17.8728 21.3853 17.0779 21.4217C16.2815 21.458 16.0278 21.4668 13.9998 21.4668C11.9721 21.4668 11.7177 21.458 10.9213 21.4217C10.1265 21.3853 9.58381 21.2595 9.10874 21.0748C8.61796 20.8841 8.20137 20.6284 7.7865 20.213C7.37132 19.798 7.11621 19.3814 6.92534 18.8903C6.74085 18.4156 6.615 17.873 6.57844 17.0781C6.54236 16.2816 6.53333 16.0279 6.53333 14.0001C6.53333 11.9722 6.54267 11.7176 6.57829 10.9211C6.61407 10.1265 6.74007 9.58381 6.92518 9.10889C7.11652 8.61796 7.37163 8.20137 7.78697 7.78635C8.20199 7.37116 8.61858 7.11605 9.10967 6.92534C9.58443 6.74069 10.127 6.61485 10.9219 6.57844Z" fill="white"/>
<path fill-rule="evenodd" clip-rule="evenodd" d="M13.3309 7.87894C13.4609 7.87874 13.6008 7.8788 13.7518 7.87887L14.0007 7.87894C15.9943 7.87894 16.2306 7.8861 17.0179 7.92188C17.7459 7.95516 18.141 8.07681 18.4042 8.17901C18.7527 8.31435 19.0011 8.47613 19.2623 8.73746C19.5236 8.9988 19.6854 9.24769 19.821 9.59614C19.9232 9.85903 20.045 10.2541 20.0782 10.9822C20.1139 11.7693 20.1217 12.0057 20.1217 13.9984C20.1217 15.9911 20.1139 16.2275 20.0782 17.0147C20.0449 17.7427 19.9232 18.1378 19.821 18.4007C19.6857 18.7491 19.5236 18.9972 19.2623 19.2584C19.0009 19.5198 18.7528 19.6815 18.4042 19.8169C18.1413 19.9195 17.7459 20.0409 17.0179 20.0742C16.2308 20.1099 15.9943 20.1177 14.0007 20.1177C12.0069 20.1177 11.7706 20.1099 10.9835 20.0742C10.2555 20.0406 9.86038 19.9189 9.59702 19.8167C9.24858 19.6814 8.99968 19.5196 8.73835 19.2583C8.47701 18.9969 8.31523 18.7487 8.17959 18.4001C8.07739 18.1372 7.95558 17.742 7.92245 17.014C7.88667 16.2269 7.87952 15.9905 7.87952 13.9965C7.87952 12.0026 7.88667 11.7674 7.92245 10.9803C7.95574 10.2523 8.07739 9.85716 8.17959 9.59396C8.31492 9.24551 8.47701 8.99662 8.73835 8.73528C8.99968 8.47395 9.24858 8.31217 9.59702 8.17652C9.86023 8.07386 10.2555 7.95252 10.9835 7.91908C11.6723 7.88796 11.9392 7.87863 13.3309 7.87708V7.87894ZM17.9864 9.11873C17.4917 9.11873 17.0904 9.5196 17.0904 10.0144C17.0904 10.5091 17.4917 10.9104 17.9864 10.9104C18.4811 10.9104 18.8824 10.5091 18.8824 10.0144C18.8824 9.51976 18.4811 9.11842 17.9864 9.11842V9.11873ZM10.1662 14.0001C10.1662 11.8826 11.883 10.1657 14.0005 10.1656C16.1181 10.1656 17.8346 11.8825 17.8346 14.0001C17.8346 16.1177 16.1183 17.8338 14.0007 17.8338C11.8831 17.8338 10.1662 16.1177 10.1662 14.0001Z" fill="white"/>
<path d="M14.0007 11.5111C15.3752 11.5111 16.4896 12.6254 16.4896 14C16.4896 15.3745 15.3752 16.4889 14.0007 16.4889C12.626 16.4889 11.5118 15.3745 11.5118 14C11.5118 12.6254 12.626 11.5111 14.0007 11.5111Z" fill="white"/>
</symbol><symbol id="installments" viewBox="0 0 63 63">
<path d="M62.0753 48.6557H57.0279L54.8543 47.1509C51.3723 44.7401 46.8192 44.3424 42.9715 46.1134L40.3001 47.343H34.5979C31.8668 47.343 29.6171 49.4397 29.3714 52.1079L16.8495 48.7537C15.1808 48.3062 13.4169 49.108 12.656 50.659C12.2071 51.574 12.1647 52.6423 12.5396 53.59C12.9145 54.5377 13.6763 55.2879 14.6297 55.6481L22.9286 58.7839C23.0362 58.8246 23.1466 58.8438 23.2552 58.8438C23.6288 58.8438 23.9806 58.6158 24.1204 58.2458C24.3009 57.768 24.06 57.2345 23.5823 57.054L15.2834 53.918C14.8094 53.7389 14.4457 53.3807 14.2593 52.9095C14.0729 52.4383 14.0932 51.9282 14.3164 51.4734C14.6892 50.7134 15.5534 50.3209 16.3713 50.5398L30.6077 54.3531C30.7972 54.4183 30.9997 54.4554 31.2111 54.4554H41.8749C42.3857 54.4554 42.7996 54.0414 42.7996 53.5307C42.7996 53.0199 42.3857 52.606 41.8749 52.606H31.2111C31.2037 52.606 31.1977 52.5999 31.1977 52.5926C31.1977 50.7174 32.7231 49.192 34.5981 49.192H40.5027C40.6362 49.192 40.768 49.1631 40.8893 49.1073L43.7449 47.7929C47.0013 46.294 50.8549 46.6306 53.8016 48.6709L56.2129 50.3402C56.3674 50.4474 56.551 50.5047 56.7391 50.5047H61.1507V58.4682H56.4108C56.3572 58.4682 56.3037 58.4728 56.2509 58.4821L43.1801 60.7792C38.8314 61.5435 34.3496 61.1225 30.2191 59.5618L27.0505 58.3646C26.573 58.1841 26.0392 58.4251 25.8588 58.9026C25.6783 59.3804 25.9192 59.914 26.3969 60.0945L29.5655 61.2917C32.5656 62.4254 35.7379 62.9999 38.9223 62.9997C40.4514 62.9997 41.9835 62.8673 43.5001 62.6007L56.4916 60.3174H62.0754C62.5862 60.3174 63.0001 59.9035 63.0001 59.3927V49.58C63 49.0696 62.5861 48.6557 62.0753 48.6557Z" fill="#5DAE38"/>
<path d="M16.972 33.3245C17.1808 35.4592 17.9123 37.2933 19.1643 38.8049C22.0857 42.3323 27.6497 44.047 36.1743 44.047C38.8025 44.047 41.1869 43.8775 43.2613 43.5436C43.7654 43.4625 44.1085 42.9879 44.0272 42.4838C43.9461 41.9798 43.4722 41.6361 42.9674 41.7179C40.9899 42.0363 38.7043 42.1977 36.1744 42.1977C28.3452 42.1977 23.1014 40.6594 20.5887 37.6253C19.4947 36.3044 18.8926 34.7006 18.7739 32.7744C18.777 32.7112 18.7731 32.6482 18.7634 32.5863C18.7157 31.5233 18.812 30.3638 19.0513 29.101C19.6913 25.725 21.1381 22.5227 23.3515 19.5824C23.6175 19.28 23.8745 18.9544 24.1162 18.6139C25.5326 16.9043 26.9442 15.6295 27.9861 14.7915L31.58 16.0961C34.1145 17.0162 36.9191 16.0623 38.3745 13.8269H42.99C43.0157 13.8269 43.0411 13.8257 43.0667 13.8249C43.6622 14.2296 45.4563 15.5232 47.3876 17.6414C49.5401 20.0024 52.3129 23.9069 53.2976 29.101C53.8986 32.2699 53.5731 34.8737 52.3304 36.8402C51.1865 38.6503 49.2046 40.0188 46.4392 40.9078C45.9531 41.0641 45.6857 41.5848 45.8421 42.0711C45.9973 42.5617 46.5324 42.8245 47.0053 42.6682C50.1945 41.643 52.512 40.0146 53.8937 37.8282C55.3948 35.4528 55.8056 32.4006 55.1147 28.7563C54.0444 23.1118 51.0416 18.8932 48.7109 16.3483C47.2965 14.8038 45.9653 13.6796 45.0519 12.9796C45.5928 12.4463 45.929 11.7057 45.929 10.8878C45.929 9.5258 44.9975 8.3774 43.7382 8.04554L45.3643 3.75761C45.6875 2.90514 45.5714 1.94845 45.0536 1.19811C44.5355 0.447891 43.682 0 42.7704 0H29.5784C28.6667 0 27.8133 0.447891 27.2954 1.19823C26.7776 1.94845 26.6613 2.90526 26.9847 3.75761L27.7818 5.85937C23.8963 3.90502 19.2059 4.38145 15.7934 7.09045C15.3934 7.40791 15.3266 7.98956 15.6442 8.38958C15.9616 8.78948 16.5433 8.8563 16.9433 8.53884C19.8214 6.25423 23.7894 5.87032 27.052 7.56135L36.9158 12.6732C35.9563 14.294 33.986 15.0026 32.211 14.358L25.8072 12.0331C25.5435 11.9374 25.2506 11.9667 25.0108 12.1125C24.7711 12.2585 24.6107 12.5054 24.5747 12.7837C24.5718 12.8055 24.2759 14.9913 22.8555 17.1803C22.7795 17.2974 22.7013 17.4113 22.622 17.5237C22.4071 17.828 22.1785 18.1177 21.9422 18.3846C21.9324 18.3958 21.9233 18.4076 21.9139 18.4191C20.0682 20.4917 17.5203 21.5405 14.3179 21.5405C13.8072 21.5405 13.3932 21.9544 13.3932 22.4652C13.3932 22.9759 13.8071 23.3899 14.3179 23.3899C16.3318 23.3899 18.008 23.0155 19.4026 22.4271C18.3766 24.4534 17.6491 26.5695 17.2344 28.7565C17.0713 29.6174 16.9704 30.444 16.9299 31.2368L14.0836 29.8165C11.9677 28.7609 9.59962 28.2027 7.23516 28.2027H1.84939V13.476H10.4012C10.61 13.476 10.8125 13.4053 10.976 13.2755L14.0442 10.8398C14.4441 10.5224 14.511 9.94071 14.1935 9.54069C13.876 9.14066 13.2944 9.07384 12.8943 9.39143L10.0786 11.6267H0.924697C0.41393 11.6267 0 12.0406 0 12.5514V29.1273C0 29.6381 0.41393 30.052 0.924697 30.052H7.23503C9.3144 30.052 11.3971 30.5427 13.2578 31.4711L16.972 33.3245ZM28.8173 2.24868C28.9925 1.99484 29.2699 1.84927 29.5784 1.84927H42.7704C43.398 1.82958 43.8761 2.52185 43.6349 3.10177L41.7968 7.9487H31.8188L30.2418 7.13143L28.7137 3.10177C28.6045 2.81347 28.6421 2.50253 28.8173 2.24868ZM35.3873 9.7981H42.9896C43.5906 9.7981 44.0793 10.287 44.0793 10.8878C44.0793 11.4886 43.5905 11.9775 42.9896 11.9775H38.6511C38.4904 11.5822 38.1913 11.2512 37.8101 11.0537L35.3873 9.7981Z" fill="#5DAE38"/>
<path d="M33.226 29.2044V31.0167H31.3964V32.1386H33.226V34.5205H34.6932V32.1386H37.6792V31.0167H34.6932V29.2044H36.5055C39.3534 29.2044 40.8551 27.8581 40.8551 25.8386C40.8551 23.543 39.3707 22.4038 36.3847 22.4038C36.1258 22.4038 35.5734 22.4038 34.7622 22.4211C33.951 22.4383 33.4504 22.4383 33.226 22.4383V28.0824H31.3964V29.2044H33.226ZM36.5227 23.7846C38.3696 23.7846 39.3016 24.5096 39.3016 25.9422C39.3016 27.3748 38.266 28.0824 36.4537 28.0824H34.6932V23.8192C35.4526 23.8019 36.0567 23.7846 36.5227 23.7846Z" fill="#5DAE38"/>
</symbol><symbol id="measuring" viewBox="0 0 67 49">
<path d="M64.7961 25.5593C63.4134 24.6559 61.6837 24.5132 60.1698 25.1774C57.7757 26.2277 55.1093 27.1044 52.2499 27.7953V17.3512C52.2499 15.0731 49.7402 13.0993 44.985 11.6301C44.985 11.6301 44.9832 6.04812 44.9796 6.01462C44.8679 3.5406 40.7242 2.1934 37.2379 1.49762C36.7889 1.40798 36.3342 1.64667 36.1473 2.06529C35.9183 2.55653 36.1309 3.14043 36.6223 3.36943C36.7597 3.43342 36.9031 3.46273 37.046 3.46156C41.9175 4.46106 43.022 5.74191 43.022 6.11656C43.022 6.43717 42.2134 7.47816 38.5213 8.43186C35.2224 9.28401 30.8197 9.75328 26.1248 9.75328C21.4298 9.75328 17.0272 9.28401 13.7282 8.43186C10.0361 7.47816 9.22755 6.43717 9.22755 6.11656C9.22755 5.79596 10.0361 4.75497 13.7282 3.80127C17.0272 2.94911 21.4298 2.47985 26.1248 2.47985C28.2562 2.47985 30.3409 2.57734 32.3207 2.76957C32.8601 2.82152 33.34 2.42698 33.3923 1.88758C33.4446 1.34805 33.0498 0.868317 32.5103 0.815973C30.4679 0.61759 28.3194 0.51709 26.1248 0.51709C21.2688 0.51709 16.6919 1.00847 13.2372 1.90093C9.27413 2.92464 7.26466 4.34303 7.26466 6.11669V11.6306C2.50936 13.0996 0 15.0721 0 17.3512V33.633C0 34.2262 0.146301 34.8122 0.422938 35.3274C1.7263 37.7546 4.0395 39.9715 7.29803 41.9163C7.45571 42.0104 7.62897 42.0551 7.80013 42.0551C8.13435 42.0551 8.46006 41.8844 8.64379 41.5766C8.9216 41.1111 8.76941 40.5086 8.30394 40.2308C7.70251 39.8719 7.13642 39.5002 6.60382 39.119V30.7378C6.60382 30.1957 6.16452 29.7563 5.62237 29.7563C5.08022 29.7563 4.64093 30.1957 4.64093 30.7378V37.5214C3.56657 36.5168 2.72541 35.4662 2.15211 34.3987C2.02845 34.168 1.96289 33.9032 1.96289 33.633V17.3512C1.96289 16.4005 3.3818 14.9785 7.26492 13.6912V15.6734C7.26492 17.447 9.27427 18.8655 13.2375 19.8891C16.6922 20.7815 21.2691 21.273 26.125 21.273C30.981 21.273 35.5579 20.7816 39.0126 19.8891C42.9757 18.8654 44.9851 17.447 44.9851 15.6734V13.6914C48.8703 14.9798 50.2872 16.4035 50.2872 17.3512C50.2872 19.01 46.5769 20.6176 43.3998 21.4902C42.8771 21.6337 42.5697 22.1739 42.7133 22.6966C42.833 23.1323 43.2282 23.4184 43.6593 23.4184C43.7452 23.4184 43.8327 23.407 43.9197 23.3831C46.7507 22.6055 48.8864 21.6688 50.2872 20.6051V28.2338C49.2068 28.4561 48.1027 28.6528 46.9786 28.8233V27.0518C46.9786 26.5098 46.5394 26.0704 45.9972 26.0704C45.4551 26.0704 45.0158 26.5098 45.0158 27.0518V29.0921C43.3693 29.2929 41.6862 29.4382 39.9777 29.5266V28.3277C39.9777 27.7857 39.5384 27.3463 38.9962 27.3463C38.4541 27.3463 38.0148 27.7857 38.0148 28.3277V29.6026C37.3579 29.6194 36.6983 29.6291 36.0361 29.6291C35.0553 29.6291 34.0785 29.6094 33.1076 29.5717V29.1129C33.1076 28.5709 32.6683 28.1314 32.1261 28.1314C31.584 28.1314 31.1447 28.5709 31.1447 29.1129V29.4699C24.5148 29.038 18.2517 27.7355 13.1359 25.6944C12.666 25.507 12.7199 25.1083 12.7649 24.9457C12.8113 24.7784 12.9747 24.3984 13.4872 24.4811C17.3195 25.1007 21.6897 25.4283 26.1252 25.4283C30.9119 25.4283 35.5801 25.0503 39.6253 24.3352C40.159 24.2408 40.5152 23.7317 40.4209 23.1979C40.3265 22.6641 39.8174 22.3083 39.2836 22.4023C35.3494 23.0977 30.7993 23.4654 26.1252 23.4654C21.7928 23.4654 17.531 23.1465 13.8004 22.5433C12.4432 22.3236 11.2399 23.0966 10.8732 24.4222C10.8611 24.4663 10.8528 24.5103 10.8427 24.5543C9.37791 23.71 7.55006 22.421 6.43606 20.7699C6.13299 20.3204 5.52279 20.2021 5.07355 20.5053C4.62418 20.8085 4.50575 21.4186 4.80908 21.8678C7.21192 25.4292 12.1417 27.4124 12.407 27.5169C12.4076 27.5172 12.408 27.5174 12.4085 27.5176C18.9946 30.145 27.3857 31.5919 36.0361 31.5919C42.5055 31.5919 48.7632 30.7949 54.2598 29.3051V44.1673C51.5926 44.919 48.7191 45.5014 45.7054 45.8985V38.0584C45.7054 37.5164 45.2661 37.077 44.7239 37.077C44.1818 37.077 43.7425 37.5164 43.7425 38.0584V46.1287C41.2435 46.3864 38.6629 46.5206 36.0361 46.5206C36.0006 46.5206 35.9654 46.5201 35.9299 46.5201V38.451C35.9299 37.909 35.4906 37.4696 34.9485 37.4696C34.4063 37.4696 33.967 37.909 33.967 38.451V46.4914C31.3009 46.4192 28.6823 46.208 26.1547 45.8654V37.5424C26.1547 37.0004 25.7154 36.561 25.1733 36.561C24.6311 36.561 24.1918 37.0004 24.1918 37.5424V45.57C21.4405 45.1137 18.8168 44.4977 16.3794 43.7335V35.3178C16.3794 34.7758 15.9401 34.3364 15.398 34.3364C14.8558 34.3364 14.4165 34.7758 14.4165 35.3178V43.071C13.6889 42.8072 12.9801 42.53 12.294 42.2381C11.7953 42.0261 11.2188 42.2582 11.0066 42.7569C10.7943 43.2558 11.0266 43.8321 11.5254 44.0443C18.2537 46.9069 26.9585 48.4835 36.0361 48.4835C47.1889 48.4835 57.5946 46.1304 64.5853 42.0275C66.0747 41.1531 67 39.5415 67 37.8214V29.6329C67 27.9837 66.1761 26.4609 64.7961 25.5593ZM40.4355 17.4015V15.32C40.4355 14.778 39.9963 14.3386 39.4541 14.3386C38.912 14.3386 38.4727 14.778 38.4727 15.32V18.0007C37.0801 18.3577 35.4925 18.6463 33.7709 18.8612V16.0348C33.7709 15.4928 33.3316 15.0533 32.7894 15.0533C32.2473 15.0533 31.808 15.4928 31.808 16.0348V19.0686C30.3059 19.2004 28.7278 19.28 27.1063 19.3027V15.9128C27.1063 15.3708 26.667 14.9314 26.1249 14.9314C25.5827 14.9314 25.1435 15.3708 25.1435 15.9128V19.3027C23.5218 19.28 21.9439 19.2004 20.4417 19.0686V15.3725C20.4417 14.8305 20.0024 14.3911 19.4602 14.3911C18.9181 14.3911 18.4788 14.8305 18.4788 15.3725V18.8612C16.7573 18.6463 15.1697 18.3577 13.7771 18.0007V13.9956C13.7771 13.4536 13.3378 13.0142 12.7957 13.0142C12.2535 13.0142 11.8142 13.4536 11.8142 13.9956V17.4016C9.74196 16.6407 9.22755 15.9288 9.22755 15.6735V8.8035C10.2036 9.38321 11.5407 9.89395 13.2372 10.3321C16.6919 11.2244 21.2688 11.7159 26.1248 11.7159C30.9807 11.7159 35.5576 11.2244 39.0123 10.3321C40.7086 9.89395 42.0459 9.38321 43.022 8.8035V15.6734C43.0222 15.9287 42.5078 16.6407 40.4355 17.4015ZM65.0371 37.8214C65.0371 38.8482 64.4832 39.8113 63.5915 40.3346C61.4496 41.5916 58.9643 42.6763 56.2224 43.5717V28.7346C57.8885 28.2143 59.4728 27.6267 60.9582 26.975C61.8766 26.5721 62.8842 26.6551 63.7225 27.2026C64.5579 27.7484 65.037 28.6342 65.037 29.6329V37.8214H65.0371Z" fill="#5DAE38"/>
<path d="M60.6298 30.3154C59.0729 30.3154 57.8987 32.1242 57.8987 34.5227C57.8987 36.9212 59.0729 38.7298 60.6298 38.7298C62.1866 38.7298 63.3608 36.9211 63.3608 34.5227C63.3608 32.1242 62.1867 30.3154 60.6298 30.3154ZM60.6316 36.7671C60.4523 36.7374 59.8616 35.9799 59.8616 34.5227C59.8616 33.0654 60.4523 32.3079 60.6279 32.2782C60.8072 32.3079 61.3979 33.0654 61.3979 34.5227C61.3979 35.9799 60.8074 36.7375 60.6316 36.7671Z" fill="#5DAE38"/>
<path d="M17.6871 4.15265C15.1217 4.53097 13.4131 5.04878 13.4131 6.34664C13.4131 7.64451 15.1217 8.16232 17.6871 8.54063C19.9486 8.87406 22.9453 9.05779 26.1249 9.05779C29.3045 9.05779 32.3012 8.87419 34.5627 8.54063C37.1281 8.16232 38.8367 7.64451 38.8367 6.34664C38.8367 5.04878 37.1281 4.53097 34.5627 4.15265C32.3012 3.81923 29.3045 3.6355 26.1249 3.6355C22.9453 3.6355 19.9486 3.81923 17.6871 4.15265ZM35.6847 6.34664C33.9786 6.71724 30.7594 7.0949 26.1249 7.0949C21.4904 7.0949 18.2712 6.71724 16.5651 6.34664C18.2712 5.97592 21.4904 5.59839 26.1249 5.59839C30.7594 5.59839 33.9786 5.97605 35.6847 6.34664Z" fill="#5DAE38"/>
</symbol><symbol id="menu" viewBox="0 0 16 4">
<circle cx="2" cy="2" r="2" fill="#5DAE38"/>
<circle cx="8" cy="2" r="2" fill="#5DAE38"/>
<circle cx="14" cy="2" r="2" fill="#5DAE38"/>
</symbol><symbol id="OK-black" viewBox="0 0 28 28">
<path fill-rule="evenodd" clip-rule="evenodd" d="M0 14C0 6.26801 6.26801 0 14 0C21.732 0 28 6.26801 28 14C28 21.732 21.732 28 14 28C6.26801 28 0 21.732 0 14ZM13.9905 14.2248C16.0549 14.2248 17.7331 12.6046 17.7331 10.6129C17.7331 8.62056 16.0549 7 13.9905 7C11.9265 7 10.2479 8.62056 10.2479 10.6129C10.2479 12.6046 11.9265 14.2248 13.9905 14.2248ZM17.6876 16.3048C17.0109 16.715 16.2761 17.006 15.5143 17.1735L17.6065 19.1933C18.0351 19.6062 18.0351 20.2767 17.6065 20.69C17.1784 21.1033 16.4844 21.1033 16.0567 20.69L13.9996 18.7052L11.9443 20.69C11.73 20.8965 11.4492 20.9998 11.1684 20.9998C10.888 20.9998 10.6077 20.8965 10.3934 20.69C9.96521 20.2767 9.96521 19.6066 10.3929 19.1933L12.4854 17.1735C11.7235 17.006 10.9888 16.7146 10.3121 16.3048C9.79994 15.9931 9.6461 15.34 9.96879 14.8452C10.2906 14.3498 10.9673 14.2006 11.4803 14.5123C13.0125 15.4427 14.9863 15.4429 16.5193 14.5123C17.0324 14.2006 17.7089 14.3498 18.0313 14.8452C18.354 15.3396 18.1997 15.9931 17.6876 16.3048Z" fill="#5DAE38"/>
<path d="M13.9905 9.11731C14.845 9.11731 15.5401 9.78806 15.5401 10.6129C15.5401 11.4372 14.845 12.1083 13.9905 12.1083C13.1366 12.1083 12.4409 11.4372 12.4409 10.6129C12.4409 9.78806 13.1366 9.11731 13.9905 9.11731Z" fill="#5DAE38"/>
</symbol><symbol id="OK-white" viewBox="0 0 33 33">
<path fill-rule="evenodd" clip-rule="evenodd" d="M0 16.5C0 7.3873 7.3873 0 16.5 0C25.6127 0 33 7.3873 33 16.5C33 25.6127 25.6127 33 16.5 33C7.3873 33 0 25.6127 0 16.5ZM16.4888 16.7649C18.9219 16.7649 20.8997 14.8555 20.8997 12.5081C20.8997 10.1599 18.9219 8.25 16.4888 8.25C14.0562 8.25 12.0778 10.1599 12.0778 12.5081C12.0778 14.8555 14.0562 16.7649 16.4888 16.7649ZM20.8461 19.2163C20.0485 19.6999 19.1826 20.0428 18.2847 20.2402L20.7506 22.6207C21.2557 23.1073 21.2557 23.8976 20.7506 24.3847C20.2459 24.8718 19.428 24.8718 18.9239 24.3847L16.4995 22.0455L14.0773 24.3847C13.8247 24.628 13.4937 24.7497 13.1628 24.7497C12.8323 24.7497 12.5019 24.628 12.2493 24.3847C11.7447 23.8976 11.7447 23.1078 12.2488 22.6207L14.7149 20.2402C13.817 20.0428 12.9511 19.6994 12.1535 19.2163C11.5499 18.849 11.3686 18.0793 11.7489 17.4962C12.1282 16.9123 12.9258 16.7365 13.5304 17.1038C15.3362 18.2003 17.6624 18.2006 19.4692 17.1038C20.0739 16.7365 20.8712 16.9123 21.2512 17.4962C21.6315 18.0788 21.4497 18.849 20.8461 19.2163Z" fill="#5DAE38"/>
<path d="M16.4888 10.7454C17.4959 10.7454 18.3151 11.5359 18.3151 12.5081C18.3151 13.4795 17.4959 14.2705 16.4888 14.2705C15.4825 14.2705 14.6624 13.4795 14.6624 12.5081C14.6624 11.5359 15.4825 10.7454 16.4888 10.7454Z" fill="#5DAE38"/>
</symbol><symbol id="oversight" viewBox="0 0 70 70">
<path d="M61.7586 32.4379C59.3767 31.2471 54.9107 31.2333 54.7218 31.2333C54.1555 31.2333 53.6964 31.6924 53.6964 32.2587C53.6964 32.825 54.1555 33.2841 54.7218 33.2841C55.8742 33.2842 59.2201 33.4617 60.8415 34.2723C60.9887 34.346 61.1451 34.3807 61.2992 34.3807C61.6753 34.3807 62.0375 34.1729 62.2171 33.8137C62.4705 33.3072 62.2651 32.6912 61.7586 32.4379Z" fill="#5DAE38"/>
<path d="M66.8708 47.0369L62.6359 45.8269C62.4531 45.7747 62.3254 45.6054 62.3254 45.4152V44.0017C62.67 43.763 62.9986 43.4958 63.3058 43.1977C64.7947 41.7528 65.6146 39.8148 65.6146 37.7405V35.79L66.0241 34.9712C66.4735 34.0722 66.711 33.0659 66.711 32.061V26.7768C66.711 26.2105 66.2519 25.7514 65.6856 25.7514H55.8182C52.2301 25.7514 49.3109 28.6706 49.3109 32.2587V32.3198C49.3109 33.1554 49.5085 33.9923 49.8821 34.7396L50.4072 35.7898V37.4646C50.4072 40.1189 51.7152 42.5004 53.6964 43.9335L53.6967 45.415C53.6967 45.6434 53.6967 45.738 52.85 45.98L50.7836 46.5704L44.8062 44.3968C44.8276 44.1148 44.7325 43.8279 44.5267 43.6118L42.6166 41.605V38.2363C42.8185 38.0699 43.0176 37.899 43.2105 37.7182C45.6202 35.4597 47.0021 32.2708 47.0021 28.9695V26.2791C47.7297 24.6958 48.0985 23.0203 48.0985 21.2948V10.3313C48.0985 9.76501 47.6394 9.30591 47.0731 9.30591H31.7238C26.3221 9.30591 21.9275 13.7006 21.9275 19.1022V21.295C21.9275 23.0206 22.2962 24.6961 23.0238 26.2794V28.5942C23.0238 32.4272 24.7282 35.8805 27.4094 38.1571V41.6052L25.4993 43.6119C25.2935 43.8281 25.1984 44.1149 25.2198 44.397L18.9109 46.691C18.4538 46.8572 18.029 47.0824 17.6433 47.3551L16.6526 46.8598C19.6016 45.5762 20.5358 43.7708 20.5807 43.6811C20.7251 43.3925 20.7251 43.0526 20.5807 42.764C19.8414 41.2855 19.7519 38.5756 19.68 36.3982C19.6561 35.6733 19.6334 34.9885 19.59 34.3788C19.2404 29.4604 15.5014 25.7514 10.8927 25.7514C6.28387 25.7514 2.54475 29.4603 2.19529 34.3788C2.15195 34.9887 2.12926 35.6735 2.10533 36.3985C2.03342 38.5758 1.94373 41.2854 1.20463 42.7639C1.06025 43.0525 1.06025 43.3924 1.20463 43.681C1.24947 43.7707 2.18176 45.5723 5.13666 46.8575L2.38492 48.2333C0.913828 48.9694 0 50.448 0 52.0926V59.668C0 60.2343 0.459102 60.6934 1.02539 60.6934C1.59168 60.6934 2.05078 60.2343 2.05078 59.668V52.0926C2.05078 51.2296 2.53025 50.4537 3.30203 50.0678L6.72861 48.3546L7.92053 49.4873C8.75396 50.2793 9.8231 50.6751 10.8927 50.6751C11.9619 50.6751 13.0316 50.279 13.8648 49.4873L15.0566 48.3547L16.1738 48.9133C15.6477 49.7551 15.3491 50.7422 15.3491 51.7762V59.6683C15.3491 60.2346 15.8082 60.6937 16.3745 60.6937C16.9408 60.6937 17.3999 60.2346 17.3999 59.6683V51.7762C17.3999 50.3686 18.2887 49.0995 19.6118 48.6184L26.2634 46.1997L29.0324 50.3534C29.3863 50.8844 29.9536 51.225 30.5886 51.2879C30.6595 51.2948 30.7299 51.2982 30.8001 51.2982C31.3604 51.2982 31.897 51.0777 32.2982 50.6767L33.9875 48.9874V59.6684C33.9875 60.2347 34.4466 60.6938 35.0129 60.6938C35.5791 60.6938 36.0382 60.2347 36.0382 59.6684V48.9874L37.7275 50.6767C38.1285 51.0779 38.6652 51.2984 39.2256 51.2984C39.2957 51.2984 39.3662 51.295 39.4369 51.288C40.0721 51.2251 40.6394 50.8845 40.9933 50.3535L43.7624 46.2L50.4139 48.6187C51.7368 49.0998 52.6258 50.3688 52.6258 51.7765V59.6686C52.6258 60.2349 53.0849 60.694 53.6512 60.694C54.2175 60.694 54.6766 60.2349 54.6766 59.6686V51.7765C54.6766 50.3508 54.1101 49.0137 53.1599 48.0248L53.4133 47.9525C53.6688 47.8795 54.0174 47.7795 54.3674 47.6079L56.9855 50.226V59.6686C56.9855 60.2349 57.4446 60.694 58.0109 60.694C58.5772 60.694 59.0363 60.2349 59.0363 59.6686V50.226L61.6361 47.6261C61.7743 47.6964 61.9195 47.7557 62.0724 47.7993L66.3074 49.0093C67.274 49.2855 67.9492 50.1806 67.9492 51.186V59.6686C67.9492 60.2349 68.4083 60.694 68.9746 60.694C69.5409 60.694 70 60.2349 70 59.6686V51.186C70 49.2695 68.7132 47.5634 66.8708 47.0369ZM6.57822 45.2257C4.6602 44.5356 3.69811 43.6155 3.2874 43.113C3.5674 42.381 3.74896 41.5427 3.87188 40.6577C4.43734 42.0135 5.38439 43.171 6.57822 43.9968V45.2257ZM12.4523 48.0009C11.5778 48.8318 10.2077 48.8317 9.33338 48.0007L8.37977 47.0946C8.54068 46.7931 8.62914 46.4513 8.62914 46.0932V45.0003C9.34445 45.2238 10.1049 45.3444 10.8929 45.3444C11.68 45.3444 12.44 45.2233 13.1566 45.001L13.1564 46.0931C13.1564 46.4513 13.2448 46.7932 13.4058 47.0948L12.4523 48.0009ZM10.8932 43.2936C7.83125 43.2936 5.34037 40.8026 5.34037 37.7408C5.34037 37.1745 4.88127 36.7154 4.31498 36.7154C4.25756 36.7154 4.2015 36.7213 4.14668 36.7305C4.14969 36.6423 4.15256 36.554 4.15557 36.4666C4.1784 35.7615 4.20041 35.0956 4.24102 34.5244C4.37199 32.6819 5.10822 30.9842 6.31408 29.7436C7.53074 28.4918 9.15688 27.8025 10.8929 27.8025C12.629 27.8025 14.255 28.4918 15.4718 29.7436C16.6776 30.9842 17.4139 32.6819 17.5448 34.5244C17.5853 35.0954 17.6075 35.7613 17.6307 36.4662C17.6328 36.5267 17.6348 36.5881 17.6369 36.6491C16.5212 34.9303 14.7983 33.6636 12.5721 32.9483C10.5154 32.2875 8.74658 32.3284 8.67193 32.3303C8.40342 32.3378 8.14857 32.4502 7.96223 32.6435L6.11215 34.5622C5.71908 34.9699 5.73084 35.6191 6.13854 36.0121C6.54623 36.4052 7.19537 36.3933 7.58844 35.9858L9.12789 34.3893C10.4537 34.4541 14.7189 34.9501 16.3777 38.6028C15.9603 41.2945 13.6467 43.2936 10.8932 43.2936ZM15.2071 45.2292L15.2072 44.0062C16.4001 43.1849 17.3485 42.0297 17.9144 40.6636C18.0373 41.5465 18.2187 42.383 18.4982 43.1133C18.0898 43.611 17.1232 44.5393 15.2071 45.2292ZM25.0746 28.5941V26.05C25.0746 25.8956 25.0398 25.7432 24.9726 25.6042C24.3128 24.2378 23.9783 22.788 23.9783 21.295V19.1024C23.9783 14.8314 27.453 11.3568 31.7238 11.3568H46.0477V21.2952C46.0477 22.7882 45.7131 24.2379 45.0533 25.6043C44.9862 25.7433 44.9513 25.8958 44.9513 26.0501V28.9698C44.9513 31.7467 43.835 34.3223 41.808 36.2223C41.555 36.4593 41.2923 36.6817 41.0208 36.8888C41.0148 36.8929 41.0091 36.8974 41.0032 36.9016C39.1043 38.3433 36.7784 39.044 34.3495 38.8867C29.1486 38.5499 25.0746 34.0289 25.0746 28.5941ZM30.8481 49.2264C30.841 49.2335 30.8245 49.2503 30.791 49.2468C30.7576 49.2435 30.7445 49.224 30.7389 49.2155L27.5499 44.432L28.5761 43.3537L33.4139 46.6605L30.8481 49.2264ZM35.013 45.2694L29.4602 41.4738V39.5597C30.8969 40.3364 32.5057 40.8222 34.2167 40.9329C34.487 40.9504 34.7557 40.959 35.0235 40.959C36.9842 40.959 38.8712 40.4904 40.5658 39.6007V41.4738L35.013 45.2694ZM39.2871 49.2158C39.2815 49.2242 39.2684 49.2438 39.235 49.2471C39.2015 49.2513 39.1851 49.2337 39.1779 49.2267L36.612 46.6609L41.4498 43.3539L42.4762 44.4322L39.2871 49.2158ZM58.0109 48.3506L55.6839 46.0238C55.7245 45.8393 55.7475 45.6374 55.7473 45.4147L55.7472 44.982C56.3929 45.1939 57.0735 45.3197 57.7778 45.3407C57.8568 45.3432 57.9351 45.3443 58.0139 45.3443C58.7921 45.3443 59.5517 45.2267 60.2746 45.0024V45.4152C60.2746 45.6198 60.3004 45.8202 60.3487 46.0128L58.0109 48.3506ZM61.8777 41.726C60.7909 42.7807 59.3552 43.3377 57.8394 43.2909C54.8721 43.2019 52.458 40.5882 52.458 37.4649V35.548C52.458 35.3887 52.421 35.2317 52.3497 35.0894L51.7163 33.8226C51.4843 33.3584 51.3617 32.8389 51.3617 32.3199V32.2588C51.3617 29.8014 53.3609 27.8023 55.8182 27.8023H64.6602V32.0611C64.6602 32.7493 64.4975 33.4385 64.1897 34.0542L63.6721 35.0894C63.6009 35.2319 63.5638 35.3887 63.5638 35.548V37.7407C63.5638 39.2555 62.965 40.6708 61.8777 41.726Z" fill="#5DAE38"/>
<path d="M64.5891 52.0645C64.0228 52.0645 63.5637 52.5236 63.5637 53.0898V59.6681C63.5637 60.2344 64.0228 60.6935 64.5891 60.6935C65.1554 60.6935 65.6145 60.2344 65.6145 59.6681V53.0898C65.6145 52.5237 65.1554 52.0645 64.5891 52.0645Z" fill="#5DAE38"/>
<path d="M5.41092 53.4199C4.84463 53.4199 4.38553 53.879 4.38553 54.4453V59.668C4.38553 60.2343 4.84463 60.6934 5.41092 60.6934C5.97721 60.6934 6.43631 60.2343 6.43631 59.668V54.4453C6.43631 53.8791 5.97721 53.4199 5.41092 53.4199Z" fill="#5DAE38"/>
<path d="M43.4126 21.6665C39.5344 17.7884 31.4203 18.5298 28.1114 19.0285C27.0692 19.1856 26.3129 20.0676 26.3129 21.1257V23.4879C26.3129 24.0542 26.772 24.5133 27.3383 24.5133C27.9046 24.5133 28.3637 24.0542 28.3637 23.4879V21.1255C28.3637 21.0907 28.3866 21.0609 28.4173 21.0562C29.7389 20.857 32.3616 20.5497 35.0789 20.7308C38.2765 20.9437 40.5925 21.7464 41.9625 23.1166C42.363 23.517 43.0123 23.517 43.4126 23.1166C43.813 22.7161 43.813 22.0668 43.4126 21.6665Z" fill="#5DAE38"/>
<path d="M22.9529 54.2573C22.3866 54.2573 21.9275 54.7164 21.9275 55.2827V59.6682C21.9275 60.2345 22.3866 60.6936 22.9529 60.6936C23.5192 60.6936 23.9783 60.2345 23.9783 59.6682V55.2827C23.9783 54.7165 23.5192 54.2573 22.9529 54.2573Z" fill="#5DAE38"/>
<path d="M47.0731 54.2573C46.5068 54.2573 46.0477 54.7164 46.0477 55.2827V59.6682C46.0477 60.2345 46.5068 60.6936 47.0731 60.6936C47.6394 60.6936 48.0985 60.2345 48.0985 59.6682V55.2827C48.0985 54.7165 47.6394 54.2573 47.0731 54.2573Z" fill="#5DAE38"/>
</symbol><symbol id="production-2" viewBox="0 0 64 62">
<path d="M61.2601 21.7022H53.1556L53.1007 20.5189C53.0789 20.0459 52.8248 19.6159 52.421 19.3684L50.459 18.1659L51.6716 17.6093C52.3865 17.281 52.7011 16.4323 52.373 15.7173L50.999 12.724C50.8014 12.2939 50.4047 11.9903 49.9379 11.9122L47.4422 11.4943L48.4608 10.2269C48.9318 9.64091 48.8654 8.78504 48.3096 8.27841L45.8537 6.04029C45.5037 5.72129 45.02 5.59704 44.5596 5.70741L42.322 6.24441L42.7858 4.99341C43.0592 4.25579 42.6816 3.43316 41.9439 3.15954L38.856 2.01466C38.4121 1.85016 37.917 1.91591 37.5314 2.19079L35.4712 3.66004L35.2952 2.04354C35.2137 1.29616 34.5579 0.737914 33.8106 0.772789L30.4915 0.926664C30.0185 0.948539 29.5885 1.20266 29.341 1.60641L28.1385 3.56841L27.5819 2.35579C27.2536 1.64079 26.4047 1.32604 25.6899 1.65441L23.5326 2.64466C23.1775 2.80766 22.9019 3.11341 22.7765 3.48329L21.6698 6.74804L20.1996 5.56654C19.6136 5.09554 18.7576 5.16191 18.2511 5.71766L16.6325 7.49366C16.3694 7.78241 16.235 8.17141 16.2641 8.56129L16.507 11.8128L14.9661 11.2415C14.2287 10.968 13.406 11.3457 13.1322 12.0834L12.307 14.3093C12.1713 14.6755 12.1925 15.0865 12.3655 15.4368L13.8915 18.5279L12.0165 18.732C11.269 18.8133 10.7106 19.4654 10.7455 20.2167L10.8144 21.702H2.73988C1.22913 21.7022 0 22.9313 0 24.442V32.2454V43.3754C0 44.8862 1.22913 46.1153 2.73988 46.1153H4.36438L2.21988 58.5202C1.97563 59.9333 3.06325 61.2287 4.50037 61.2287H6.47425C7.48212 61.2287 8.36713 60.5843 8.67675 59.6252L10.8352 52.9375H53.1647L55.3234 59.6253C55.633 60.5844 56.518 61.2288 57.5259 61.2288H59.4997C60.9337 61.2288 62.025 59.9364 61.7803 58.5203L60.92 53.5437C60.8319 53.0335 60.3466 52.6912 59.8366 52.7797C59.3264 52.8679 58.9842 53.3529 59.0725 53.8632L59.9328 58.8397C59.9791 59.1083 59.7728 59.3538 59.4999 59.3538H57.526C57.3346 59.3538 57.1666 59.2314 57.1079 59.0494L52.0749 43.4558H57.2735L58.3245 49.5352C58.4125 50.0444 58.8968 50.3875 59.408 50.2993C59.9183 50.211 60.2603 49.726 60.172 49.2158L59.1763 43.4559H61.2605C62.7713 43.4559 64.0004 42.2268 64.0004 40.716V24.442C64 22.9313 62.7709 21.7022 61.2601 21.7022ZM14.7312 20.3228C15.7154 20.2155 16.2945 19.1604 15.8562 18.2727L14.1322 14.7802L14.7345 13.1557L16.5099 13.8139C17.4851 14.1757 18.5063 13.4054 18.4289 12.3697L18.1483 8.61441L19.3534 7.29204C20.6255 8.16504 21.1759 9.19266 22.2876 8.86879C22.7345 8.73854 23.0904 8.39779 23.2399 7.95704L24.4904 4.26829L26.065 3.54554L26.785 5.11391C27.2595 6.14804 28.7011 6.23879 29.2984 5.26441L30.8158 2.78866L33.4771 2.66516L33.6904 4.62354C33.8084 5.70716 35.0487 6.26466 35.9374 5.63091L38.4271 3.85529L40.8722 4.76191L40.2723 6.38016C40.0886 6.87516 40.1923 7.42816 40.5428 7.82316C40.8932 8.21816 41.43 8.38704 41.9431 8.26366L44.7666 7.58616L46.7357 9.38066L45.5018 10.9162C44.8189 11.7659 45.302 13.0372 46.3784 13.2173L49.3944 13.7223L50.4823 16.0923L48.9136 16.8123C47.8775 17.288 47.7915 18.73 48.7632 19.3255L51.239 20.8429L51.2789 21.7022H42.2663C42.2648 21.6518 42.2638 21.6012 42.2615 21.5513C41.9985 15.8805 37.1985 11.5048 31.524 11.7658C26.1353 12.0159 21.9002 16.3975 21.7356 21.702H12.6912L12.6379 20.5505L14.7312 20.3228ZM31.7771 17.2235C29.3132 17.3379 27.3643 19.2972 27.2027 21.7023H23.6103C23.7705 17.3874 27.2101 13.8433 31.6109 13.639C36.247 13.4243 40.1734 17.0013 40.3885 21.6384C40.3895 21.6593 40.3888 21.6813 40.3896 21.7023H36.7967C36.621 19.1032 34.392 17.1008 31.7771 17.2235ZM34.9154 21.7022H29.084C29.2404 20.2933 30.4043 19.1642 31.864 19.0964C33.4165 19.0244 34.7464 20.1788 34.9154 21.7022ZM6.89237 59.0494C6.83362 59.2315 6.66562 59.3538 6.47425 59.3538H4.50037C4.22775 59.3538 4.021 59.1085 4.0675 58.8397L6.26725 46.1154H11.0671L6.89237 59.0494ZM52.5595 51.0625H11.4405L13.0372 46.1153H22.6149C24.0305 46.1153 25.1822 44.9635 25.1822 43.5479V43.4558H31.0625V43.8304C31.0625 46.4035 33.156 48.497 35.7291 48.497C38.3022 48.497 40.3957 46.4035 40.3957 43.8304V43.4558H50.1043L52.5595 51.0625ZM25.1822 41.5808V37.3125H29.3867C30.3109 37.3125 31.0626 38.0643 31.0626 38.9884V41.5808H25.1822ZM32.9375 43.8304V43.4558H38.5209V43.8304C38.5209 45.3697 37.2685 46.622 35.7293 46.622C34.1899 46.622 32.9375 45.3698 32.9375 43.8304ZM62.125 40.7159C62.125 41.1928 61.737 41.5808 61.2601 41.5808C60.3435 41.5808 33.5709 41.5808 32.9375 41.5808V38.9884C32.9375 37.0304 31.3446 35.4375 29.3866 35.4375H25.1821V33.8753C25.1821 32.4597 24.0304 31.3079 22.6147 31.3079H10.2966C9.77888 31.3079 9.35913 31.7277 9.35913 32.2454C9.35913 32.7632 9.77888 33.1829 10.2966 33.1829H22.6147C22.9965 33.1829 23.3071 33.4935 23.3071 33.8753V43.5479C23.3071 43.9297 22.9965 44.2403 22.6147 44.2403C20.2676 44.2403 4.79375 44.2403 2.73975 44.2403C2.26287 44.2403 1.87487 43.8523 1.87487 43.3754V33.1829H5.91375C6.4315 33.1829 6.85125 32.7632 6.85125 32.2454C6.85125 31.7277 6.4315 31.3079 5.91375 31.3079H1.875V24.442C1.875 23.9652 2.263 23.5772 2.73988 23.5772H61.2601C61.737 23.5772 62.125 23.9652 62.125 24.442V40.7159Z" fill="#5DAE38"/>
<path d="M4.5055 38.7115C4.5055 40.6949 6.11913 42.3085 8.1025 42.3085C10.0859 42.3085 11.6995 40.6949 11.6995 38.7115C11.6995 36.7281 10.0859 35.1145 8.1025 35.1145C6.11913 35.1145 4.5055 36.7281 4.5055 38.7115ZM9.82463 38.7115C9.82463 39.661 9.05213 40.4335 8.10263 40.4335C7.15313 40.4335 6.38063 39.661 6.38063 38.7115C6.38063 37.762 7.15313 36.9895 8.10263 36.9895C9.05213 36.9895 9.82463 37.762 9.82463 38.7115Z" fill="#5DAE38"/>
<path d="M17.0796 42.3087C19.063 42.3087 20.6766 40.6951 20.6766 38.7117C20.6766 36.7284 19.063 35.1147 17.0796 35.1147C15.0963 35.1147 13.4826 36.7284 13.4826 38.7117C13.4826 40.6951 15.0963 42.3087 17.0796 42.3087ZM17.0796 36.9897C18.0291 36.9897 18.8016 37.7622 18.8016 38.7117C18.8016 39.6612 18.0291 40.4337 17.0796 40.4337C16.1301 40.4337 15.3576 39.6612 15.3576 38.7117C15.3576 37.7622 16.1301 36.9897 17.0796 36.9897Z" fill="#5DAE38"/>
</symbol><symbol id="production" viewBox="0 0 61 61">
<path d="M11.9114 47.3995C9.56163 47.3995 7.6499 49.3113 7.6499 51.6611C7.6499 54.0109 9.56163 55.9226 11.9114 55.9226C14.2614 55.9226 16.173 54.0109 16.173 51.6611C16.173 49.3113 14.2614 47.3995 11.9114 47.3995ZM11.9114 54.1372C10.5462 54.1372 9.43546 53.0264 9.43546 51.6612C9.43546 50.296 10.5462 49.1852 11.9114 49.1852C13.2768 49.1852 14.3874 50.296 14.3874 51.6612C14.3874 53.0264 13.2768 54.1372 11.9114 54.1372Z" fill="#5DAE38"/>
<path d="M28.5654 51.6612C28.5654 49.3113 26.6536 47.3997 24.3038 47.3997C21.954 47.3997 20.0423 49.3114 20.0423 51.6612C20.0423 54.011 21.954 55.9227 24.3038 55.9227C26.6536 55.9227 28.5654 54.011 28.5654 51.6612ZM21.8279 51.6612C21.8279 50.296 22.9386 49.1852 24.3038 49.1852C25.6692 49.1852 26.7798 50.296 26.7798 51.6612C26.7798 53.0264 25.6691 54.1372 24.3038 54.1372C22.9385 54.1372 21.8279 53.0264 21.8279 51.6612Z" fill="#5DAE38"/>
<path d="M40.9578 51.6612C40.9578 49.3113 39.0461 47.3997 36.6963 47.3997C34.3465 47.3997 32.4347 49.3114 32.4347 51.6612C32.4347 54.011 34.3465 55.9227 36.6963 55.9227C39.0461 55.9227 40.9578 54.011 40.9578 51.6612ZM34.2202 51.6612C34.2202 50.296 35.3309 49.1852 36.6961 49.1852C38.0614 49.1852 39.1721 50.296 39.1721 51.6612C39.1721 53.0264 38.0614 54.1372 36.6961 54.1372C35.3309 54.1372 34.2202 53.0264 34.2202 51.6612Z" fill="#5DAE38"/>
<path d="M53.3501 51.6612C53.3501 49.3113 51.4384 47.3997 49.0886 47.3997C46.7386 47.3997 44.827 49.3114 44.827 51.6612C44.827 54.011 46.7388 55.9227 49.0886 55.9227C51.4384 55.9227 53.3501 54.011 53.3501 51.6612ZM46.6126 51.6612C46.6126 50.296 47.7233 49.1852 49.0886 49.1852C50.4538 49.1852 51.5645 50.296 51.5645 51.6612C51.5645 53.0264 50.4538 54.1372 49.0886 54.1372C47.7232 54.1372 46.6126 53.0264 46.6126 51.6612Z" fill="#5DAE38"/>
<path d="M51.6767 42.3377H43.2079V38.7979C43.2079 38.3048 42.8082 37.9051 42.3151 37.9051C41.8219 37.9051 41.4222 38.3048 41.4222 38.7979V42.3377H16.8466V17.8021C16.8466 17.7801 16.8646 17.762 16.8868 17.762H25.0946V23.8695C25.0946 24.3777 25.3535 24.8393 25.7872 25.1043C26.0198 25.2464 26.2799 25.318 26.541 25.318C26.7664 25.318 26.9924 25.2646 27.2019 25.1572L29.1345 24.1666L31.067 25.1572C31.5192 25.3892 32.0481 25.3693 32.4819 25.1043C32.9156 24.8393 33.1745 24.3777 33.1745 23.8695V17.762H41.3823C41.4043 17.762 41.4225 17.78 41.4225 17.8021V34.6681C41.4225 35.1613 41.8222 35.561 42.3153 35.561C42.8084 35.561 43.2081 35.1613 43.2081 34.6681V32.3922H44.8631C45.9392 32.3922 46.8148 31.5168 46.8148 30.4406V28.2329C46.8148 28.1641 46.8563 28.1015 46.9158 28.0805C47.329 27.9346 47.7387 27.7649 48.1338 27.5764C48.1923 27.5488 48.2645 27.5632 48.3137 27.6124L49.8745 29.1733C50.6355 29.934 51.8736 29.934 52.6345 29.1733L55.6793 26.1285C56.4403 25.3676 56.4403 24.1293 55.6793 23.3684L54.1184 21.8076C54.0691 21.7583 54.0547 21.6859 54.0826 21.6276C54.2711 21.2325 54.4406 20.8228 54.5867 20.4098C54.6077 20.3502 54.6704 20.3086 54.739 20.3086H56.9467C58.0228 20.3086 58.8984 19.433 58.8984 18.3568V14.0509C58.8984 12.9748 58.0229 12.0992 56.9467 12.0992H54.739C54.6703 12.0992 54.6076 12.0576 54.5867 11.9982C54.4406 11.585 54.2711 11.1753 54.0827 10.7803C54.0548 10.7218 54.0691 10.6495 54.1184 10.6003L55.6793 9.03945C56.4403 8.2785 56.4403 7.04027 55.6793 6.27932L52.6345 3.23456C51.8736 2.47385 50.6355 2.47385 49.8745 3.23456L48.3134 4.79542C48.2641 4.84475 48.1917 4.8594 48.1333 4.83128C47.7387 4.64304 47.3291 4.47362 46.9154 4.3272C46.856 4.30611 46.8144 4.24344 46.8144 4.17482V1.96714C46.8144 0.891065 45.9388 0.0153809 44.8628 0.0153809H40.5568C39.4807 0.0153809 38.6051 0.890945 38.6051 1.96714V4.1747C38.6051 4.24344 38.5636 4.30611 38.5037 4.3272C38.0903 4.47338 37.6807 4.64304 37.2861 4.83128C37.2278 4.85892 37.1554 4.84463 37.1061 4.7953L35.5452 3.23444C34.7843 2.47373 33.5462 2.47373 32.7852 3.23444L29.7405 6.2792C28.9795 7.04015 28.9795 8.27838 29.7405 9.03933L31.3015 10.6002C31.3507 10.6495 31.3651 10.7218 31.3372 10.7801C31.149 11.1747 30.9794 11.5843 30.8331 11.998C30.812 12.0575 30.7494 12.0991 30.6807 12.0991H28.4731C27.397 12.0991 26.5214 12.9745 26.5214 14.0507V15.9763H16.8868C15.88 15.9763 15.061 16.7953 15.061 17.802V42.3376H9.32347C4.18243 42.3377 0 46.5201 0 51.6612C0 56.8022 4.18243 60.9846 9.32347 60.9846H13.4037C13.8968 60.9846 14.2965 60.5849 14.2965 60.0918C14.2965 59.5987 13.8968 59.199 13.4037 59.199H9.32347C5.16713 59.199 1.78556 55.8175 1.78556 51.6612C1.78556 47.5048 5.16701 44.1233 9.32347 44.1233H51.6767C55.833 44.1233 59.2144 47.5047 59.2144 51.6612C59.2144 55.8175 55.833 59.199 51.6767 59.199H17.5474C17.0543 59.199 16.6545 59.5987 16.6545 60.0918C16.6545 60.5849 17.0543 60.9846 17.5474 60.9846H51.6767C56.8176 60.9846 61 56.8022 61 51.6612C61 46.5201 56.8176 42.3377 51.6767 42.3377ZM41.3822 15.9764H36.0979C36.2185 12.4325 39.1371 9.58619 42.7099 9.58619C46.3589 9.58619 49.3276 12.5548 49.3276 16.204C49.3276 19.6853 46.625 22.5452 43.2079 22.801V17.8021C43.2079 16.7954 42.3889 15.9764 41.3822 15.9764ZM28.307 14.0509C28.307 13.9594 28.3814 13.8849 28.4731 13.8849H30.6807C31.5058 13.8849 32.2435 13.3658 32.5166 12.5934C32.642 12.2387 32.7874 11.8874 32.9487 11.5493C33.3016 10.8095 33.1471 9.92073 32.5639 9.33778L31.003 7.77692C30.9383 7.71234 30.9383 7.6069 31.003 7.54221L34.0478 4.49745C34.1126 4.43276 34.2179 4.43252 34.2826 4.49745L35.8436 6.05831C36.4267 6.64139 37.3153 6.79591 38.0549 6.44314C38.3933 6.28182 38.7446 6.13635 39.0991 6.01089C39.8717 5.73794 40.3908 5.00011 40.3908 4.17494V1.96714C40.3908 1.87552 40.4653 1.80106 40.5568 1.80106H44.8628C44.9543 1.80106 45.0288 1.87552 45.0288 1.96714V4.1747C45.0288 4.99987 45.5479 5.73771 46.3202 6.01054C46.6749 6.13611 47.0264 6.28146 47.3645 6.44278C48.1041 6.79567 48.9928 6.64115 49.576 6.05807L51.1368 4.49721C51.2015 4.43228 51.3068 4.43252 51.3717 4.49721L54.4164 7.54197C54.4812 7.60666 54.4812 7.7121 54.4164 7.77668L52.8555 9.33754C52.2725 9.9205 52.1177 10.8093 52.4707 11.549C52.6323 11.8876 52.7776 12.239 52.9028 12.5932C53.1759 13.3657 53.9138 13.8847 54.7388 13.8847H56.9465C57.038 13.8847 57.1124 13.9591 57.1124 14.0506V18.3566C57.1124 18.4482 57.038 18.5227 56.9465 18.5227H54.7388C53.9138 18.5227 53.176 19.0418 52.9028 19.8143C52.7776 20.1684 52.6323 20.5197 52.4707 20.8583C52.1178 21.5979 52.2725 22.4866 52.8555 23.0698L54.4164 24.6307C54.4812 24.6952 54.4812 24.8007 54.4164 24.8654L51.3717 27.9101C51.307 27.9749 51.2016 27.9751 51.1368 27.9101L49.576 26.3494C48.993 25.7662 48.1042 25.6116 47.3646 25.9644C47.026 26.1259 46.6747 26.2714 46.3202 26.3966C45.5477 26.6698 45.0287 27.4076 45.0287 28.2325V30.4402C45.0287 30.5317 44.9543 30.6062 44.8626 30.6062H43.2077V24.5908C47.6101 24.332 51.1129 20.6697 51.1129 16.2035C51.1129 11.5699 47.3431 7.80015 42.7096 7.80015C38.1524 7.80015 34.4334 11.4474 34.3121 15.9759H28.3069V14.0509H28.307ZM26.8802 17.762H31.3887V23.3157L29.7946 22.4986C29.3814 22.2867 28.8878 22.2866 28.4743 22.4986L26.8802 23.3157V17.762Z" fill="#5DAE38"/>
<path d="M24.694 33.026C23.9072 33.026 23.267 33.6661 23.267 34.4531V38.2639C23.267 39.0507 23.9071 39.6908 24.694 39.6908H33.5749C34.3617 39.6908 35.002 39.0507 35.002 38.2639V34.4531C35.002 33.6661 34.3618 33.026 33.5749 33.026H24.694ZM33.2163 37.9052H25.0526V34.8116H33.2163V37.9052Z" fill="#5DAE38"/>
</symbol><symbol id="question" viewBox="0 0 10 16">
<path d="M6.18555 5C6.18555 6.26 4.96555 6.88 4.08555 7.68C3.46555 8.22 3.08555 9.14 3.24555 10.36H5.96555C5.80555 9.24 7.08555 8.52 8.10555 7.58C8.82555 6.92 9.40555 5.78 9.40555 4.34C9.40555 3.32 9.00555 2.48 8.20555 1.8C7.42555 1.1 6.36555 0.76 5.02555 0.76C3.20555 0.76 1.72555 1.6 0.985547 2.82L2.74555 4.84C3.36555 4.06 3.88555 3.76 4.86555 3.76C5.58555 3.76 6.18555 4.36 6.18555 5ZM2.72555 13.08C2.72555 14.2 3.54555 15.12 4.76555 15.12C5.86555 15.12 6.64555 14.18 6.64555 13.08C6.64555 12.12 5.82555 11.2 4.76555 11.2C3.54555 11.2 2.72555 12.12 2.72555 13.08Z"/>
</symbol><symbol id="search" viewBox="0 0 24 24">
<path d="M21 11.5C21.0034 12.8199 20.6951 14.1219 20.1 15.3C19.3944 16.7118 18.3098 17.8992 16.9674 18.7293C15.6251 19.5594 14.0782 19.9994 12.5 20C11.1801 20.0035 9.87812 19.6951 8.7 19.1L3 21L4.9 15.3C4.30493 14.1219 3.99656 12.8199 4 11.5C4.00061 9.92179 4.44061 8.37488 5.27072 7.03258C6.10083 5.69028 7.28825 4.6056 8.7 3.90003C9.87812 3.30496 11.1801 2.99659 12.5 3.00003H13C15.0843 3.11502 17.053 3.99479 18.5291 5.47089C20.0052 6.94699 20.885 8.91568 21 11V11.5Z" stroke-width="2" stroke-linecap="round" stroke-linejoin="round"/>
</symbol><symbol id="star" viewBox="0 0 30 30">
<path d="M15 2.5L18.8625 10.325L27.5 11.5875L21.25 17.675L22.725 26.275L15 22.2125L7.275 26.275L8.75 17.675L2.5 11.5875L11.1375 10.325L15 2.5Z"/>
</symbol></svg>