<svg width="102" height="33" viewBox="0 0 102 33" fill="none" xmlns="http://www.w3.org/2000/svg">
<path d="M97.3086 12.1545H101.989C101.397 7.60275 98.0699 5.21021 93.4462 5.21021C88.7664 5.21021 85.637 7.69033 85.637 11.9503C85.637 16.7938 89.6685 17.8732 91.8111 18.3111C94.574 18.8654 97.2804 18.9238 97.2804 21.3746C97.2804 23.0378 95.9272 23.8547 94.0101 23.8547C91.642 23.8547 90.0633 22.6293 89.6685 20.4119H85.045C85.3268 25.197 88.6819 27.7646 93.6156 27.7646C98.1826 27.7646 101.932 25.6055 101.932 20.937C101.932 15.9184 97.6188 15.0139 94.6022 14.5471C92.5441 14.2262 90.2887 13.9343 90.2887 11.6876C90.2887 10.1121 91.4446 9.14924 93.3899 9.14924C95.6453 9.14924 96.9984 10.4623 97.3086 12.1545Z" fill="#403F41"/>
<path d="M82.4795 5.9397H78.0532V27.0934H82.4795V5.9397Z" fill="#403F41"/>
<path d="M64.6901 19.7116H70.4696C69.5673 21.9876 67.5374 23.067 65.1975 23.067C61.0815 23.067 59.1644 19.77 59.1644 16.5021C59.1644 13.205 60.9687 9.84959 65.1694 9.84959C67.7349 9.84959 69.6518 11.0751 70.3849 13.2634L75.1494 13.2634C74.3319 8.33244 70.1594 5.5022 65.2258 5.5022C59.1362 5.5022 54.569 9.7912 54.569 16.5605C54.569 23.4172 59.5308 27.4729 65.1975 27.4729C70.7796 27.4729 75.1494 23.709 75.1494 17.8151V16.0936H64.6901V19.7116Z" fill="#403F41"/>
<path d="M44.448 5.5022C39.3733 5.5022 35.6237 8.79919 35.652 14.2846H40.2191C40.1627 11.892 41.6287 9.70375 44.2224 9.70375C46.4779 9.70375 47.8029 11.3377 47.8029 13.205C47.8029 15.0724 46.4778 16.1228 44.025 17.2608C40.6701 18.8072 38.2739 19.7992 35.8211 20.6746V27.0936H52.9057V22.7753H41.1769C41.1769 22.7753 41.216 22.7627 41.2352 22.7567C43.2301 22.1311 44.7288 21.4514 46.5061 20.6454C50.312 18.8948 52.4828 16.7063 52.4828 12.9717C52.4828 8.39068 49.2125 5.5022 44.448 5.5022Z" fill="#403F41"/>
<path d="M23.642 19.6533C17.8907 19.6825 16.9604 23.2713 16.6504 26.3058L16.5094 27.6479H15.3534L15.2125 26.3058C14.9024 23.2713 13.9439 19.6825 8.38995 19.6533C7.45962 17.6691 7.06493 16.0643 7.06493 14.2553C7.06493 9.73289 10.6454 5.502 15.9454 5.502C21.2456 5.502 24.7697 9.70355 24.7697 14.2847C24.7697 16.0643 24.6006 17.6691 23.642 19.6533ZM15.8892 0.0166016C7.14958 0.0166016 -0.0113525 7.4278 -0.0113525 16.5019C-0.0113525 25.6055 7.14958 33.0165 15.8892 33.0165C24.7133 33.0165 31.846 25.6055 31.846 16.5019C31.846 7.42782 24.7133 0.0166016 15.8892 0.0166016Z" fill="#29B24A"/>
</svg>
