<svg width="54" height="60" viewBox="0 0 54 60" fill="none" xmlns="http://www.w3.org/2000/svg">
<path d="M53.9969 8.41687C53.9969 5.99051 52.0229 4.01648 49.5964 4.01648H45.8387V2.6727C45.8387 1.19895 44.6396 0 43.166 0H42.7625C41.2889 0 40.0898 1.19895 40.0898 2.6727V4.01648H13.9102V2.6727C13.9102 1.19895 12.7111 0 11.2375 0H10.834C9.36035 0 8.16129 1.19895 8.16129 2.6727V4.01648H4.40355C1.97707 4.01648 0.00304413 5.99051 0.00304413 8.41687V46.43C0.00304413 46.9154 0.396443 47.3089 0.88195 47.3089C1.36746 47.3089 1.76086 46.9154 1.76086 46.43V18.3343H44.0809C44.5664 18.3343 44.9598 17.9408 44.9598 17.4554C44.9598 16.97 44.5664 16.5765 44.0809 16.5765H1.76086V8.41687C1.76086 6.95977 2.94633 5.7743 4.40355 5.7743H8.16129V8.35852C8.16129 9.83227 9.36023 11.0312 10.834 11.0312C11.3195 11.0312 11.7129 10.6377 11.7129 10.1523C11.7129 9.66691 11.3195 9.2734 10.834 9.2734C10.3295 9.2734 9.9191 8.86301 9.9191 8.35852V5.7743H40.0898V8.35852C40.0898 9.83227 41.2888 11.0312 42.7625 11.0312C43.248 11.0312 43.6414 10.6377 43.6414 10.1523C43.6414 9.66691 43.248 9.2734 42.7625 9.2734C42.258 9.2734 41.8477 8.86301 41.8477 8.35852V5.7743H49.5964C51.0537 5.7743 52.2391 6.95977 52.2391 8.41687V16.5765H47.5965C47.111 16.5765 46.7176 16.97 46.7176 17.4554C46.7176 17.9408 47.111 18.3343 47.5965 18.3343H52.2391V41.0825C52.2391 42.1889 51.339 43.089 50.2328 43.089H44.3659C42.2903 43.089 40.6017 44.7777 40.6017 46.8533V52.7201C40.6017 53.8264 39.7016 54.7266 38.5953 54.7266H4.40355C2.94633 54.7266 1.76086 53.5411 1.76086 52.084V49.9457C1.76086 49.4603 1.36746 49.0668 0.88195 49.0668C0.396443 49.0668 0.00304413 49.4603 0.00304413 49.9457V55.6055C0.00304413 58.0287 1.97437 60 4.39758 60H49.6024C52.0256 60 53.9969 58.0287 53.9969 55.6055V8.41687ZM12.1523 4.01648H9.9191V2.6727C9.9191 2.1682 10.3295 1.75781 10.834 1.75781H11.2375C11.742 1.75781 12.1523 2.1682 12.1523 2.6727V4.01648ZM44.0809 4.01648H41.8477V2.6727C41.8477 2.1682 42.258 1.75781 42.7625 1.75781H43.166C43.6705 1.75781 44.0809 2.1682 44.0809 2.6727V4.01648ZM42.3594 52.7201V46.8533C42.3594 45.747 43.2595 44.8468 44.3658 44.8468H50.2327C50.5379 44.8468 50.8344 44.8095 51.1188 44.7405L42.253 53.6064C42.322 53.322 42.3594 53.0254 42.3594 52.7201ZM52.2391 55.6055C52.2391 57.0594 51.0562 58.2422 49.6024 58.2422H4.39758C2.94375 58.2422 1.76086 57.0594 1.76086 55.6055V55.6001C2.49726 56.1548 3.4125 56.4844 4.40355 56.4844H40.0384C41.2138 56.4844 42.3189 56.0266 43.15 55.1954L52.2393 46.1063L52.2391 55.6055Z" fill="#5DAE38"/>
<path d="M26.7343 33.4925C26.0895 33.4925 25.5307 33.2561 25.0364 32.7618C24.542 32.2674 24.3056 31.6871 24.3056 31.0209C24.3056 29.5594 25.4447 28.5492 26.9707 28.5492C28.4967 28.5492 29.7002 29.4949 29.7002 31.0209C29.7002 31.6871 29.4638 32.2674 28.9695 32.7618C28.4967 33.2561 27.9379 33.4925 27.2931 33.4925H26.7343ZM27.2716 35.2119C28.905 35.2119 30.1516 36.2436 30.1731 37.877C30.1731 39.5104 28.905 40.5851 26.9922 40.5851C25.1653 40.5851 23.8328 39.446 23.8328 37.877C23.8328 37.1033 24.1122 36.4585 24.6925 35.9642C25.2728 35.4698 25.982 35.2119 26.7988 35.2119H27.2716ZM22.0059 38.1994C22.0059 39.446 22.4788 40.4346 23.4459 41.1869C24.4131 41.9391 25.6167 42.3045 27.0137 42.3045C28.4107 42.3045 29.5928 41.9176 30.56 41.1654C31.5271 40.4131 32 39.3815 32 38.0704C32 36.1146 30.7534 34.6531 29.0555 34.3737V34.3092C30.5814 33.7074 31.5271 32.246 31.5271 30.763C31.5271 29.6024 31.0973 28.6567 30.2161 27.926C29.3349 27.1952 28.2602 26.8298 26.9922 26.8298C25.7241 26.8298 24.6495 27.1952 23.7683 27.926C22.9086 28.6567 22.4788 29.6024 22.4788 30.763C22.4788 32.3964 23.4889 33.8794 24.8429 34.3307V34.3952C23.145 34.8895 22.0059 36.3725 22.0059 38.1994Z" fill="#5DAE38"/>
</svg>
