<svg width="67" height="49" viewBox="0 0 67 49" fill="none" xmlns="http://www.w3.org/2000/svg">
<path d="M64.7961 25.5593C63.4134 24.6559 61.6837 24.5132 60.1698 25.1774C57.7757 26.2277 55.1093 27.1044 52.2499 27.7953V17.3512C52.2499 15.0731 49.7402 13.0993 44.985 11.6301C44.985 11.6301 44.9832 6.04812 44.9796 6.01462C44.8679 3.5406 40.7242 2.1934 37.2379 1.49762C36.7889 1.40798 36.3342 1.64667 36.1473 2.06529C35.9183 2.55653 36.1309 3.14043 36.6223 3.36943C36.7597 3.43342 36.9031 3.46273 37.046 3.46156C41.9175 4.46106 43.022 5.74191 43.022 6.11656C43.022 6.43717 42.2134 7.47816 38.5213 8.43186C35.2224 9.28401 30.8197 9.75328 26.1248 9.75328C21.4298 9.75328 17.0272 9.28401 13.7282 8.43186C10.0361 7.47816 9.22755 6.43717 9.22755 6.11656C9.22755 5.79596 10.0361 4.75497 13.7282 3.80127C17.0272 2.94911 21.4298 2.47985 26.1248 2.47985C28.2562 2.47985 30.3409 2.57734 32.3207 2.76957C32.8601 2.82152 33.34 2.42698 33.3923 1.88758C33.4446 1.34805 33.0498 0.868317 32.5103 0.815973C30.4679 0.61759 28.3194 0.51709 26.1248 0.51709C21.2688 0.51709 16.6919 1.00847 13.2372 1.90093C9.27413 2.92464 7.26466 4.34303 7.26466 6.11669V11.6306C2.50936 13.0996 0 15.0721 0 17.3512V33.633C0 34.2262 0.146301 34.8122 0.422938 35.3274C1.7263 37.7546 4.0395 39.9715 7.29803 41.9163C7.45571 42.0104 7.62897 42.0551 7.80013 42.0551C8.13435 42.0551 8.46006 41.8844 8.64379 41.5766C8.9216 41.1111 8.76941 40.5086 8.30394 40.2308C7.70251 39.8719 7.13642 39.5002 6.60382 39.119V30.7378C6.60382 30.1957 6.16452 29.7563 5.62237 29.7563C5.08022 29.7563 4.64093 30.1957 4.64093 30.7378V37.5214C3.56657 36.5168 2.72541 35.4662 2.15211 34.3987C2.02845 34.168 1.96289 33.9032 1.96289 33.633V17.3512C1.96289 16.4005 3.3818 14.9785 7.26492 13.6912V15.6734C7.26492 17.447 9.27427 18.8655 13.2375 19.8891C16.6922 20.7815 21.2691 21.273 26.125 21.273C30.981 21.273 35.5579 20.7816 39.0126 19.8891C42.9757 18.8654 44.9851 17.447 44.9851 15.6734V13.6914C48.8703 14.9798 50.2872 16.4035 50.2872 17.3512C50.2872 19.01 46.5769 20.6176 43.3998 21.4902C42.8771 21.6337 42.5697 22.1739 42.7133 22.6966C42.833 23.1323 43.2282 23.4184 43.6593 23.4184C43.7452 23.4184 43.8327 23.407 43.9197 23.3831C46.7507 22.6055 48.8864 21.6688 50.2872 20.6051V28.2338C49.2068 28.4561 48.1027 28.6528 46.9786 28.8233V27.0518C46.9786 26.5098 46.5394 26.0704 45.9972 26.0704C45.4551 26.0704 45.0158 26.5098 45.0158 27.0518V29.0921C43.3693 29.2929 41.6862 29.4382 39.9777 29.5266V28.3277C39.9777 27.7857 39.5384 27.3463 38.9962 27.3463C38.4541 27.3463 38.0148 27.7857 38.0148 28.3277V29.6026C37.3579 29.6194 36.6983 29.6291 36.0361 29.6291C35.0553 29.6291 34.0785 29.6094 33.1076 29.5717V29.1129C33.1076 28.5709 32.6683 28.1314 32.1261 28.1314C31.584 28.1314 31.1447 28.5709 31.1447 29.1129V29.4699C24.5148 29.038 18.2517 27.7355 13.1359 25.6944C12.666 25.507 12.7199 25.1083 12.7649 24.9457C12.8113 24.7784 12.9747 24.3984 13.4872 24.4811C17.3195 25.1007 21.6897 25.4283 26.1252 25.4283C30.9119 25.4283 35.5801 25.0503 39.6253 24.3352C40.159 24.2408 40.5152 23.7317 40.4209 23.1979C40.3265 22.6641 39.8174 22.3083 39.2836 22.4023C35.3494 23.0977 30.7993 23.4654 26.1252 23.4654C21.7928 23.4654 17.531 23.1465 13.8004 22.5433C12.4432 22.3236 11.2399 23.0966 10.8732 24.4222C10.8611 24.4663 10.8528 24.5103 10.8427 24.5543C9.37791 23.71 7.55006 22.421 6.43606 20.7699C6.13299 20.3204 5.52279 20.2021 5.07355 20.5053C4.62418 20.8085 4.50575 21.4186 4.80908 21.8678C7.21192 25.4292 12.1417 27.4124 12.407 27.5169C12.4076 27.5172 12.408 27.5174 12.4085 27.5176C18.9946 30.145 27.3857 31.5919 36.0361 31.5919C42.5055 31.5919 48.7632 30.7949 54.2598 29.3051V44.1673C51.5926 44.919 48.7191 45.5014 45.7054 45.8985V38.0584C45.7054 37.5164 45.2661 37.077 44.7239 37.077C44.1818 37.077 43.7425 37.5164 43.7425 38.0584V46.1287C41.2435 46.3864 38.6629 46.5206 36.0361 46.5206C36.0006 46.5206 35.9654 46.5201 35.9299 46.5201V38.451C35.9299 37.909 35.4906 37.4696 34.9485 37.4696C34.4063 37.4696 33.967 37.909 33.967 38.451V46.4914C31.3009 46.4192 28.6823 46.208 26.1547 45.8654V37.5424C26.1547 37.0004 25.7154 36.561 25.1733 36.561C24.6311 36.561 24.1918 37.0004 24.1918 37.5424V45.57C21.4405 45.1137 18.8168 44.4977 16.3794 43.7335V35.3178C16.3794 34.7758 15.9401 34.3364 15.398 34.3364C14.8558 34.3364 14.4165 34.7758 14.4165 35.3178V43.071C13.6889 42.8072 12.9801 42.53 12.294 42.2381C11.7953 42.0261 11.2188 42.2582 11.0066 42.7569C10.7943 43.2558 11.0266 43.8321 11.5254 44.0443C18.2537 46.9069 26.9585 48.4835 36.0361 48.4835C47.1889 48.4835 57.5946 46.1304 64.5853 42.0275C66.0747 41.1531 67 39.5415 67 37.8214V29.6329C67 27.9837 66.1761 26.4609 64.7961 25.5593ZM40.4355 17.4015V15.32C40.4355 14.778 39.9963 14.3386 39.4541 14.3386C38.912 14.3386 38.4727 14.778 38.4727 15.32V18.0007C37.0801 18.3577 35.4925 18.6463 33.7709 18.8612V16.0348C33.7709 15.4928 33.3316 15.0533 32.7894 15.0533C32.2473 15.0533 31.808 15.4928 31.808 16.0348V19.0686C30.3059 19.2004 28.7278 19.28 27.1063 19.3027V15.9128C27.1063 15.3708 26.667 14.9314 26.1249 14.9314C25.5827 14.9314 25.1435 15.3708 25.1435 15.9128V19.3027C23.5218 19.28 21.9439 19.2004 20.4417 19.0686V15.3725C20.4417 14.8305 20.0024 14.3911 19.4602 14.3911C18.9181 14.3911 18.4788 14.8305 18.4788 15.3725V18.8612C16.7573 18.6463 15.1697 18.3577 13.7771 18.0007V13.9956C13.7771 13.4536 13.3378 13.0142 12.7957 13.0142C12.2535 13.0142 11.8142 13.4536 11.8142 13.9956V17.4016C9.74196 16.6407 9.22755 15.9288 9.22755 15.6735V8.8035C10.2036 9.38321 11.5407 9.89395 13.2372 10.3321C16.6919 11.2244 21.2688 11.7159 26.1248 11.7159C30.9807 11.7159 35.5576 11.2244 39.0123 10.3321C40.7086 9.89395 42.0459 9.38321 43.022 8.8035V15.6734C43.0222 15.9287 42.5078 16.6407 40.4355 17.4015ZM65.0371 37.8214C65.0371 38.8482 64.4832 39.8113 63.5915 40.3346C61.4496 41.5916 58.9643 42.6763 56.2224 43.5717V28.7346C57.8885 28.2143 59.4728 27.6267 60.9582 26.975C61.8766 26.5721 62.8842 26.6551 63.7225 27.2026C64.5579 27.7484 65.037 28.6342 65.037 29.6329V37.8214H65.0371Z" fill="#5DAE38"/>
<path d="M60.6298 30.3154C59.0729 30.3154 57.8987 32.1242 57.8987 34.5227C57.8987 36.9212 59.0729 38.7298 60.6298 38.7298C62.1866 38.7298 63.3608 36.9211 63.3608 34.5227C63.3608 32.1242 62.1867 30.3154 60.6298 30.3154ZM60.6316 36.7671C60.4523 36.7374 59.8616 35.9799 59.8616 34.5227C59.8616 33.0654 60.4523 32.3079 60.6279 32.2782C60.8072 32.3079 61.3979 33.0654 61.3979 34.5227C61.3979 35.9799 60.8074 36.7375 60.6316 36.7671Z" fill="#5DAE38"/>
<path d="M17.6871 4.15265C15.1217 4.53097 13.4131 5.04878 13.4131 6.34664C13.4131 7.64451 15.1217 8.16232 17.6871 8.54063C19.9486 8.87406 22.9453 9.05779 26.1249 9.05779C29.3045 9.05779 32.3012 8.87419 34.5627 8.54063C37.1281 8.16232 38.8367 7.64451 38.8367 6.34664C38.8367 5.04878 37.1281 4.53097 34.5627 4.15265C32.3012 3.81923 29.3045 3.6355 26.1249 3.6355C22.9453 3.6355 19.9486 3.81923 17.6871 4.15265ZM35.6847 6.34664C33.9786 6.71724 30.7594 7.0949 26.1249 7.0949C21.4904 7.0949 18.2712 6.71724 16.5651 6.34664C18.2712 5.97592 21.4904 5.59839 26.1249 5.59839C30.7594 5.59839 33.9786 5.97605 35.6847 6.34664Z" fill="#5DAE38"/>
</svg>
