<svg width="28" height="28" viewBox="0 0 28 28" fill="none" xmlns="http://www.w3.org/2000/svg">
<path fill-rule="evenodd" clip-rule="evenodd" d="M0 14C0 6.26801 6.26801 0 14 0C21.732 0 28 6.26801 28 14C28 21.732 21.732 28 14 28C6.26801 28 0 21.732 0 14ZM13.9905 14.2248C16.0549 14.2248 17.7331 12.6046 17.7331 10.6129C17.7331 8.62056 16.0549 7 13.9905 7C11.9265 7 10.2479 8.62056 10.2479 10.6129C10.2479 12.6046 11.9265 14.2248 13.9905 14.2248ZM17.6876 16.3048C17.0109 16.715 16.2761 17.006 15.5143 17.1735L17.6065 19.1933C18.0351 19.6062 18.0351 20.2767 17.6065 20.69C17.1784 21.1033 16.4844 21.1033 16.0567 20.69L13.9996 18.7052L11.9443 20.69C11.73 20.8965 11.4492 20.9998 11.1684 20.9998C10.888 20.9998 10.6077 20.8965 10.3934 20.69C9.96521 20.2767 9.96521 19.6066 10.3929 19.1933L12.4854 17.1735C11.7235 17.006 10.9888 16.7146 10.3121 16.3048C9.79994 15.9931 9.6461 15.34 9.96879 14.8452C10.2906 14.3498 10.9673 14.2006 11.4803 14.5123C13.0125 15.4427 14.9863 15.4429 16.5193 14.5123C17.0324 14.2006 17.7089 14.3498 18.0313 14.8452C18.354 15.3396 18.1997 15.9931 17.6876 16.3048Z" fill="#5DAE38"/>
<path d="M13.9905 9.11731C14.845 9.11731 15.5401 9.78806 15.5401 10.6129C15.5401 11.4372 14.845 12.1083 13.9905 12.1083C13.1366 12.1083 12.4409 11.4372 12.4409 10.6129C12.4409 9.78806 13.1366 9.11731 13.9905 9.11731Z" fill="#5DAE38"/>
</svg>
