<svg width="70" height="70" viewBox="0 0 70 70" fill="none" xmlns="http://www.w3.org/2000/svg">
<path d="M61.7586 32.4379C59.3767 31.2471 54.9107 31.2333 54.7218 31.2333C54.1555 31.2333 53.6964 31.6924 53.6964 32.2587C53.6964 32.825 54.1555 33.2841 54.7218 33.2841C55.8742 33.2842 59.2201 33.4617 60.8415 34.2723C60.9887 34.346 61.1451 34.3807 61.2992 34.3807C61.6753 34.3807 62.0375 34.1729 62.2171 33.8137C62.4705 33.3072 62.2651 32.6912 61.7586 32.4379Z" fill="#5DAE38"/>
<path d="M66.8708 47.0369L62.6359 45.8269C62.4531 45.7747 62.3254 45.6054 62.3254 45.4152V44.0017C62.67 43.763 62.9986 43.4958 63.3058 43.1977C64.7947 41.7528 65.6146 39.8148 65.6146 37.7405V35.79L66.0241 34.9712C66.4735 34.0722 66.711 33.0659 66.711 32.061V26.7768C66.711 26.2105 66.2519 25.7514 65.6856 25.7514H55.8182C52.2301 25.7514 49.3109 28.6706 49.3109 32.2587V32.3198C49.3109 33.1554 49.5085 33.9923 49.8821 34.7396L50.4072 35.7898V37.4646C50.4072 40.1189 51.7152 42.5004 53.6964 43.9335L53.6967 45.415C53.6967 45.6434 53.6967 45.738 52.85 45.98L50.7836 46.5704L44.8062 44.3968C44.8276 44.1148 44.7325 43.8279 44.5267 43.6118L42.6166 41.605V38.2363C42.8185 38.0699 43.0176 37.899 43.2105 37.7182C45.6202 35.4597 47.0021 32.2708 47.0021 28.9695V26.2791C47.7297 24.6958 48.0985 23.0203 48.0985 21.2948V10.3313C48.0985 9.76501 47.6394 9.30591 47.0731 9.30591H31.7238C26.3221 9.30591 21.9275 13.7006 21.9275 19.1022V21.295C21.9275 23.0206 22.2962 24.6961 23.0238 26.2794V28.5942C23.0238 32.4272 24.7282 35.8805 27.4094 38.1571V41.6052L25.4993 43.6119C25.2935 43.8281 25.1984 44.1149 25.2198 44.397L18.9109 46.691C18.4538 46.8572 18.029 47.0824 17.6433 47.3551L16.6526 46.8598C19.6016 45.5762 20.5358 43.7708 20.5807 43.6811C20.7251 43.3925 20.7251 43.0526 20.5807 42.764C19.8414 41.2855 19.7519 38.5756 19.68 36.3982C19.6561 35.6733 19.6334 34.9885 19.59 34.3788C19.2404 29.4604 15.5014 25.7514 10.8927 25.7514C6.28387 25.7514 2.54475 29.4603 2.19529 34.3788C2.15195 34.9887 2.12926 35.6735 2.10533 36.3985C2.03342 38.5758 1.94373 41.2854 1.20463 42.7639C1.06025 43.0525 1.06025 43.3924 1.20463 43.681C1.24947 43.7707 2.18176 45.5723 5.13666 46.8575L2.38492 48.2333C0.913828 48.9694 0 50.448 0 52.0926V59.668C0 60.2343 0.459102 60.6934 1.02539 60.6934C1.59168 60.6934 2.05078 60.2343 2.05078 59.668V52.0926C2.05078 51.2296 2.53025 50.4537 3.30203 50.0678L6.72861 48.3546L7.92053 49.4873C8.75396 50.2793 9.8231 50.6751 10.8927 50.6751C11.9619 50.6751 13.0316 50.279 13.8648 49.4873L15.0566 48.3547L16.1738 48.9133C15.6477 49.7551 15.3491 50.7422 15.3491 51.7762V59.6683C15.3491 60.2346 15.8082 60.6937 16.3745 60.6937C16.9408 60.6937 17.3999 60.2346 17.3999 59.6683V51.7762C17.3999 50.3686 18.2887 49.0995 19.6118 48.6184L26.2634 46.1997L29.0324 50.3534C29.3863 50.8844 29.9536 51.225 30.5886 51.2879C30.6595 51.2948 30.7299 51.2982 30.8001 51.2982C31.3604 51.2982 31.897 51.0777 32.2982 50.6767L33.9875 48.9874V59.6684C33.9875 60.2347 34.4466 60.6938 35.0129 60.6938C35.5791 60.6938 36.0382 60.2347 36.0382 59.6684V48.9874L37.7275 50.6767C38.1285 51.0779 38.6652 51.2984 39.2256 51.2984C39.2957 51.2984 39.3662 51.295 39.4369 51.288C40.0721 51.2251 40.6394 50.8845 40.9933 50.3535L43.7624 46.2L50.4139 48.6187C51.7368 49.0998 52.6258 50.3688 52.6258 51.7765V59.6686C52.6258 60.2349 53.0849 60.694 53.6512 60.694C54.2175 60.694 54.6766 60.2349 54.6766 59.6686V51.7765C54.6766 50.3508 54.1101 49.0137 53.1599 48.0248L53.4133 47.9525C53.6688 47.8795 54.0174 47.7795 54.3674 47.6079L56.9855 50.226V59.6686C56.9855 60.2349 57.4446 60.694 58.0109 60.694C58.5772 60.694 59.0363 60.2349 59.0363 59.6686V50.226L61.6361 47.6261C61.7743 47.6964 61.9195 47.7557 62.0724 47.7993L66.3074 49.0093C67.274 49.2855 67.9492 50.1806 67.9492 51.186V59.6686C67.9492 60.2349 68.4083 60.694 68.9746 60.694C69.5409 60.694 70 60.2349 70 59.6686V51.186C70 49.2695 68.7132 47.5634 66.8708 47.0369ZM6.57822 45.2257C4.6602 44.5356 3.69811 43.6155 3.2874 43.113C3.5674 42.381 3.74896 41.5427 3.87188 40.6577C4.43734 42.0135 5.38439 43.171 6.57822 43.9968V45.2257ZM12.4523 48.0009C11.5778 48.8318 10.2077 48.8317 9.33338 48.0007L8.37977 47.0946C8.54068 46.7931 8.62914 46.4513 8.62914 46.0932V45.0003C9.34445 45.2238 10.1049 45.3444 10.8929 45.3444C11.68 45.3444 12.44 45.2233 13.1566 45.001L13.1564 46.0931C13.1564 46.4513 13.2448 46.7932 13.4058 47.0948L12.4523 48.0009ZM10.8932 43.2936C7.83125 43.2936 5.34037 40.8026 5.34037 37.7408C5.34037 37.1745 4.88127 36.7154 4.31498 36.7154C4.25756 36.7154 4.2015 36.7213 4.14668 36.7305C4.14969 36.6423 4.15256 36.554 4.15557 36.4666C4.1784 35.7615 4.20041 35.0956 4.24102 34.5244C4.37199 32.6819 5.10822 30.9842 6.31408 29.7436C7.53074 28.4918 9.15688 27.8025 10.8929 27.8025C12.629 27.8025 14.255 28.4918 15.4718 29.7436C16.6776 30.9842 17.4139 32.6819 17.5448 34.5244C17.5853 35.0954 17.6075 35.7613 17.6307 36.4662C17.6328 36.5267 17.6348 36.5881 17.6369 36.6491C16.5212 34.9303 14.7983 33.6636 12.5721 32.9483C10.5154 32.2875 8.74658 32.3284 8.67193 32.3303C8.40342 32.3378 8.14857 32.4502 7.96223 32.6435L6.11215 34.5622C5.71908 34.9699 5.73084 35.6191 6.13854 36.0121C6.54623 36.4052 7.19537 36.3933 7.58844 35.9858L9.12789 34.3893C10.4537 34.4541 14.7189 34.9501 16.3777 38.6028C15.9603 41.2945 13.6467 43.2936 10.8932 43.2936ZM15.2071 45.2292L15.2072 44.0062C16.4001 43.1849 17.3485 42.0297 17.9144 40.6636C18.0373 41.5465 18.2187 42.383 18.4982 43.1133C18.0898 43.611 17.1232 44.5393 15.2071 45.2292ZM25.0746 28.5941V26.05C25.0746 25.8956 25.0398 25.7432 24.9726 25.6042C24.3128 24.2378 23.9783 22.788 23.9783 21.295V19.1024C23.9783 14.8314 27.453 11.3568 31.7238 11.3568H46.0477V21.2952C46.0477 22.7882 45.7131 24.2379 45.0533 25.6043C44.9862 25.7433 44.9513 25.8958 44.9513 26.0501V28.9698C44.9513 31.7467 43.835 34.3223 41.808 36.2223C41.555 36.4593 41.2923 36.6817 41.0208 36.8888C41.0148 36.8929 41.0091 36.8974 41.0032 36.9016C39.1043 38.3433 36.7784 39.044 34.3495 38.8867C29.1486 38.5499 25.0746 34.0289 25.0746 28.5941ZM30.8481 49.2264C30.841 49.2335 30.8245 49.2503 30.791 49.2468C30.7576 49.2435 30.7445 49.224 30.7389 49.2155L27.5499 44.432L28.5761 43.3537L33.4139 46.6605L30.8481 49.2264ZM35.013 45.2694L29.4602 41.4738V39.5597C30.8969 40.3364 32.5057 40.8222 34.2167 40.9329C34.487 40.9504 34.7557 40.959 35.0235 40.959C36.9842 40.959 38.8712 40.4904 40.5658 39.6007V41.4738L35.013 45.2694ZM39.2871 49.2158C39.2815 49.2242 39.2684 49.2438 39.235 49.2471C39.2015 49.2513 39.1851 49.2337 39.1779 49.2267L36.612 46.6609L41.4498 43.3539L42.4762 44.4322L39.2871 49.2158ZM58.0109 48.3506L55.6839 46.0238C55.7245 45.8393 55.7475 45.6374 55.7473 45.4147L55.7472 44.982C56.3929 45.1939 57.0735 45.3197 57.7778 45.3407C57.8568 45.3432 57.9351 45.3443 58.0139 45.3443C58.7921 45.3443 59.5517 45.2267 60.2746 45.0024V45.4152C60.2746 45.6198 60.3004 45.8202 60.3487 46.0128L58.0109 48.3506ZM61.8777 41.726C60.7909 42.7807 59.3552 43.3377 57.8394 43.2909C54.8721 43.2019 52.458 40.5882 52.458 37.4649V35.548C52.458 35.3887 52.421 35.2317 52.3497 35.0894L51.7163 33.8226C51.4843 33.3584 51.3617 32.8389 51.3617 32.3199V32.2588C51.3617 29.8014 53.3609 27.8023 55.8182 27.8023H64.6602V32.0611C64.6602 32.7493 64.4975 33.4385 64.1897 34.0542L63.6721 35.0894C63.6009 35.2319 63.5638 35.3887 63.5638 35.548V37.7407C63.5638 39.2555 62.965 40.6708 61.8777 41.726Z" fill="#5DAE38"/>
<path d="M64.5891 52.0645C64.0228 52.0645 63.5637 52.5236 63.5637 53.0898V59.6681C63.5637 60.2344 64.0228 60.6935 64.5891 60.6935C65.1554 60.6935 65.6145 60.2344 65.6145 59.6681V53.0898C65.6145 52.5237 65.1554 52.0645 64.5891 52.0645Z" fill="#5DAE38"/>
<path d="M5.41092 53.4199C4.84463 53.4199 4.38553 53.879 4.38553 54.4453V59.668C4.38553 60.2343 4.84463 60.6934 5.41092 60.6934C5.97721 60.6934 6.43631 60.2343 6.43631 59.668V54.4453C6.43631 53.8791 5.97721 53.4199 5.41092 53.4199Z" fill="#5DAE38"/>
<path d="M43.4126 21.6665C39.5344 17.7884 31.4203 18.5298 28.1114 19.0285C27.0692 19.1856 26.3129 20.0676 26.3129 21.1257V23.4879C26.3129 24.0542 26.772 24.5133 27.3383 24.5133C27.9046 24.5133 28.3637 24.0542 28.3637 23.4879V21.1255C28.3637 21.0907 28.3866 21.0609 28.4173 21.0562C29.7389 20.857 32.3616 20.5497 35.0789 20.7308C38.2765 20.9437 40.5925 21.7464 41.9625 23.1166C42.363 23.517 43.0123 23.517 43.4126 23.1166C43.813 22.7161 43.813 22.0668 43.4126 21.6665Z" fill="#5DAE38"/>
<path d="M22.9529 54.2573C22.3866 54.2573 21.9275 54.7164 21.9275 55.2827V59.6682C21.9275 60.2345 22.3866 60.6936 22.9529 60.6936C23.5192 60.6936 23.9783 60.2345 23.9783 59.6682V55.2827C23.9783 54.7165 23.5192 54.2573 22.9529 54.2573Z" fill="#5DAE38"/>
<path d="M47.0731 54.2573C46.5068 54.2573 46.0477 54.7164 46.0477 55.2827V59.6682C46.0477 60.2345 46.5068 60.6936 47.0731 60.6936C47.6394 60.6936 48.0985 60.2345 48.0985 59.6682V55.2827C48.0985 54.7165 47.6394 54.2573 47.0731 54.2573Z" fill="#5DAE38"/>
</svg>
