<svg width="64" height="62" viewBox="0 0 64 62" fill="none" xmlns="http://www.w3.org/2000/svg">
<path d="M61.2601 21.7022H53.1556L53.1007 20.5189C53.0789 20.0459 52.8248 19.6159 52.421 19.3684L50.459 18.1659L51.6716 17.6093C52.3865 17.281 52.7011 16.4323 52.373 15.7173L50.999 12.724C50.8014 12.2939 50.4047 11.9903 49.9379 11.9122L47.4422 11.4943L48.4608 10.2269C48.9318 9.64091 48.8654 8.78504 48.3096 8.27841L45.8537 6.04029C45.5037 5.72129 45.02 5.59704 44.5596 5.70741L42.322 6.24441L42.7858 4.99341C43.0592 4.25579 42.6816 3.43316 41.9439 3.15954L38.856 2.01466C38.4121 1.85016 37.917 1.91591 37.5314 2.19079L35.4712 3.66004L35.2952 2.04354C35.2137 1.29616 34.5579 0.737914 33.8106 0.772789L30.4915 0.926664C30.0185 0.948539 29.5885 1.20266 29.341 1.60641L28.1385 3.56841L27.5819 2.35579C27.2536 1.64079 26.4047 1.32604 25.6899 1.65441L23.5326 2.64466C23.1775 2.80766 22.9019 3.11341 22.7765 3.48329L21.6698 6.74804L20.1996 5.56654C19.6136 5.09554 18.7576 5.16191 18.2511 5.71766L16.6325 7.49366C16.3694 7.78241 16.235 8.17141 16.2641 8.56129L16.507 11.8128L14.9661 11.2415C14.2287 10.968 13.406 11.3457 13.1322 12.0834L12.307 14.3093C12.1713 14.6755 12.1925 15.0865 12.3655 15.4368L13.8915 18.5279L12.0165 18.732C11.269 18.8133 10.7106 19.4654 10.7455 20.2167L10.8144 21.702H2.73988C1.22913 21.7022 0 22.9313 0 24.442V32.2454V43.3754C0 44.8862 1.22913 46.1153 2.73988 46.1153H4.36438L2.21988 58.5202C1.97563 59.9333 3.06325 61.2287 4.50037 61.2287H6.47425C7.48212 61.2287 8.36713 60.5843 8.67675 59.6252L10.8352 52.9375H53.1647L55.3234 59.6253C55.633 60.5844 56.518 61.2288 57.5259 61.2288H59.4997C60.9337 61.2288 62.025 59.9364 61.7803 58.5203L60.92 53.5437C60.8319 53.0335 60.3466 52.6912 59.8366 52.7797C59.3264 52.8679 58.9842 53.3529 59.0725 53.8632L59.9328 58.8397C59.9791 59.1083 59.7728 59.3538 59.4999 59.3538H57.526C57.3346 59.3538 57.1666 59.2314 57.1079 59.0494L52.0749 43.4558H57.2735L58.3245 49.5352C58.4125 50.0444 58.8968 50.3875 59.408 50.2993C59.9183 50.211 60.2603 49.726 60.172 49.2158L59.1763 43.4559H61.2605C62.7713 43.4559 64.0004 42.2268 64.0004 40.716V24.442C64 22.9313 62.7709 21.7022 61.2601 21.7022ZM14.7312 20.3228C15.7154 20.2155 16.2945 19.1604 15.8562 18.2727L14.1322 14.7802L14.7345 13.1557L16.5099 13.8139C17.4851 14.1757 18.5063 13.4054 18.4289 12.3697L18.1483 8.61441L19.3534 7.29204C20.6255 8.16504 21.1759 9.19266 22.2876 8.86879C22.7345 8.73854 23.0904 8.39779 23.2399 7.95704L24.4904 4.26829L26.065 3.54554L26.785 5.11391C27.2595 6.14804 28.7011 6.23879 29.2984 5.26441L30.8158 2.78866L33.4771 2.66516L33.6904 4.62354C33.8084 5.70716 35.0487 6.26466 35.9374 5.63091L38.4271 3.85529L40.8722 4.76191L40.2723 6.38016C40.0886 6.87516 40.1923 7.42816 40.5428 7.82316C40.8932 8.21816 41.43 8.38704 41.9431 8.26366L44.7666 7.58616L46.7357 9.38066L45.5018 10.9162C44.8189 11.7659 45.302 13.0372 46.3784 13.2173L49.3944 13.7223L50.4823 16.0923L48.9136 16.8123C47.8775 17.288 47.7915 18.73 48.7632 19.3255L51.239 20.8429L51.2789 21.7022H42.2663C42.2648 21.6518 42.2638 21.6012 42.2615 21.5513C41.9985 15.8805 37.1985 11.5048 31.524 11.7658C26.1353 12.0159 21.9002 16.3975 21.7356 21.702H12.6912L12.6379 20.5505L14.7312 20.3228ZM31.7771 17.2235C29.3132 17.3379 27.3643 19.2972 27.2027 21.7023H23.6103C23.7705 17.3874 27.2101 13.8433 31.6109 13.639C36.247 13.4243 40.1734 17.0013 40.3885 21.6384C40.3895 21.6593 40.3888 21.6813 40.3896 21.7023H36.7967C36.621 19.1032 34.392 17.1008 31.7771 17.2235ZM34.9154 21.7022H29.084C29.2404 20.2933 30.4043 19.1642 31.864 19.0964C33.4165 19.0244 34.7464 20.1788 34.9154 21.7022ZM6.89237 59.0494C6.83362 59.2315 6.66562 59.3538 6.47425 59.3538H4.50037C4.22775 59.3538 4.021 59.1085 4.0675 58.8397L6.26725 46.1154H11.0671L6.89237 59.0494ZM52.5595 51.0625H11.4405L13.0372 46.1153H22.6149C24.0305 46.1153 25.1822 44.9635 25.1822 43.5479V43.4558H31.0625V43.8304C31.0625 46.4035 33.156 48.497 35.7291 48.497C38.3022 48.497 40.3957 46.4035 40.3957 43.8304V43.4558H50.1043L52.5595 51.0625ZM25.1822 41.5808V37.3125H29.3867C30.3109 37.3125 31.0626 38.0643 31.0626 38.9884V41.5808H25.1822ZM32.9375 43.8304V43.4558H38.5209V43.8304C38.5209 45.3697 37.2685 46.622 35.7293 46.622C34.1899 46.622 32.9375 45.3698 32.9375 43.8304ZM62.125 40.7159C62.125 41.1928 61.737 41.5808 61.2601 41.5808C60.3435 41.5808 33.5709 41.5808 32.9375 41.5808V38.9884C32.9375 37.0304 31.3446 35.4375 29.3866 35.4375H25.1821V33.8753C25.1821 32.4597 24.0304 31.3079 22.6147 31.3079H10.2966C9.77888 31.3079 9.35913 31.7277 9.35913 32.2454C9.35913 32.7632 9.77888 33.1829 10.2966 33.1829H22.6147C22.9965 33.1829 23.3071 33.4935 23.3071 33.8753V43.5479C23.3071 43.9297 22.9965 44.2403 22.6147 44.2403C20.2676 44.2403 4.79375 44.2403 2.73975 44.2403C2.26287 44.2403 1.87487 43.8523 1.87487 43.3754V33.1829H5.91375C6.4315 33.1829 6.85125 32.7632 6.85125 32.2454C6.85125 31.7277 6.4315 31.3079 5.91375 31.3079H1.875V24.442C1.875 23.9652 2.263 23.5772 2.73988 23.5772H61.2601C61.737 23.5772 62.125 23.9652 62.125 24.442V40.7159Z" fill="#5DAE38"/>
<path d="M4.5055 38.7115C4.5055 40.6949 6.11913 42.3085 8.1025 42.3085C10.0859 42.3085 11.6995 40.6949 11.6995 38.7115C11.6995 36.7281 10.0859 35.1145 8.1025 35.1145C6.11913 35.1145 4.5055 36.7281 4.5055 38.7115ZM9.82463 38.7115C9.82463 39.661 9.05213 40.4335 8.10263 40.4335C7.15313 40.4335 6.38063 39.661 6.38063 38.7115C6.38063 37.762 7.15313 36.9895 8.10263 36.9895C9.05213 36.9895 9.82463 37.762 9.82463 38.7115Z" fill="#5DAE38"/>
<path d="M17.0796 42.3087C19.063 42.3087 20.6766 40.6951 20.6766 38.7117C20.6766 36.7284 19.063 35.1147 17.0796 35.1147C15.0963 35.1147 13.4826 36.7284 13.4826 38.7117C13.4826 40.6951 15.0963 42.3087 17.0796 42.3087ZM17.0796 36.9897C18.0291 36.9897 18.8016 37.7622 18.8016 38.7117C18.8016 39.6612 18.0291 40.4337 17.0796 40.4337C16.1301 40.4337 15.3576 39.6612 15.3576 38.7117C15.3576 37.7622 16.1301 36.9897 17.0796 36.9897Z" fill="#5DAE38"/>
</svg>
