<svg width="61" height="61" viewBox="0 0 61 61" fill="none" xmlns="http://www.w3.org/2000/svg">
<path d="M11.9114 47.3995C9.56163 47.3995 7.6499 49.3113 7.6499 51.6611C7.6499 54.0109 9.56163 55.9226 11.9114 55.9226C14.2614 55.9226 16.173 54.0109 16.173 51.6611C16.173 49.3113 14.2614 47.3995 11.9114 47.3995ZM11.9114 54.1372C10.5462 54.1372 9.43546 53.0264 9.43546 51.6612C9.43546 50.296 10.5462 49.1852 11.9114 49.1852C13.2768 49.1852 14.3874 50.296 14.3874 51.6612C14.3874 53.0264 13.2768 54.1372 11.9114 54.1372Z" fill="#5DAE38"/>
<path d="M28.5654 51.6612C28.5654 49.3113 26.6536 47.3997 24.3038 47.3997C21.954 47.3997 20.0423 49.3114 20.0423 51.6612C20.0423 54.011 21.954 55.9227 24.3038 55.9227C26.6536 55.9227 28.5654 54.011 28.5654 51.6612ZM21.8279 51.6612C21.8279 50.296 22.9386 49.1852 24.3038 49.1852C25.6692 49.1852 26.7798 50.296 26.7798 51.6612C26.7798 53.0264 25.6691 54.1372 24.3038 54.1372C22.9385 54.1372 21.8279 53.0264 21.8279 51.6612Z" fill="#5DAE38"/>
<path d="M40.9578 51.6612C40.9578 49.3113 39.0461 47.3997 36.6963 47.3997C34.3465 47.3997 32.4347 49.3114 32.4347 51.6612C32.4347 54.011 34.3465 55.9227 36.6963 55.9227C39.0461 55.9227 40.9578 54.011 40.9578 51.6612ZM34.2202 51.6612C34.2202 50.296 35.3309 49.1852 36.6961 49.1852C38.0614 49.1852 39.1721 50.296 39.1721 51.6612C39.1721 53.0264 38.0614 54.1372 36.6961 54.1372C35.3309 54.1372 34.2202 53.0264 34.2202 51.6612Z" fill="#5DAE38"/>
<path d="M53.3501 51.6612C53.3501 49.3113 51.4384 47.3997 49.0886 47.3997C46.7386 47.3997 44.827 49.3114 44.827 51.6612C44.827 54.011 46.7388 55.9227 49.0886 55.9227C51.4384 55.9227 53.3501 54.011 53.3501 51.6612ZM46.6126 51.6612C46.6126 50.296 47.7233 49.1852 49.0886 49.1852C50.4538 49.1852 51.5645 50.296 51.5645 51.6612C51.5645 53.0264 50.4538 54.1372 49.0886 54.1372C47.7232 54.1372 46.6126 53.0264 46.6126 51.6612Z" fill="#5DAE38"/>
<path d="M51.6767 42.3377H43.2079V38.7979C43.2079 38.3048 42.8082 37.9051 42.3151 37.9051C41.8219 37.9051 41.4222 38.3048 41.4222 38.7979V42.3377H16.8466V17.8021C16.8466 17.7801 16.8646 17.762 16.8868 17.762H25.0946V23.8695C25.0946 24.3777 25.3535 24.8393 25.7872 25.1043C26.0198 25.2464 26.2799 25.318 26.541 25.318C26.7664 25.318 26.9924 25.2646 27.2019 25.1572L29.1345 24.1666L31.067 25.1572C31.5192 25.3892 32.0481 25.3693 32.4819 25.1043C32.9156 24.8393 33.1745 24.3777 33.1745 23.8695V17.762H41.3823C41.4043 17.762 41.4225 17.78 41.4225 17.8021V34.6681C41.4225 35.1613 41.8222 35.561 42.3153 35.561C42.8084 35.561 43.2081 35.1613 43.2081 34.6681V32.3922H44.8631C45.9392 32.3922 46.8148 31.5168 46.8148 30.4406V28.2329C46.8148 28.1641 46.8563 28.1015 46.9158 28.0805C47.329 27.9346 47.7387 27.7649 48.1338 27.5764C48.1923 27.5488 48.2645 27.5632 48.3137 27.6124L49.8745 29.1733C50.6355 29.934 51.8736 29.934 52.6345 29.1733L55.6793 26.1285C56.4403 25.3676 56.4403 24.1293 55.6793 23.3684L54.1184 21.8076C54.0691 21.7583 54.0547 21.6859 54.0826 21.6276C54.2711 21.2325 54.4406 20.8228 54.5867 20.4098C54.6077 20.3502 54.6704 20.3086 54.739 20.3086H56.9467C58.0228 20.3086 58.8984 19.433 58.8984 18.3568V14.0509C58.8984 12.9748 58.0229 12.0992 56.9467 12.0992H54.739C54.6703 12.0992 54.6076 12.0576 54.5867 11.9982C54.4406 11.585 54.2711 11.1753 54.0827 10.7803C54.0548 10.7218 54.0691 10.6495 54.1184 10.6003L55.6793 9.03945C56.4403 8.2785 56.4403 7.04027 55.6793 6.27932L52.6345 3.23456C51.8736 2.47385 50.6355 2.47385 49.8745 3.23456L48.3134 4.79542C48.2641 4.84475 48.1917 4.8594 48.1333 4.83128C47.7387 4.64304 47.3291 4.47362 46.9154 4.3272C46.856 4.30611 46.8144 4.24344 46.8144 4.17482V1.96714C46.8144 0.891065 45.9388 0.0153809 44.8628 0.0153809H40.5568C39.4807 0.0153809 38.6051 0.890945 38.6051 1.96714V4.1747C38.6051 4.24344 38.5636 4.30611 38.5037 4.3272C38.0903 4.47338 37.6807 4.64304 37.2861 4.83128C37.2278 4.85892 37.1554 4.84463 37.1061 4.7953L35.5452 3.23444C34.7843 2.47373 33.5462 2.47373 32.7852 3.23444L29.7405 6.2792C28.9795 7.04015 28.9795 8.27838 29.7405 9.03933L31.3015 10.6002C31.3507 10.6495 31.3651 10.7218 31.3372 10.7801C31.149 11.1747 30.9794 11.5843 30.8331 11.998C30.812 12.0575 30.7494 12.0991 30.6807 12.0991H28.4731C27.397 12.0991 26.5214 12.9745 26.5214 14.0507V15.9763H16.8868C15.88 15.9763 15.061 16.7953 15.061 17.802V42.3376H9.32347C4.18243 42.3377 0 46.5201 0 51.6612C0 56.8022 4.18243 60.9846 9.32347 60.9846H13.4037C13.8968 60.9846 14.2965 60.5849 14.2965 60.0918C14.2965 59.5987 13.8968 59.199 13.4037 59.199H9.32347C5.16713 59.199 1.78556 55.8175 1.78556 51.6612C1.78556 47.5048 5.16701 44.1233 9.32347 44.1233H51.6767C55.833 44.1233 59.2144 47.5047 59.2144 51.6612C59.2144 55.8175 55.833 59.199 51.6767 59.199H17.5474C17.0543 59.199 16.6545 59.5987 16.6545 60.0918C16.6545 60.5849 17.0543 60.9846 17.5474 60.9846H51.6767C56.8176 60.9846 61 56.8022 61 51.6612C61 46.5201 56.8176 42.3377 51.6767 42.3377ZM41.3822 15.9764H36.0979C36.2185 12.4325 39.1371 9.58619 42.7099 9.58619C46.3589 9.58619 49.3276 12.5548 49.3276 16.204C49.3276 19.6853 46.625 22.5452 43.2079 22.801V17.8021C43.2079 16.7954 42.3889 15.9764 41.3822 15.9764ZM28.307 14.0509C28.307 13.9594 28.3814 13.8849 28.4731 13.8849H30.6807C31.5058 13.8849 32.2435 13.3658 32.5166 12.5934C32.642 12.2387 32.7874 11.8874 32.9487 11.5493C33.3016 10.8095 33.1471 9.92073 32.5639 9.33778L31.003 7.77692C30.9383 7.71234 30.9383 7.6069 31.003 7.54221L34.0478 4.49745C34.1126 4.43276 34.2179 4.43252 34.2826 4.49745L35.8436 6.05831C36.4267 6.64139 37.3153 6.79591 38.0549 6.44314C38.3933 6.28182 38.7446 6.13635 39.0991 6.01089C39.8717 5.73794 40.3908 5.00011 40.3908 4.17494V1.96714C40.3908 1.87552 40.4653 1.80106 40.5568 1.80106H44.8628C44.9543 1.80106 45.0288 1.87552 45.0288 1.96714V4.1747C45.0288 4.99987 45.5479 5.73771 46.3202 6.01054C46.6749 6.13611 47.0264 6.28146 47.3645 6.44278C48.1041 6.79567 48.9928 6.64115 49.576 6.05807L51.1368 4.49721C51.2015 4.43228 51.3068 4.43252 51.3717 4.49721L54.4164 7.54197C54.4812 7.60666 54.4812 7.7121 54.4164 7.77668L52.8555 9.33754C52.2725 9.9205 52.1177 10.8093 52.4707 11.549C52.6323 11.8876 52.7776 12.239 52.9028 12.5932C53.1759 13.3657 53.9138 13.8847 54.7388 13.8847H56.9465C57.038 13.8847 57.1124 13.9591 57.1124 14.0506V18.3566C57.1124 18.4482 57.038 18.5227 56.9465 18.5227H54.7388C53.9138 18.5227 53.176 19.0418 52.9028 19.8143C52.7776 20.1684 52.6323 20.5197 52.4707 20.8583C52.1178 21.5979 52.2725 22.4866 52.8555 23.0698L54.4164 24.6307C54.4812 24.6952 54.4812 24.8007 54.4164 24.8654L51.3717 27.9101C51.307 27.9749 51.2016 27.9751 51.1368 27.9101L49.576 26.3494C48.993 25.7662 48.1042 25.6116 47.3646 25.9644C47.026 26.1259 46.6747 26.2714 46.3202 26.3966C45.5477 26.6698 45.0287 27.4076 45.0287 28.2325V30.4402C45.0287 30.5317 44.9543 30.6062 44.8626 30.6062H43.2077V24.5908C47.6101 24.332 51.1129 20.6697 51.1129 16.2035C51.1129 11.5699 47.3431 7.80015 42.7096 7.80015C38.1524 7.80015 34.4334 11.4474 34.3121 15.9759H28.3069V14.0509H28.307ZM26.8802 17.762H31.3887V23.3157L29.7946 22.4986C29.3814 22.2867 28.8878 22.2866 28.4743 22.4986L26.8802 23.3157V17.762Z" fill="#5DAE38"/>
<path d="M24.694 33.026C23.9072 33.026 23.267 33.6661 23.267 34.4531V38.2639C23.267 39.0507 23.9071 39.6908 24.694 39.6908H33.5749C34.3617 39.6908 35.002 39.0507 35.002 38.2639V34.4531C35.002 33.6661 34.3618 33.026 33.5749 33.026H24.694ZM33.2163 37.9052H25.0526V34.8116H33.2163V37.9052Z" fill="#5DAE38"/>
</svg>
