<svg width="10" height="16" viewBox="0 0 10 16" fill="none" xmlns="http://www.w3.org/2000/svg">
<path d="M6.18555 5C6.18555 6.26 4.96555 6.88 4.08555 7.68C3.46555 8.22 3.08555 9.14 3.24555 10.36H5.96555C5.80555 9.24 7.08555 8.52 8.10555 7.58C8.82555 6.92 9.40555 5.78 9.40555 4.34C9.40555 3.32 9.00555 2.48 8.20555 1.8C7.42555 1.1 6.36555 0.76 5.02555 0.76C3.20555 0.76 1.72555 1.6 0.985547 2.82L2.74555 4.84C3.36555 4.06 3.88555 3.76 4.86555 3.76C5.58555 3.76 6.18555 4.36 6.18555 5ZM2.72555 13.08C2.72555 14.2 3.54555 15.12 4.76555 15.12C5.86555 15.12 6.64555 14.18 6.64555 13.08C6.64555 12.12 5.82555 11.2 4.76555 11.2C3.54555 11.2 2.72555 12.12 2.72555 13.08Z"/>
</svg>
